<?xml version="1.0" encoding="UTF-8" standalone="no"?>
<svg
   xmlns:dc="http://purl.org/dc/elements/1.1/"
   xmlns:cc="http://creativecommons.org/ns#"
   xmlns:rdf="http://www.w3.org/1999/02/22-rdf-syntax-ns#"
   xmlns:svg="http://www.w3.org/2000/svg"
   xmlns="http://www.w3.org/2000/svg"
   xmlns:sodipodi="http://sodipodi.sourceforge.net/DTD/sodipodi-0.dtd"
   xmlns:inkscape="http://www.inkscape.org/namespaces/inkscape"
   sodipodi:docname="blooper_text_v2.svg"
   inkscape:version="1.0beta1 (76ce730, 2019-10-19)"
   id="svg3705"
   version="1.1"
   viewBox="0 0 60.96 128.5"
   height="128.5mm"
   width="60.959999mm">
  <defs
     id="defs3699" />
  <sodipodi:namedview
     inkscape:document-rotation="0"
     inkscape:window-maximized="0"
     inkscape:window-y="171"
     inkscape:window-x="1478"
     inkscape:window-height="1063"
     inkscape:window-width="2022"
     showgrid="false"
     inkscape:current-layer="layer2"
     inkscape:document-units="mm"
     inkscape:cy="317.81517"
     inkscape:cx="118.04017"
     inkscape:zoom="1.7604572"
     inkscape:pageshadow="2"
     inkscape:pageopacity="0.0"
     borderopacity="1.0"
     bordercolor="#666666"
     pagecolor="#ffffff"
     id="base" />
  <metadata
     id="metadata3702">
    <rdf:RDF>
      <cc:Work
         rdf:about="">
        <dc:format>image/svg+xml</dc:format>
        <dc:type
           rdf:resource="http://purl.org/dc/dcmitype/StillImage" />
        <dc:title></dc:title>
      </cc:Work>
    </rdf:RDF>
  </metadata>
  <g
     sodipodi:insensitive="true"
     style="display:inline;mix-blend-mode:normal"
     transform="translate(0,-168.5)"
     id="layer1"
     inkscape:groupmode="layer"
     inkscape:label="background">
    <rect
       y="168.1479"
       x="-0.79375005"
       height="129.38126"
       width="62.706249"
       id="rect3711"
       style="fill:#96bed2;fill-opacity:1;stroke-width:0.288951" />
  </g>
  <g
     style="display:inline"
     inkscape:label="text 1"
     id="layer3"
     inkscape:groupmode="layer">
    <rect
       ry="1.3414525"
       y="103.44295"
       x="0.27346617"
       height="9.3036642"
       width="14.332011"
       id="rect1308"
       style="display:inline;opacity:0.891304;mix-blend-mode:normal;fill:#e4e8e4;fill-opacity:0.324561;stroke:#b5adad;stroke-width:0.274117;stroke-linecap:round;stroke-linejoin:round;stroke-miterlimit:4;stroke-dasharray:0.548235, 0.274117;stroke-dashoffset:0;paint-order:stroke markers fill" />
  </g>
  <g
     style="display:inline;mix-blend-mode:normal"
     inkscape:label="text"
     id="layer2"
     inkscape:groupmode="layer">
    <g
       aria-label="CLK"
       id="text344"
       style="font-style:normal;font-variant:normal;font-weight:normal;font-stretch:normal;font-size:4.23333px;line-height:1.25;font-family:sans-serif;-inkscape-font-specification:'sans-serif Normal';font-variant-ligatures:normal;font-variant-caps:normal;font-variant-numeric:normal;font-variant-east-asian:normal;fill:#ffffff;fill-opacity:1;stroke:none;stroke-width:0.264583"
       transform="translate(10.583331,2.6458334)">
      <path
         d="m 42.209906,97.565068 q -0.285943,0 -0.528822,-0.0844 -0.241157,-0.08441 -0.415134,-0.251492 -0.173978,-0.167088 -0.270441,-0.416857 -0.09474,-0.24977 -0.09474,-0.577054 0,-0.304891 0.0913,-0.552938 0.0913,-0.248047 0.265273,-0.42547 0.167087,-0.170532 0.413412,-0.26355 0.248047,-0.09302 0.54088,-0.09302 0.16192,0 0.291111,0.01895 0.130913,0.01722 0.241157,0.04651 0.11541,0.03273 0.208428,0.07407 0.09474,0.03962 0.165365,0.07407 v 0.62184 h -0.07579 q -0.04823,-0.04134 -0.1223,-0.09819 -0.07235,-0.05684 -0.165365,-0.111966 -0.09474,-0.05512 -0.204984,-0.09302 -0.110243,-0.0379 -0.235989,-0.0379 -0.139526,0 -0.265272,0.04479 -0.125746,0.04306 -0.232544,0.144695 -0.101631,0.09819 -0.165365,0.260104 -0.06201,0.16192 -0.06201,0.392742 0,0.241156 0.06718,0.403076 0.0689,0.16192 0.172255,0.254937 0.105075,0.09474 0.234266,0.136082 0.129191,0.03962 0.254937,0.03962 0.120579,0 0.237712,-0.03617 0.118856,-0.03617 0.218764,-0.09819 0.0844,-0.04995 0.156752,-0.106798 0.07235,-0.05684 0.118856,-0.09819 h 0.0689 v 0.613227 q -0.09646,0.04306 -0.184313,0.08096 -0.08785,0.0379 -0.184313,0.06546 -0.125746,0.03617 -0.235989,0.05512 -0.110243,0.01895 -0.303169,0.01895 z"
         style="font-style:normal;font-variant:normal;font-weight:bold;font-stretch:normal;font-size:3.52778px;font-family:sans-serif;-inkscape-font-specification:'sans-serif Bold';font-variant-ligatures:normal;font-variant-caps:normal;font-variant-numeric:normal;font-variant-east-asian:normal;fill:#ffffff;fill-opacity:1;stroke-width:0.264583"
         id="path390"
         inkscape:connector-curvature="0" />
      <path
         d="m 45.456911,97.515114 h -1.850018 v -2.564875 h 0.661459 v 2.068781 h 1.188559 z"
         style="font-style:normal;font-variant:normal;font-weight:bold;font-stretch:normal;font-size:3.52778px;font-family:sans-serif;-inkscape-font-specification:'sans-serif Bold';font-variant-ligatures:normal;font-variant-caps:normal;font-variant-numeric:normal;font-variant-east-asian:normal;fill:#ffffff;fill-opacity:1;stroke-width:0.264583"
         id="path392"
         inkscape:connector-curvature="0" />
      <path
         d="m 48.24744,97.515114 h -0.81132 l -0.766534,-1.026639 -0.15503,0.187758 v 0.838881 h -0.661459 v -2.564875 h 0.661459 v 1.160998 l 0.916396,-1.160998 h 0.766534 l -1.002523,1.186836 z"
         style="font-style:normal;font-variant:normal;font-weight:bold;font-stretch:normal;font-size:3.52778px;font-family:sans-serif;-inkscape-font-specification:'sans-serif Bold';font-variant-ligatures:normal;font-variant-caps:normal;font-variant-numeric:normal;font-variant-east-asian:normal;fill:#ffffff;fill-opacity:1;stroke-width:0.264583"
         id="path394"
         inkscape:connector-curvature="0" />
    </g>
    <g
       aria-label="EXPR"
       id="text348"
       style="font-style:normal;font-weight:normal;font-size:10.5833px;line-height:1.25;font-family:sans-serif;fill:#ffffff;fill-opacity:1;stroke:none;stroke-width:0.264583"
       transform="translate(-11.641667,2.6458334)">
      <path
         d="m 51.975251,97.585861 h -1.855185 v -2.564875 h 1.855185 V 95.51708 H 50.77808 v 0.442695 h 1.111044 v 0.496094 H 50.77808 v 0.633898 h 1.197171 z"
         style="font-style:normal;font-variant:normal;font-weight:bold;font-stretch:normal;font-size:3.52778px;font-family:sans-serif;-inkscape-font-specification:'sans-serif Bold';font-variant-ligatures:normal;font-variant-caps:normal;font-variant-numeric:normal;font-variant-east-asian:normal;fill:#ffffff;fill-opacity:1;stroke-width:0.264583"
         id="path397"
         inkscape:connector-curvature="0" />
      <path
         d="m 54.857075,97.585861 h -0.764811 l -0.552938,-0.844049 -0.563274,0.844049 h -0.730361 l 0.909506,-1.291911 -0.890558,-1.272964 h 0.76309 l 0.53399,0.799263 0.549493,-0.799263 h 0.732083 l -0.895725,1.247125 z"
         style="font-style:normal;font-variant:normal;font-weight:bold;font-stretch:normal;font-size:3.52778px;font-family:sans-serif;-inkscape-font-specification:'sans-serif Bold';font-variant-ligatures:normal;font-variant-caps:normal;font-variant-numeric:normal;font-variant-east-asian:normal;fill:#ffffff;fill-opacity:1;stroke-width:0.264583"
         id="path399"
         inkscape:connector-curvature="0" />
      <path
         d="m 57.342713,95.830584 q 0,0.172255 -0.06029,0.337619 -0.06029,0.163643 -0.172255,0.275608 -0.153307,0.151585 -0.342787,0.229099 -0.187758,0.07752 -0.468533,0.07752 H 55.88716 v 0.835436 h -0.661459 v -2.564875 h 1.088651 q 0.244602,0 0.411689,0.04306 0.16881,0.04134 0.298001,0.125746 0.155029,0.10163 0.235989,0.260105 0.08268,0.158474 0.08268,0.380683 z m -0.683852,0.0155 q 0,-0.108521 -0.05857,-0.186035 -0.05857,-0.07924 -0.136082,-0.110244 -0.103353,-0.04134 -0.201538,-0.04479 -0.09819,-0.0052 -0.261827,-0.0052 H 55.88716 v 0.768256 h 0.18948 q 0.16881,0 0.27733,-0.02067 0.110243,-0.02067 0.184313,-0.08268 0.06373,-0.05512 0.0913,-0.130913 0.02928,-0.07752 0.02928,-0.187758 z"
         style="font-style:normal;font-variant:normal;font-weight:bold;font-stretch:normal;font-size:3.52778px;font-family:sans-serif;-inkscape-font-specification:'sans-serif Bold';font-variant-ligatures:normal;font-variant-caps:normal;font-variant-numeric:normal;font-variant-east-asian:normal;fill:#ffffff;fill-opacity:1;stroke-width:0.264583"
         id="path401"
         inkscape:connector-curvature="0" />
      <path
         d="m 59.247852,95.806468 q 0,-0.09646 -0.03962,-0.165364 -0.03962,-0.0689 -0.136082,-0.108521 -0.06718,-0.02756 -0.156752,-0.03273 -0.08957,-0.0069 -0.208428,-0.0069 h -0.239434 v 0.690742 h 0.20326 q 0.158475,0 0.265273,-0.0155 0.106798,-0.0155 0.179145,-0.07062 0.0689,-0.0534 0.09991,-0.117133 0.03273,-0.06546 0.03273,-0.173978 z m 1.031807,1.779393 H 59.471784 L 58.772429,96.64535 h -0.304891 v 0.940511 h -0.658014 v -2.564875 h 1.109321 q 0.227377,0 0.391019,0.02584 0.163642,0.02584 0.306614,0.111966 0.144694,0.08613 0.229099,0.223931 0.08613,0.136082 0.08613,0.342787 0,0.284221 -0.132636,0.463366 -0.130914,0.179145 -0.375516,0.298001 z"
         style="font-style:normal;font-variant:normal;font-weight:bold;font-stretch:normal;font-size:3.52778px;font-family:sans-serif;-inkscape-font-specification:'sans-serif Bold';font-variant-ligatures:normal;font-variant-caps:normal;font-variant-numeric:normal;font-variant-east-asian:normal;fill:#ffffff;fill-opacity:1;stroke-width:0.264583"
         id="path403"
         inkscape:connector-curvature="0" />
    </g>
    <g
       transform="translate(-0.3005848,-6.3562869)"
       style="font-size:2.11667px;line-height:1.25;font-family:sans-serif;-inkscape-font-specification:'sans-serif Normal';stroke-width:0.265;stroke-miterlimit:4;stroke-dasharray:0.53, 0.265;stroke-dashoffset:0"
       id="text1115"
       aria-label="REC">
      <path
         inkscape:connector-curvature="0"
         id="path1257"
         style="font-style:normal;font-variant:normal;font-weight:bold;font-stretch:normal;font-size:2.11667px;font-family:sans-serif;-inkscape-font-specification:'sans-serif Bold';font-variant-ligatures:normal;font-variant-caps:normal;font-variant-numeric:normal;font-variant-east-asian:normal;fill:#ff0000;fill-opacity:1;stroke-width:0.265;stroke-miterlimit:4;stroke-dasharray:0.53, 0.265;stroke-dashoffset:0"
         d="m 10.155201,115.25239 q 0,-0.0579 -0.02377,-0.0992 -0.02377,-0.0413 -0.08165,-0.0651 -0.04031,-0.0165 -0.094051,-0.0196 -0.053744,-0.004 -0.1250572,-0.004 H 9.6870121 v 0.41445 h 0.1219566 q 0.095085,0 0.1591636,-0.009 0.064079,-0.009 0.1074867,-0.0424 0.04134,-0.032 0.05995,-0.0703 0.01964,-0.0393 0.01964,-0.10438 z m 0.619085,1.06763 H 10.28956 l -0.419613,-0.5643 H 9.6870121 v 0.5643 H 9.2922036 V 114.7811 H 9.957797 q 0.136426,0 0.234611,0.0155 0.09819,0.0155 0.183969,0.0672 0.08682,0.0517 0.137459,0.13436 0.05168,0.0816 0.05168,0.20567 0,0.17053 -0.07958,0.27802 -0.07855,0.10749 -0.22531,0.1788 z" />
      <path
         inkscape:connector-curvature="0"
         id="path1259"
         style="font-style:normal;font-variant:normal;font-weight:bold;font-stretch:normal;font-size:2.11667px;font-family:sans-serif;-inkscape-font-specification:'sans-serif Bold';font-variant-ligatures:normal;font-variant-caps:normal;font-variant-numeric:normal;font-variant-east-asian:normal;fill:#ff0000;fill-opacity:1;stroke-width:0.265;stroke-miterlimit:4;stroke-dasharray:0.53, 0.265;stroke-dashoffset:0"
         d="m 12.063098,116.32002 h -1.113112 v -1.53892 h 1.113112 v 0.29765 h -0.718303 v 0.26562 h 0.666627 v 0.29766 h -0.666627 v 0.38034 h 0.718303 z" />
      <path
         inkscape:connector-curvature="0"
         id="path1261"
         style="font-style:normal;font-variant:normal;font-weight:bold;font-stretch:normal;font-size:2.11667px;font-family:sans-serif;-inkscape-font-specification:'sans-serif Bold';font-variant-ligatures:normal;font-variant-caps:normal;font-variant-numeric:normal;font-variant-east-asian:normal;fill:#ff0000;fill-opacity:1;stroke-width:0.265;stroke-miterlimit:4;stroke-dasharray:0.53, 0.265;stroke-dashoffset:0"
         d="m 13.092494,116.34999 q -0.171566,0 -0.317293,-0.0506 -0.144695,-0.0506 -0.249081,-0.15089 -0.104387,-0.10026 -0.162265,-0.25012 -0.05684,-0.14986 -0.05684,-0.34623 0,-0.18294 0.05478,-0.33176 0.05478,-0.14883 0.159164,-0.25529 0.100253,-0.10232 0.248047,-0.15813 0.148829,-0.0558 0.324529,-0.0558 0.09715,0 0.174666,0.0114 0.07855,0.0103 0.144695,0.0279 0.06925,0.0196 0.125057,0.0444 0.05684,0.0238 0.09922,0.0444 v 0.37311 h -0.04548 q -0.02894,-0.0248 -0.07338,-0.0589 -0.04341,-0.0341 -0.09922,-0.0672 -0.05684,-0.0331 -0.12299,-0.0558 -0.06615,-0.0227 -0.141594,-0.0227 -0.08372,0 -0.159164,0.0269 -0.07545,0.0258 -0.139526,0.0868 -0.06098,0.0589 -0.09922,0.15606 -0.03721,0.0971 -0.03721,0.23564 0,0.1447 0.04031,0.24185 0.04134,0.0971 0.103353,0.15296 0.06304,0.0568 0.14056,0.0816 0.07751,0.0238 0.152962,0.0238 0.07235,0 0.142627,-0.0217 0.07131,-0.0217 0.131259,-0.0589 0.05064,-0.03 0.09405,-0.0641 0.04341,-0.0341 0.07131,-0.0589 h 0.04134 v 0.36793 q -0.05788,0.0258 -0.110588,0.0486 -0.05271,0.0227 -0.110588,0.0393 -0.07545,0.0217 -0.141593,0.0331 -0.06615,0.0114 -0.181902,0.0114 z" />
    </g>
    <g
       transform="translate(1.3652047)"
       style="font-size:2.11667px;line-height:1.25;font-family:sans-serif;-inkscape-font-specification:'sans-serif Normal';display:inline;mix-blend-mode:normal;fill:#029a00;fill-opacity:1;stroke-width:0.264583"
       id="text1115-7"
       aria-label="PLAY">
      <path
         inkscape:connector-curvature="0"
         id="path1264"
         style="font-style:normal;font-variant:normal;font-weight:bold;font-stretch:normal;font-size:2.11667px;font-family:sans-serif;-inkscape-font-specification:'sans-serif Bold';font-variant-ligatures:normal;font-variant-caps:normal;font-variant-numeric:normal;font-variant-east-asian:normal;fill:#029a00;fill-opacity:1;stroke-width:0.264583"
         d="m 21.027828,125.96192 q 0,0.10335 -0.03617,0.20257 -0.03617,0.0982 -0.103353,0.16536 -0.09199,0.091 -0.205673,0.13746 -0.112655,0.0465 -0.28112,0.0465 h -0.247014 v 0.50126 H 19.75762 v -1.53892 h 0.653191 q 0.146761,0 0.247013,0.0258 0.101286,0.0248 0.178801,0.0754 0.09302,0.061 0.141594,0.15607 0.04961,0.0951 0.04961,0.22841 z m -0.410311,0.009 q 0,-0.0651 -0.03514,-0.11162 -0.03514,-0.0476 -0.08165,-0.0661 -0.06201,-0.0248 -0.120923,-0.0269 -0.05891,-0.003 -0.157097,-0.003 h -0.06821 v 0.46095 h 0.113688 q 0.101286,0 0.166399,-0.0124 0.06615,-0.0124 0.110588,-0.0496 0.03824,-0.0331 0.05478,-0.0785 0.01757,-0.0465 0.01757,-0.11265 z" />
      <path
         inkscape:connector-curvature="0"
         id="path1266"
         style="font-style:normal;font-variant:normal;font-weight:bold;font-stretch:normal;font-size:2.11667px;font-family:sans-serif;-inkscape-font-specification:'sans-serif Bold';font-variant-ligatures:normal;font-variant-caps:normal;font-variant-numeric:normal;font-variant-east-asian:normal;fill:#029a00;fill-opacity:1;stroke-width:0.264583"
         d="m 22.417926,127.01508 h -1.110011 v -1.53892 h 0.396875 v 1.24127 h 0.713136 z" />
      <path
         inkscape:connector-curvature="0"
         id="path1268"
         style="font-style:normal;font-variant:normal;font-weight:bold;font-stretch:normal;font-size:2.11667px;font-family:sans-serif;-inkscape-font-specification:'sans-serif Bold';font-variant-ligatures:normal;font-variant-caps:normal;font-variant-numeric:normal;font-variant-east-asian:normal;fill:#029a00;fill-opacity:1;stroke-width:0.264583"
         d="m 24.077776,127.01508 h -0.410312 l -0.106453,-0.31109 h -0.570509 l -0.106453,0.31109 h -0.399977 l 0.568442,-1.53892 h 0.45682 z m -0.612883,-0.59324 -0.189137,-0.55191 -0.189136,0.55191 z" />
      <path
         inkscape:connector-curvature="0"
         id="path1270"
         style="font-style:normal;font-variant:normal;font-weight:bold;font-stretch:normal;font-size:2.11667px;font-family:sans-serif;-inkscape-font-specification:'sans-serif Bold';font-variant-ligatures:normal;font-variant-caps:normal;font-variant-numeric:normal;font-variant-east-asian:normal;fill:#029a00;fill-opacity:1;stroke-width:0.264583"
         d="m 25.654943,125.47616 -0.567408,0.94361 v 0.59531 h -0.396876 v -0.57671 l -0.57671,-0.96221 h 0.45062 l 0.332796,0.59531 0.321428,-0.59531 z" />
    </g>
    <g
       transform="translate(-3.0247077)"
       style="font-weight:bold;font-size:2.11667px;line-height:1.25;font-family:sans-serif;-inkscape-font-specification:'sans-serif Bold';stroke-width:0.264583"
       id="text1141"
       aria-label="STOP">
      <path
         inkscape:connector-curvature="0"
         id="path1273"
         style="stroke-width:0.264583"
         d="m 38.177988,126.51339 q 0,0.22737 -0.19327,0.37 -0.192237,0.14159 -0.522967,0.14159 -0.191203,0 -0.33383,-0.0331 -0.141594,-0.0341 -0.265617,-0.0858 v -0.36897 h 0.04341 q 0.12299,0.0982 0.274919,0.15089 0.152963,0.0527 0.293523,0.0527 0.03617,0 0.09509,-0.006 0.05891,-0.006 0.09612,-0.0207 0.04548,-0.0186 0.07441,-0.0465 0.02997,-0.0279 0.02997,-0.0827 0,-0.0506 -0.04341,-0.0868 -0.04237,-0.0372 -0.125057,-0.0568 -0.08682,-0.0207 -0.183968,-0.0382 -0.09612,-0.0186 -0.180868,-0.0465 -0.194304,-0.0631 -0.280087,-0.17053 -0.08475,-0.10852 -0.08475,-0.26872 0,-0.21498 0.192236,-0.35037 0.19327,-0.13642 0.496095,-0.13642 0.151929,0 0.299724,0.03 0.148828,0.0289 0.257349,0.0734 v 0.3545 h -0.04237 q -0.09302,-0.0744 -0.22841,-0.12402 -0.134359,-0.0507 -0.274919,-0.0507 -0.04961,0 -0.09922,0.007 -0.04858,0.006 -0.09405,0.0248 -0.04031,0.0155 -0.06925,0.0476 -0.02894,0.031 -0.02894,0.0713 0,0.061 0.04651,0.0941 0.04651,0.032 0.1757,0.0589 0.08475,0.0176 0.162264,0.0341 0.07855,0.0165 0.168466,0.0455 0.176733,0.0579 0.260449,0.15813 0.08475,0.0992 0.08475,0.25839 z" />
      <path
         inkscape:connector-curvature="0"
         id="path1275"
         style="stroke-width:0.264583"
         d="m 39.654902,125.75581 h -0.480591 v 1.24127 h -0.396876 v -1.24127 h -0.480591 v -0.29766 h 1.358058 z" />
      <path
         inkscape:connector-curvature="0"
         id="path1277"
         style="stroke-width:0.264583"
         d="m 41.3902,126.22813 q 0,0.36794 -0.210841,0.58498 -0.21084,0.21601 -0.582911,0.21601 -0.371037,0 -0.581877,-0.21601 -0.21084,-0.21704 -0.21084,-0.58498 0,-0.37104 0.21084,-0.58601 0.21084,-0.21601 0.581877,-0.21601 0.370004,0 0.581878,0.21601 0.211874,0.21497 0.211874,0.58601 z m -0.526067,0.38964 q 0.05788,-0.0703 0.08578,-0.16536 0.0279,-0.0961 0.0279,-0.22531 0,-0.1385 -0.03204,-0.23565 -0.03204,-0.0971 -0.08372,-0.15709 -0.05271,-0.062 -0.121957,-0.0899 -0.06821,-0.0279 -0.142627,-0.0279 -0.07545,0 -0.142627,0.0269 -0.06615,0.0269 -0.121957,0.0889 -0.05168,0.0579 -0.08475,0.1602 -0.03204,0.10128 -0.03204,0.23564 0,0.13746 0.03101,0.23461 0.03204,0.0961 0.08372,0.1571 0.05168,0.061 0.120923,0.0899 0.06925,0.0289 0.145728,0.0289 0.07648,0 0.145728,-0.0289 0.06925,-0.03 0.120923,-0.092 z" />
      <path
         inkscape:connector-curvature="0"
         id="path1279"
         style="stroke-width:0.264583"
         d="m 42.962199,125.94391 q 0,0.10335 -0.03617,0.20257 -0.03617,0.0982 -0.103353,0.16537 -0.09199,0.0909 -0.205673,0.13746 -0.112655,0.0465 -0.28112,0.0465 h -0.247014 v 0.50126 h -0.396875 v -1.53893 h 0.653191 q 0.146761,0 0.247013,0.0258 0.101286,0.0248 0.178801,0.0754 0.09302,0.061 0.141594,0.15606 0.04961,0.0951 0.04961,0.22841 z m -0.410311,0.009 q 0,-0.0651 -0.03514,-0.11162 -0.03514,-0.0475 -0.08165,-0.0661 -0.06201,-0.0248 -0.120923,-0.0269 -0.05891,-0.003 -0.157097,-0.003 h -0.06821 v 0.46096 h 0.113688 q 0.101286,0 0.166399,-0.0124 0.06615,-0.0124 0.110588,-0.0496 0.03824,-0.0331 0.05478,-0.0785 0.01757,-0.0465 0.01757,-0.11266 z" />
    </g>
    <g
       transform="translate(-1.7377924,-6.6568717)"
       style="font-weight:bold;font-size:2.11667px;line-height:1.25;font-family:sans-serif;-inkscape-font-specification:'sans-serif Bold';stroke-width:0.264583"
       id="text1145"
       aria-label="ERASE">
      <path
         inkscape:connector-curvature="0"
         id="path1282"
         style="stroke-width:0.264583"
         d="m 49.246468,116.56117 h -1.113112 v -1.53892 h 1.113112 v 0.29765 h -0.718304 v 0.26562 h 0.666627 v 0.29766 h -0.666627 v 0.38034 h 0.718304 z" />
      <path
         inkscape:connector-curvature="0"
         id="path1284"
         style="stroke-width:0.264583"
         d="m 50.443296,115.49354 q 0,-0.0579 -0.02377,-0.0992 -0.02377,-0.0413 -0.08165,-0.0651 -0.04031,-0.0165 -0.09405,-0.0196 -0.05374,-0.004 -0.125057,-0.004 h -0.14366 v 0.41445 h 0.121956 q 0.09509,0 0.159164,-0.009 0.06408,-0.009 0.107487,-0.0424 0.04134,-0.032 0.05994,-0.0703 0.01964,-0.0393 0.01964,-0.10438 z m 0.619084,1.06763 h -0.484725 l -0.419614,-0.56431 h -0.182934 v 0.56431 h -0.394809 v -1.53892 h 0.665594 q 0.136426,0 0.234611,0.0155 0.09819,0.0155 0.183968,0.0672 0.08682,0.0517 0.13746,0.13436 0.05168,0.0816 0.05168,0.20567 0,0.17053 -0.07958,0.27802 -0.07855,0.10749 -0.225309,0.1788 z" />
      <path
         inkscape:connector-curvature="0"
         id="path1286"
         style="stroke-width:0.264583"
         d="m 52.660218,116.56117 h -0.410311 l -0.106454,-0.31109 h -0.570509 l -0.106453,0.31109 h -0.399976 l 0.568441,-1.53892 h 0.456821 z m -0.612883,-0.59324 -0.189136,-0.55191 -0.189136,0.55191 z" />
      <path
         inkscape:connector-curvature="0"
         id="path1288"
         style="stroke-width:0.264583"
         d="m 54.115429,116.07748 q 0,0.22738 -0.19327,0.37 -0.192237,0.1416 -0.522967,0.1416 -0.191203,0 -0.33383,-0.0331 -0.141594,-0.0341 -0.265617,-0.0858 v -0.36897 h 0.04341 q 0.12299,0.0982 0.274919,0.1509 0.152962,0.0527 0.293523,0.0527 0.03617,0 0.09508,-0.006 0.05891,-0.006 0.09612,-0.0207 0.04548,-0.0186 0.07441,-0.0465 0.02997,-0.0279 0.02997,-0.0827 0,-0.0506 -0.04341,-0.0868 -0.04237,-0.0372 -0.125057,-0.0569 -0.08682,-0.0207 -0.183969,-0.0382 -0.09612,-0.0186 -0.180867,-0.0465 -0.194304,-0.063 -0.280087,-0.17053 -0.08475,-0.10852 -0.08475,-0.26872 0,-0.21497 0.192237,-0.35036 0.19327,-0.13643 0.496095,-0.13643 0.151929,0 0.299723,0.03 0.148829,0.0289 0.257349,0.0734 v 0.3545 h -0.04237 q -0.09302,-0.0744 -0.228411,-0.12402 -0.134358,-0.0506 -0.274919,-0.0506 -0.04961,0 -0.09922,0.007 -0.04858,0.006 -0.09405,0.0248 -0.04031,0.0155 -0.06925,0.0475 -0.02894,0.031 -0.02894,0.0713 0,0.061 0.04651,0.094 0.04651,0.032 0.1757,0.0589 0.08475,0.0176 0.162264,0.0341 0.07855,0.0165 0.168466,0.0455 0.176733,0.0579 0.260449,0.15813 0.08475,0.0992 0.08475,0.25838 z" />
      <path
         inkscape:connector-curvature="0"
         id="path1290"
         style="stroke-width:0.264583"
         d="m 55.501393,116.56117 h -1.113112 v -1.53892 h 1.113112 v 0.29765 h -0.718304 v 0.26562 h 0.666627 v 0.29766 h -0.666627 v 0.38034 h 0.718304 z" />
    </g>
    <path
       inkscape:connector-curvature="0"
       id="path1157"
       d="m 11.121638,110.34255 v 3.60702"
       style="fill:none;stroke:#000000;stroke-width:0.265;stroke-linecap:butt;stroke-linejoin:miter;stroke-miterlimit:4;stroke-dasharray:0.53, 0.265;stroke-dashoffset:0;stroke-opacity:1" />
    <path
       style="display:inline;mix-blend-mode:normal;fill:none;stroke:#000000;stroke-width:0.264583px;stroke-linecap:butt;stroke-linejoin:miter;stroke-opacity:1"
       d="m 23.855927,121.37684 v 3.60702"
       id="path1157-1"
       inkscape:connector-curvature="0" />
    <path
       inkscape:connector-curvature="0"
       id="path1157-1-3"
       d="m 36.925076,121.44255 v 3.60702"
       style="display:inline;mix-blend-mode:normal;fill:none;stroke:#000000;stroke-width:0.264583px;stroke-linecap:butt;stroke-linejoin:miter;stroke-opacity:1" />
    <path
       style="display:inline;mix-blend-mode:normal;fill:none;stroke:#000000;stroke-width:0.264583px;stroke-linecap:butt;stroke-linejoin:miter;stroke-opacity:1"
       d="m 50.182244,110.32997 v 3.60702"
       id="path1157-1-3-7"
       inkscape:connector-curvature="0" />
    <g
       style="font-size:1.76389px;line-height:1.25;font-family:sans-serif;-inkscape-font-specification:'sans-serif Normal';stroke-width:0.264583"
       id="text1360"
       aria-label="oneshot">
      <path
         id="path1362"
         style="stroke-width:0.264583"
         d="m 2.6324854,104.72409 q 0,0.23513 -0.1205784,0.37121 -0.1205785,0.13608 -0.3229779,0.13608 -0.2041221,0 -0.3247005,-0.13608 -0.1197171,-0.13608 -0.1197171,-0.37121 0,-0.23513 0.1197171,-0.37121 0.1205784,-0.13694 0.3247005,-0.13694 0.2023994,0 0.3229779,0.13694 0.1205784,0.13608 0.1205784,0.37121 z m -0.1670873,0 q 0,-0.1869 -0.073208,-0.27733 -0.073208,-0.0913 -0.2032607,-0.0913 -0.131775,0 -0.2049834,0.0913 -0.072347,0.0904 -0.072347,0.27733 0,0.18087 0.073208,0.27475 0.073208,0.093 0.2041221,0.093 0.1291911,0 0.2023994,-0.0921 0.07407,-0.093 0.07407,-0.27561 z" />
      <path
         id="path1364"
         style="stroke-width:0.264583"
         d="M 3.6884079,105.20468 H 3.5264883 v -0.54777 q 0,-0.0663 -0.00775,-0.12402 -0.00775,-0.0586 -0.028422,-0.0913 -0.021532,-0.0362 -0.062012,-0.0534 -0.04048,-0.0181 -0.1050755,-0.0181 -0.066318,0 -0.1386652,0.0327 -0.072347,0.0327 -0.1386651,0.0836 v 0.7183 H 2.8839776 v -0.96204 h 0.1619196 v 0.1068 q 0.075792,-0.0629 0.1567519,-0.0982 0.08096,-0.0353 0.166226,-0.0353 0.1558906,0 0.2377117,0.0939 0.081821,0.0939 0.081821,0.27044 z" />
      <path
         id="path1366"
         style="stroke-width:0.264583"
         d="M 4.8054808,104.74045 H 4.096652 q 0,0.0887 0.0267,0.15503 0.0267,0.0655 0.073208,0.10766 0.044786,0.0413 0.1059367,0.062 0.062012,0.0207 0.1360814,0.0207 0.098185,0 0.1972318,-0.0388 0.099908,-0.0396 0.1421103,-0.0775 h 0.00861 v 0.17656 q -0.081821,0.0345 -0.1670873,0.0577 -0.085266,0.0233 -0.179145,0.0233 -0.2394343,0 -0.3737931,-0.12919 -0.1343589,-0.13005 -0.1343589,-0.36862 0,-0.23599 0.1283299,-0.37466 0.1291912,-0.13866 0.3393422,-0.13866 0.194648,0 0.2997235,0.11369 0.1059367,0.11368 0.1059367,0.32297 z m -0.1576132,-0.12402 q -8.613e-4,-0.12747 -0.064596,-0.19723 -0.062873,-0.0698 -0.1920642,-0.0698 -0.1300524,0 -0.2075671,0.0767 -0.076653,0.0767 -0.086989,0.19034 z" />
      <path
         id="path1368"
         style="stroke-width:0.264583"
         d="m 5.738241,104.92735 q 0,0.13178 -0.1093819,0.21618 -0.1085205,0.0844 -0.2971396,0.0844 -0.1067981,0 -0.1963706,-0.025 -0.088711,-0.0258 -0.1490005,-0.056 v -0.18173 h 0.00861 q 0.076653,0.0577 0.1705323,0.0922 0.093879,0.0336 0.1800064,0.0336 0.106798,0 0.1670872,-0.0345 0.060289,-0.0344 0.060289,-0.10852 0,-0.0568 -0.032728,-0.0861 -0.032728,-0.0293 -0.1257461,-0.0499 -0.034451,-0.008 -0.090434,-0.0181 -0.055122,-0.0103 -0.1007691,-0.0224 -0.1266073,-0.0336 -0.1800064,-0.0982 -0.052538,-0.0655 -0.052538,-0.1602 0,-0.0594 0.024116,-0.11197 0.024977,-0.0525 0.074931,-0.0939 0.048231,-0.0405 0.1223009,-0.0637 0.074931,-0.0241 0.1670873,-0.0241 0.086127,0 0.1739774,0.0215 0.088711,0.0207 0.1472779,0.0508 v 0.17312 h -0.00861 q -0.062012,-0.0456 -0.150723,-0.0767 -0.088711,-0.0319 -0.1739775,-0.0319 -0.088711,0 -0.1498617,0.0345 -0.061151,0.0336 -0.061151,0.10077 0,0.0594 0.037035,0.0896 0.036174,0.0301 0.1171333,0.0491 0.044786,0.0103 0.099908,0.0207 0.055983,0.0103 0.093018,0.019 0.1128269,0.0258 0.1739774,0.0887 0.061151,0.0637 0.061151,0.16881 z" />
      <path
         id="path1370"
         style="stroke-width:0.264583"
         d="M 6.7752156,105.20468 H 6.613296 v -0.54777 q 0,-0.0663 -0.00775,-0.12402 -0.00775,-0.0586 -0.028422,-0.0913 -0.021532,-0.0362 -0.062012,-0.0534 -0.04048,-0.0181 -0.1050754,-0.0181 -0.066318,0 -0.1386652,0.0327 -0.072347,0.0327 -0.1386652,0.0836 v 0.7183 H 5.9707853 v -1.34014 h 0.1619196 v 0.4849 q 0.075792,-0.0629 0.1567519,-0.0982 0.08096,-0.0353 0.166226,-0.0353 0.1558907,0 0.2377117,0.0939 0.081821,0.0939 0.081821,0.27044 z" />
      <path
         id="path1372"
         style="stroke-width:0.264583"
         d="m 7.90693,104.72409 q 0,0.23513 -0.1205785,0.37121 -0.1205784,0.13608 -0.3229779,0.13608 -0.204122,0 -0.3247004,-0.13608 -0.1197172,-0.13608 -0.1197172,-0.37121 0,-0.23513 0.1197172,-0.37121 0.1205784,-0.13694 0.3247004,-0.13694 0.2023995,0 0.3229779,0.13694 0.1205785,0.13608 0.1205785,0.37121 z m -0.1670873,0 q 0,-0.1869 -0.073208,-0.27733 -0.073208,-0.0913 -0.2032608,-0.0913 -0.131775,0 -0.2049833,0.0913 -0.072347,0.0904 -0.072347,0.27733 0,0.18087 0.073208,0.27475 0.073208,0.093 0.204122,0.093 0.1291912,0 0.2023995,-0.0921 0.07407,-0.093 0.07407,-0.27561 z" />
      <path
         id="path1374"
         style="stroke-width:0.264583"
         d="m 8.6579613,105.19607 q -0.045647,0.0121 -0.099908,0.0198 -0.053399,0.008 -0.095601,0.008 -0.1472779,0 -0.2239313,-0.0792 -0.076654,-0.0792 -0.076654,-0.25407 v -0.5116 H 8.0524854 v -0.13608 h 0.1093818 v -0.27647 h 0.1619196 v 0.27647 h 0.3341745 v 0.13608 H 8.3237868 v 0.43839 q 0,0.0758 0.00345,0.11885 0.00345,0.0422 0.024116,0.0792 0.018948,0.0345 0.051676,0.0508 0.03359,0.0155 0.1016304,0.0155 0.039619,0 0.082682,-0.0112 0.043064,-0.0121 0.062012,-0.0198 h 0.00861 z" />
    </g>
    <g
       transform="translate(-0.3005848)"
       style="font-size:1.76389px;line-height:1.25;font-family:sans-serif;-inkscape-font-specification:'sans-serif Normal';stroke-width:0.264583"
       id="text1453"
       aria-label="normal">
      <path
         inkscape:connector-curvature="0"
         id="path1497"
         style="stroke-width:0.264583"
         d="m 34.32868,63.423389 h -0.16192 v -0.54777 q 0,-0.06632 -0.0078,-0.124024 -0.0078,-0.05857 -0.02842,-0.0913 -0.02153,-0.03617 -0.06201,-0.0534 -0.04048,-0.01809 -0.105075,-0.01809 -0.06632,0 -0.138666,0.03273 -0.07235,0.03273 -0.138665,0.08354 v 0.718302 H 33.52425 v -0.962043 h 0.161919 v 0.106798 q 0.07579,-0.06287 0.156752,-0.09818 0.08096,-0.03531 0.166226,-0.03531 0.155891,0 0.237712,0.09388 0.08182,0.09388 0.08182,0.27044 z" />
      <path
         inkscape:connector-curvature="0"
         id="path1499"
         style="stroke-width:0.264583"
         d="m 35.460395,62.942798 q 0,0.235128 -0.120579,0.37121 -0.120578,0.136081 -0.322978,0.136081 -0.204122,0 -0.3247,-0.136081 -0.119717,-0.136082 -0.119717,-0.37121 0,-0.235128 0.119717,-0.371209 0.120578,-0.136943 0.3247,-0.136943 0.2024,0 0.322978,0.136943 0.120579,0.136081 0.120579,0.371209 z m -0.167088,0 q 0,-0.186896 -0.07321,-0.27733 -0.07321,-0.09129 -0.203261,-0.09129 -0.131775,0 -0.204983,0.09129 -0.07235,0.09043 -0.07235,0.27733 0,0.180868 0.07321,0.274747 0.07321,0.09302 0.204122,0.09302 0.129191,0 0.2024,-0.09216 0.07407,-0.09302 0.07407,-0.275608 z" />
      <path
         inkscape:connector-curvature="0"
         id="path1501"
         style="stroke-width:0.264583"
         d="m 36.312195,62.637907 h -0.0086 q -0.03617,-0.0086 -0.07062,-0.01206 -0.03359,-0.0043 -0.0801,-0.0043 -0.07493,0 -0.144694,0.03359 -0.06976,0.03273 -0.134359,0.08527 v 0.68299 h -0.161919 v -0.962043 h 0.161919 v 0.14211 q 0.09646,-0.07751 0.169671,-0.109382 0.07407,-0.03273 0.150723,-0.03273 0.0422,0 0.06115,0.0026 0.01895,0.0017 0.05684,0.0078 z" />
      <path
         inkscape:connector-curvature="0"
         id="path1503"
         style="stroke-width:0.264583"
         d="m 37.87024,63.423389 h -0.161919 v -0.54777 q 0,-0.06201 -0.006,-0.119717 -0.0052,-0.05771 -0.02325,-0.09216 -0.01981,-0.03703 -0.05684,-0.05598 -0.03703,-0.01895 -0.106798,-0.01895 -0.06804,0 -0.136081,0.03445 -0.06804,0.03359 -0.136081,0.08613 0.0026,0.01981 0.0043,0.04651 0.0017,0.02584 0.0017,0.05168 v 0.615811 h -0.16192 v -0.54777 q 0,-0.06373 -0.006,-0.120579 -0.0052,-0.0577 -0.02325,-0.09216 -0.01981,-0.03703 -0.05684,-0.05512 -0.03704,-0.01895 -0.106799,-0.01895 -0.06632,0 -0.133497,0.03273 -0.06632,0.03273 -0.132636,0.08354 v 0.718302 h -0.16192 v -0.962043 h 0.16192 v 0.106798 q 0.07579,-0.06287 0.150723,-0.09818 0.07579,-0.03531 0.161058,-0.03531 0.09819,0 0.166226,0.04134 0.0689,0.04134 0.102492,0.114549 0.09819,-0.08268 0.179145,-0.118856 0.08096,-0.03703 0.173116,-0.03703 0.158474,0 0.233405,0.09646 0.07579,0.0956 0.07579,0.267856 z" />
      <path
         inkscape:connector-curvature="0"
         id="path1505"
         style="stroke-width:0.264583"
         d="M 38.929608,63.423389 H 38.76855 v -0.102491 q -0.02153,0.01464 -0.05857,0.04134 -0.03617,0.02584 -0.07062,0.04134 -0.04048,0.01981 -0.09302,0.03273 -0.05254,0.01378 -0.123162,0.01378 -0.130053,0 -0.220487,-0.08613 -0.09043,-0.08613 -0.09043,-0.219624 0,-0.109382 0.04651,-0.176562 0.04737,-0.06804 0.134359,-0.106798 0.08785,-0.03876 0.211012,-0.05254 0.123163,-0.01378 0.264412,-0.02067 v -0.02498 q 0,-0.05512 -0.01981,-0.09129 -0.01895,-0.03617 -0.05512,-0.05684 -0.03445,-0.01981 -0.08268,-0.0267 -0.04823,-0.0069 -0.100769,-0.0069 -0.06373,0 -0.14211,0.01723 -0.07838,0.01636 -0.16192,0.04823 h -0.0086 V 62.48201 q 0.04737,-0.01292 0.136942,-0.02842 0.08957,-0.0155 0.176562,-0.0155 0.10163,0 0.176561,0.01723 0.07579,0.01636 0.130914,0.05684 0.05426,0.03962 0.08268,0.102492 0.02842,0.06287 0.02842,0.15589 z m -0.161058,-0.23685 v -0.267856 q -0.07407,0.0043 -0.174839,0.01292 -0.09991,0.0086 -0.158475,0.02498 -0.06976,0.01981 -0.112826,0.06201 -0.04306,0.04134 -0.04306,0.11455 0,0.08268 0.04995,0.124885 0.04995,0.04134 0.152445,0.04134 0.08527,0 0.155891,-0.03273 0.07062,-0.03359 0.130914,-0.0801 z" />
      <path
         inkscape:connector-curvature="0"
         id="path1507"
         style="stroke-width:0.264583"
         d="m 39.406754,63.423389 h -0.161919 v -1.340143 h 0.161919 z" />
    </g>
    <g
       transform="translate(-0.3005848)"
       style="font-size:1.76389px;line-height:1.25;font-family:sans-serif;-inkscape-font-specification:'sans-serif Normal';stroke-width:0.264583"
       id="text1457"
       aria-label="additive">
      <path
         inkscape:connector-curvature="0"
         id="path1510"
         style="stroke-width:0.264583"
         d="m 34.271832,66.429245 h -0.161058 v -0.102492 q -0.02153,0.01464 -0.05857,0.04134 -0.03617,0.02584 -0.07062,0.04134 -0.04048,0.01981 -0.09302,0.03273 -0.05254,0.01378 -0.123162,0.01378 -0.130053,0 -0.220487,-0.08613 -0.09043,-0.08613 -0.09043,-0.219625 0,-0.109382 0.04651,-0.176561 0.04737,-0.06804 0.134359,-0.106798 0.08785,-0.03876 0.211013,-0.05254 0.123162,-0.01378 0.264411,-0.02067 v -0.02498 q 0,-0.05512 -0.01981,-0.0913 -0.01895,-0.03617 -0.05512,-0.05684 -0.03445,-0.01981 -0.08268,-0.0267 -0.04823,-0.0069 -0.10077,-0.0069 -0.06373,0 -0.14211,0.01723 -0.07838,0.01636 -0.161919,0.04823 h -0.0086 v -0.164503 q 0.04737,-0.01292 0.136942,-0.02842 0.08957,-0.0155 0.176562,-0.0155 0.10163,0 0.176561,0.01723 0.07579,0.01636 0.130914,0.05684 0.05426,0.03962 0.08268,0.102491 0.02842,0.06287 0.02842,0.155891 z m -0.161058,-0.23685 v -0.267857 q -0.07407,0.0043 -0.174839,0.01292 -0.09991,0.0086 -0.158474,0.02498 -0.06976,0.01981 -0.112827,0.06201 -0.04306,0.04134 -0.04306,0.11455 0,0.08268 0.04995,0.124884 0.04995,0.04134 0.152445,0.04134 0.08527,0 0.155891,-0.03273 0.07062,-0.03359 0.130914,-0.0801 z" />
      <path
         inkscape:connector-curvature="0"
         id="path1512"
         style="stroke-width:0.264583"
         d="m 35.365651,66.429245 h -0.16192 v -0.100769 q -0.06976,0.06029 -0.145555,0.09388 -0.07579,0.03359 -0.164504,0.03359 -0.172255,0 -0.273885,-0.132637 -0.100769,-0.132636 -0.100769,-0.367764 0,-0.122301 0.03445,-0.217902 0.03531,-0.0956 0.09474,-0.162781 0.05857,-0.06546 0.136081,-0.09991 0.07838,-0.03445 0.16192,-0.03445 0.07579,0 0.134359,0.01636 0.05857,0.0155 0.123162,0.04909 v -0.416857 h 0.16192 z m -0.16192,-0.23685 v -0.552077 q -0.06546,-0.02928 -0.117133,-0.04048 -0.05168,-0.0112 -0.112827,-0.0112 -0.136082,0 -0.211874,0.09474 -0.07579,0.09474 -0.07579,0.268718 0,0.171394 0.05857,0.260966 0.05857,0.08871 0.187758,0.08871 0.0689,0 0.139526,-0.03014 0.07062,-0.03101 0.131775,-0.07924 z" />
      <path
         inkscape:connector-curvature="0"
         id="path1514"
         style="stroke-width:0.264583"
         d="m 36.464637,66.429245 h -0.16192 v -0.100769 q -0.06976,0.06029 -0.145555,0.09388 -0.07579,0.03359 -0.164504,0.03359 -0.172255,0 -0.273885,-0.132637 -0.100769,-0.132636 -0.100769,-0.367764 0,-0.122301 0.03445,-0.217902 0.03531,-0.0956 0.09474,-0.162781 0.05857,-0.06546 0.136081,-0.09991 0.07838,-0.03445 0.16192,-0.03445 0.07579,0 0.134359,0.01636 0.05857,0.0155 0.123162,0.04909 v -0.416857 h 0.16192 z m -0.16192,-0.23685 v -0.552077 q -0.06546,-0.02928 -0.117133,-0.04048 -0.05168,-0.0112 -0.112827,-0.0112 -0.136082,0 -0.211874,0.09474 -0.07579,0.09474 -0.07579,0.268718 0,0.171394 0.05857,0.260966 0.05857,0.08871 0.187758,0.08871 0.0689,0 0.139526,-0.03014 0.07063,-0.03101 0.131775,-0.07924 z" />
      <path
         inkscape:connector-curvature="0"
         id="path1516"
         style="stroke-width:0.264583"
         d="m 36.957286,65.306143 h -0.182591 v -0.167948 h 0.182591 z m -0.01034,1.123102 h -0.161919 v -0.962044 h 0.161919 z" />
      <path
         inkscape:connector-curvature="0"
         id="path1518"
         style="stroke-width:0.264583"
         d="m 37.768606,66.420632 q -0.04565,0.01206 -0.09991,0.01981 -0.0534,0.0078 -0.0956,0.0078 -0.147278,0 -0.223932,-0.07924 -0.07665,-0.07924 -0.07665,-0.254076 V 65.603283 H 37.16313 v -0.136082 h 0.109382 v -0.276469 h 0.16192 v 0.276469 h 0.334174 v 0.136082 h -0.334174 v 0.438389 q 0,0.07579 0.0034,0.118855 0.0034,0.0422 0.02412,0.07924 0.01895,0.03445 0.05168,0.05082 0.03359,0.0155 0.10163,0.0155 0.03962,0 0.08268,-0.0112 0.04306,-0.01206 0.06201,-0.01981 h 0.0086 z" />
      <path
         inkscape:connector-curvature="0"
         id="path1520"
         style="stroke-width:0.264583"
         d="m 38.138954,65.306143 h -0.18259 v -0.167948 h 0.18259 z m -0.01033,1.123102 h -0.16192 v -0.962044 h 0.16192 z" />
      <path
         inkscape:connector-curvature="0"
         id="path1522"
         style="stroke-width:0.264583"
         d="m 39.282727,65.467201 -0.389296,0.962044 H 38.73065 l -0.386712,-0.962044 h 0.1757 l 0.298001,0.765673 0.295417,-0.765673 z" />
      <path
         inkscape:connector-curvature="0"
         id="path1524"
         style="stroke-width:0.264583"
         d="m 40.299892,65.965018 h -0.708829 q 0,0.08871 0.0267,0.155029 0.0267,0.06546 0.07321,0.10766 0.04479,0.04134 0.105936,0.06201 0.06201,0.02067 0.136082,0.02067 0.09819,0 0.197232,-0.03876 0.09991,-0.03962 0.14211,-0.07751 h 0.0086 v 0.176561 q -0.08182,0.03445 -0.167088,0.05771 -0.08527,0.02325 -0.179145,0.02325 -0.239434,0 -0.373793,-0.129191 -0.134359,-0.130052 -0.134359,-0.368625 0,-0.23599 0.12833,-0.374655 0.129191,-0.138665 0.339342,-0.138665 0.194648,0 0.299724,0.113688 0.105937,0.113688 0.105937,0.322978 z m -0.157614,-0.124023 q -8.61e-4,-0.127469 -0.06459,-0.197232 -0.06287,-0.06976 -0.192064,-0.06976 -0.130053,0 -0.207568,0.07665 -0.07665,0.07665 -0.08699,0.190342 z" />
    </g>
    <g
       transform="translate(-0.3005848)"
       style="font-size:1.76389px;line-height:1.25;font-family:sans-serif;-inkscape-font-specification:'sans-serif Normal';stroke-width:0.264583"
       id="text1465"
       aria-label="sampler">
      <path
         inkscape:connector-curvature="0"
         id="path1527"
         style="stroke-width:0.264583"
         d="m 34.211543,69.157759 q 0,0.131775 -0.109382,0.21618 -0.108521,0.08441 -0.29714,0.08441 -0.106798,0 -0.19637,-0.02498 -0.08871,-0.02584 -0.149001,-0.05598 V 69.19566 h 0.0086 q 0.07665,0.0577 0.170532,0.09216 0.09388,0.03359 0.180007,0.03359 0.106798,0 0.167087,-0.03445 0.06029,-0.03445 0.06029,-0.108521 0,-0.05684 -0.03273,-0.08613 -0.03273,-0.02928 -0.125746,-0.04995 -0.03445,-0.0078 -0.09043,-0.01809 -0.05512,-0.01033 -0.100769,-0.02239 -0.126608,-0.03359 -0.180007,-0.09819 -0.05254,-0.06546 -0.05254,-0.160197 0,-0.05943 0.02412,-0.111966 0.02498,-0.05254 0.07493,-0.09388 0.04823,-0.04048 0.122301,-0.06373 0.07493,-0.02412 0.167087,-0.02412 0.08613,0 0.173978,0.02153 0.08871,0.02067 0.147278,0.05082 v 0.173116 h -0.0086 q -0.06201,-0.04565 -0.150723,-0.07665 -0.08871,-0.03187 -0.173977,-0.03187 -0.08871,0 -0.149862,0.03445 -0.06115,0.03359 -0.06115,0.100769 0,0.05943 0.03704,0.08957 0.03617,0.03015 0.117133,0.04909 0.04479,0.01033 0.09991,0.02067 0.05598,0.01033 0.09302,0.01895 0.112827,0.02584 0.173977,0.08871 0.06115,0.06373 0.06115,0.16881 z" />
      <path
         inkscape:connector-curvature="0"
         id="path1529"
         style="stroke-width:0.264583"
         d="m 35.191673,69.435089 h -0.161058 v -0.102492 q -0.02153,0.01464 -0.05857,0.04134 -0.03617,0.02584 -0.07062,0.04134 -0.04048,0.01981 -0.09302,0.03273 -0.05254,0.01378 -0.123162,0.01378 -0.130053,0 -0.220486,-0.08613 -0.09043,-0.08613 -0.09043,-0.219625 0,-0.109382 0.04651,-0.176561 0.04737,-0.06804 0.134358,-0.106798 0.08785,-0.03876 0.211013,-0.05254 0.123162,-0.01378 0.264411,-0.02067 v -0.02498 q 0,-0.05512 -0.01981,-0.09129 -0.01895,-0.03617 -0.05512,-0.05685 -0.03445,-0.01981 -0.08268,-0.0267 -0.04823,-0.0069 -0.100769,-0.0069 -0.06374,0 -0.142111,0.01722 -0.07838,0.01636 -0.161919,0.04823 h -0.0086 v -0.164504 q 0.04737,-0.01292 0.136943,-0.02842 0.08957,-0.0155 0.176561,-0.0155 0.10163,0 0.176561,0.01723 0.07579,0.01636 0.130914,0.05684 0.05426,0.03962 0.08268,0.102491 0.02842,0.06287 0.02842,0.155891 z m -0.161058,-0.23685 v -0.267857 q -0.07407,0.0043 -0.174839,0.01292 -0.09991,0.0086 -0.158474,0.02498 -0.06976,0.01981 -0.112827,0.06201 -0.04306,0.04134 -0.04306,0.11455 0,0.08268 0.04995,0.124884 0.04995,0.04134 0.152446,0.04134 0.08527,0 0.15589,-0.03273 0.07062,-0.03359 0.130914,-0.0801 z" />
      <path
         inkscape:connector-curvature="0"
         id="path1531"
         style="stroke-width:0.264583"
         d="m 36.909054,69.435089 h -0.161919 v -0.54777 q 0,-0.06201 -0.006,-0.119718 -0.0052,-0.0577 -0.02325,-0.09216 -0.01981,-0.03704 -0.05685,-0.05598 -0.03703,-0.01895 -0.106798,-0.01895 -0.06804,0 -0.136081,0.03445 -0.06804,0.03359 -0.136081,0.08613 0.0026,0.01981 0.0043,0.04651 0.0017,0.02584 0.0017,0.05168 v 0.615811 h -0.16192 v -0.54777 q 0,-0.06374 -0.006,-0.120579 -0.0052,-0.0577 -0.02325,-0.09216 -0.01981,-0.03703 -0.05684,-0.05512 -0.03703,-0.01895 -0.106798,-0.01895 -0.06632,0 -0.133498,0.03273 -0.06632,0.03273 -0.132636,0.08354 v 0.718303 h -0.16192 v -0.962043 h 0.16192 v 0.106798 q 0.07579,-0.06287 0.150723,-0.09819 0.07579,-0.03531 0.161058,-0.03531 0.09819,0 0.166226,0.04134 0.0689,0.04134 0.102492,0.11455 0.09819,-0.08268 0.179145,-0.118856 0.08096,-0.03703 0.173116,-0.03703 0.158474,0 0.233405,0.09646 0.07579,0.0956 0.07579,0.267856 z" />
      <path
         inkscape:connector-curvature="0"
         id="path1533"
         style="stroke-width:0.264583"
         d="m 38.067469,68.94244 q 0,0.117133 -0.03359,0.214457 -0.03359,0.09646 -0.09474,0.163643 -0.05684,0.06373 -0.134359,0.09905 -0.07665,0.03445 -0.162781,0.03445 -0.07493,0 -0.136081,-0.01636 -0.06029,-0.01636 -0.123163,-0.05082 v 0.403076 h -0.161919 v -1.316888 h 0.161919 v 0.100769 q 0.0646,-0.05426 0.144695,-0.09043 0.08096,-0.03703 0.172254,-0.03703 0.173978,0 0.270441,0.131775 0.09732,0.130914 0.09732,0.364319 z m -0.167088,0.0043 q 0,-0.173978 -0.05943,-0.260105 -0.05943,-0.08613 -0.18259,-0.08613 -0.06976,0 -0.140387,0.03014 -0.07062,0.03014 -0.135221,0.07924 v 0.545187 q 0.0689,0.03101 0.117995,0.0422 0.04995,0.0112 0.112827,0.0112 0.13522,0 0.211012,-0.0913 0.07579,-0.0913 0.07579,-0.27044 z" />
      <path
         inkscape:connector-curvature="0"
         id="path1535"
         style="stroke-width:0.264583"
         d="m 38.483464,69.435089 h -0.161919 v -1.340143 h 0.161919 z" />
      <path
         inkscape:connector-curvature="0"
         id="path1537"
         style="stroke-width:0.264583"
         d="m 39.610872,68.970862 h -0.708828 q 0,0.08871 0.0267,0.15503 0.0267,0.06546 0.07321,0.107659 0.04479,0.04134 0.105937,0.06201 0.06201,0.02067 0.136081,0.02067 0.09819,0 0.197232,-0.03876 0.09991,-0.03962 0.142111,-0.07751 h 0.0086 v 0.176561 q -0.08182,0.03445 -0.167087,0.05771 -0.08527,0.02325 -0.179145,0.02325 -0.239434,0 -0.373793,-0.129191 -0.134359,-0.130052 -0.134359,-0.368625 0,-0.23599 0.12833,-0.374655 0.129191,-0.138665 0.339342,-0.138665 0.194648,0 0.299724,0.113688 0.105936,0.113689 0.105936,0.322978 z m -0.157613,-0.124023 q -8.61e-4,-0.127469 -0.0646,-0.197232 -0.06287,-0.06976 -0.192065,-0.06976 -0.130052,0 -0.207567,0.07665 -0.07665,0.07665 -0.08699,0.190342 z" />
      <path
         inkscape:connector-curvature="0"
         id="path1539"
         style="stroke-width:0.264583"
         d="m 40.456644,68.649607 h -0.0086 q -0.03617,-0.0086 -0.07062,-0.01206 -0.03359,-0.0043 -0.0801,-0.0043 -0.07493,0 -0.144694,0.03359 -0.06976,0.03273 -0.134359,0.08527 v 0.682991 h -0.16192 v -0.962043 h 0.16192 v 0.14211 q 0.09646,-0.07752 0.169671,-0.109382 0.07407,-0.03273 0.150723,-0.03273 0.0422,0 0.06115,0.0026 0.01895,0.0017 0.05684,0.0078 z" />
    </g>
    <g
       transform="translate(-1.6532164)"
       style="font-size:1.76389px;line-height:1.25;font-family:sans-serif;-inkscape-font-specification:'sans-serif Normal';display:inline;mix-blend-mode:normal;stroke-width:0.264583"
       id="text1453-5-7"
       aria-label="stepped">
      <path
         inkscape:connector-curvature="0"
         id="path1705"
         style="stroke-width:0.264583"
         d="m 54.968264,63.338121 q 0,0.131775 -0.109381,0.21618 -0.108521,0.0844 -0.29714,0.0844 -0.106798,0 -0.196371,-0.02498 -0.08871,-0.02584 -0.149,-0.05598 v -0.181728 h 0.0086 q 0.07665,0.0577 0.170532,0.09216 0.09388,0.03359 0.180006,0.03359 0.106798,0 0.167087,-0.03445 0.06029,-0.03445 0.06029,-0.108521 0,-0.05684 -0.03273,-0.08613 -0.03273,-0.02928 -0.125746,-0.04995 -0.03445,-0.0078 -0.09043,-0.01809 -0.05512,-0.01034 -0.100769,-0.02239 -0.126607,-0.03359 -0.180006,-0.09819 -0.05254,-0.06546 -0.05254,-0.160197 0,-0.05943 0.02412,-0.111965 0.02498,-0.05254 0.07493,-0.09388 0.04823,-0.04048 0.122301,-0.06373 0.07493,-0.02412 0.167087,-0.02412 0.08613,0 0.173977,0.02153 0.08871,0.02067 0.147278,0.05082 v 0.173116 h -0.0086 q -0.06201,-0.04565 -0.150723,-0.07665 -0.08871,-0.03187 -0.173978,-0.03187 -0.08871,0 -0.149862,0.03445 -0.06115,0.03359 -0.06115,0.10077 0,0.05943 0.03703,0.08957 0.03617,0.03014 0.117133,0.04909 0.04479,0.01033 0.09991,0.02067 0.05598,0.01034 0.09302,0.01895 0.112827,0.02584 0.173978,0.08871 0.06115,0.06373 0.06115,0.168809 z" />
      <path
         inkscape:connector-curvature="0"
         id="path1707"
         style="stroke-width:0.264583"
         d="m 55.700348,63.606839 q -0.04565,0.01206 -0.09991,0.01981 -0.0534,0.0078 -0.0956,0.0078 -0.147278,0 -0.223931,-0.07924 -0.07665,-0.07924 -0.07665,-0.254076 V 62.78949 h -0.109382 v -0.136082 h 0.109382 v -0.276469 h 0.161919 v 0.276469 h 0.334175 v 0.136082 h -0.334175 v 0.438388 q 0,0.07579 0.0034,0.118856 0.0034,0.0422 0.02412,0.07924 0.01895,0.03445 0.05168,0.05082 0.03359,0.0155 0.101631,0.0155 0.03962,0 0.08268,-0.0112 0.04306,-0.01206 0.06201,-0.01981 h 0.0086 z" />
      <path
         inkscape:connector-curvature="0"
         id="path1709"
         style="stroke-width:0.264583"
         d="m 56.70201,63.151225 h -0.708829 q 0,0.08871 0.0267,0.155029 0.0267,0.06546 0.07321,0.10766 0.04479,0.04134 0.105937,0.06201 0.06201,0.02067 0.136081,0.02067 0.09819,0 0.197232,-0.03876 0.09991,-0.03962 0.14211,-0.07751 h 0.0086 v 0.176561 q -0.08182,0.03445 -0.167088,0.05771 -0.08527,0.02325 -0.179145,0.02325 -0.239434,0 -0.373793,-0.129191 -0.134358,-0.130053 -0.134358,-0.368626 0,-0.235989 0.128329,-0.374654 0.129192,-0.138665 0.339343,-0.138665 0.194648,0 0.299723,0.113688 0.105937,0.113688 0.105937,0.322978 z m -0.157613,-0.124024 q -8.62e-4,-0.127468 -0.0646,-0.197231 -0.06287,-0.06976 -0.192064,-0.06976 -0.130053,0 -0.207567,0.07665 -0.07665,0.07665 -0.08699,0.190341 z" />
      <path
         inkscape:connector-curvature="0"
         id="path1711"
         style="stroke-width:0.264583"
         d="m 57.794106,63.122803 q 0,0.117133 -0.03359,0.214457 -0.03359,0.09646 -0.09474,0.163642 -0.05684,0.06373 -0.134359,0.09905 -0.07665,0.03445 -0.162781,0.03445 -0.07493,0 -0.136081,-0.01636 -0.06029,-0.01636 -0.123162,-0.05082 v 0.403077 h -0.16192 V 62.65341 h 0.16192 v 0.100769 q 0.0646,-0.05426 0.144694,-0.09043 0.08096,-0.03704 0.172255,-0.03704 0.173977,0 0.27044,0.131775 0.09732,0.130913 0.09732,0.364319 z m -0.167088,0.0043 q 0,-0.173977 -0.05943,-0.260105 -0.05943,-0.08613 -0.182591,-0.08613 -0.06976,0 -0.140387,0.03014 -0.07062,0.03015 -0.13522,0.07924 v 0.545186 q 0.0689,0.03101 0.117994,0.0422 0.04995,0.0112 0.112827,0.0112 0.13522,0 0.211012,-0.0913 0.07579,-0.09129 0.07579,-0.27044 z" />
      <path
         inkscape:connector-curvature="0"
         id="path1713"
         style="stroke-width:0.264583"
         d="m 58.893092,63.122803 q 0,0.117133 -0.03359,0.214457 -0.03359,0.09646 -0.09474,0.163642 -0.05684,0.06373 -0.134359,0.09905 -0.07665,0.03445 -0.162781,0.03445 -0.07493,0 -0.136081,-0.01636 -0.06029,-0.01636 -0.123162,-0.05082 v 0.403077 h -0.16192 V 62.65341 h 0.16192 v 0.100769 q 0.06459,-0.05426 0.144694,-0.09043 0.08096,-0.03704 0.172255,-0.03704 0.173977,0 0.27044,0.131775 0.09732,0.130913 0.09732,0.364319 z m -0.167087,0.0043 q 0,-0.173977 -0.05943,-0.260105 -0.05943,-0.08613 -0.18259,-0.08613 -0.06976,0 -0.140388,0.03014 -0.07062,0.03015 -0.13522,0.07924 v 0.545186 q 0.0689,0.03101 0.117994,0.0422 0.04995,0.0112 0.112827,0.0112 0.13522,0 0.211012,-0.0913 0.07579,-0.09129 0.07579,-0.27044 z" />
      <path
         inkscape:connector-curvature="0"
         id="path1715"
         style="stroke-width:0.264583"
         d="m 59.950737,63.151225 h -0.708829 q 0,0.08871 0.0267,0.155029 0.0267,0.06546 0.07321,0.10766 0.04479,0.04134 0.105937,0.06201 0.06201,0.02067 0.136081,0.02067 0.09818,0 0.197232,-0.03876 0.09991,-0.03962 0.14211,-0.07751 h 0.0086 v 0.176561 q -0.08182,0.03445 -0.167087,0.05771 -0.08527,0.02325 -0.179145,0.02325 -0.239435,0 -0.373793,-0.129191 -0.134359,-0.130053 -0.134359,-0.368626 0,-0.235989 0.12833,-0.374654 0.129191,-0.138665 0.339342,-0.138665 0.194648,0 0.299723,0.113688 0.105937,0.113688 0.105937,0.322978 z m -0.157613,-0.124024 q -8.61e-4,-0.127468 -0.0646,-0.197231 -0.06287,-0.06976 -0.192064,-0.06976 -0.130052,0 -0.207567,0.07665 -0.07665,0.07665 -0.08699,0.190341 z" />
      <path
         inkscape:connector-curvature="0"
         id="path1717"
         style="stroke-width:0.264583"
         d="m 60.976515,63.615452 h -0.16192 v -0.100769 q -0.06976,0.06029 -0.145555,0.09388 -0.07579,0.03359 -0.164504,0.03359 -0.172255,0 -0.273885,-0.132636 -0.100769,-0.132636 -0.100769,-0.367764 0,-0.122301 0.03445,-0.217903 0.03531,-0.0956 0.09474,-0.16278 0.05857,-0.06546 0.136081,-0.09991 0.07838,-0.03445 0.16192,-0.03445 0.07579,0 0.134359,0.01636 0.05857,0.0155 0.123162,0.04909 v -0.416857 h 0.16192 z m -0.16192,-0.236851 v -0.552077 q -0.06546,-0.02928 -0.117133,-0.04048 -0.05168,-0.0112 -0.112827,-0.0112 -0.136082,0 -0.211874,0.09474 -0.07579,0.09474 -0.07579,0.268718 0,0.171393 0.05857,0.260966 0.05857,0.08871 0.187758,0.08871 0.0689,0 0.139526,-0.03014 0.07062,-0.03101 0.131775,-0.07924 z" />
    </g>
    <g
       transform="translate(-1.502924)"
       style="font-size:1.76389px;line-height:1.25;font-family:sans-serif;-inkscape-font-specification:'sans-serif Normal';display:inline;mix-blend-mode:normal;stroke-width:0.264583"
       id="text1465-4-2"
       aria-label="filter">
      <path
         inkscape:connector-curvature="0"
         id="path1739"
         style="stroke-width:0.264583"
         d="m 54.79859,68.44376 h -0.0086 q -0.0267,-0.0078 -0.06976,-0.0155 -0.04306,-0.0086 -0.07579,-0.0086 -0.104214,0 -0.151584,0.04651 -0.04651,0.04565 -0.04651,0.166226 v 0.03273 H 54.7383 v 0.136081 h -0.286804 v 0.825962 h -0.16192 v -0.825962 h -0.109382 v -0.136081 h 0.109382 v -0.03187 q 0,-0.171394 0.08527,-0.262689 0.08527,-0.09216 0.246325,-0.09216 0.05426,0 0.09732,0.0052 0.04393,0.0052 0.0801,0.01206 z" />
      <path
         inkscape:connector-curvature="0"
         id="path1741"
         style="stroke-width:0.264583"
         d="m 55.075059,68.50405 h -0.182591 v -0.167949 h 0.182591 z m -0.01034,1.123101 H 54.9028 v -0.962043 h 0.161919 z" />
      <path
         inkscape:connector-curvature="0"
         id="path1743"
         style="stroke-width:0.264583"
         d="m 55.550482,69.627151 h -0.161919 v -1.340143 h 0.161919 z" />
      <path
         inkscape:connector-curvature="0"
         id="path1745"
         style="stroke-width:0.264583"
         d="m 56.372138,69.618539 q -0.04565,0.01206 -0.09991,0.01981 -0.0534,0.0078 -0.0956,0.0078 -0.147278,0 -0.223932,-0.07924 -0.07665,-0.07924 -0.07665,-0.254076 v -0.511597 h -0.109382 v -0.136081 h 0.109382 v -0.276469 h 0.161919 v 0.276469 h 0.334175 v 0.136081 h -0.334175 v 0.438389 q 0,0.07579 0.0034,0.118856 0.0034,0.0422 0.02412,0.07924 0.01895,0.03445 0.05168,0.05082 0.03359,0.0155 0.10163,0.0155 0.03962,0 0.08268,-0.0112 0.04306,-0.01206 0.06201,-0.01981 h 0.0086 z" />
      <path
         inkscape:connector-curvature="0"
         id="path1747"
         style="stroke-width:0.264583"
         d="m 57.3738,69.162925 h -0.708829 q 0,0.08871 0.0267,0.155029 0.0267,0.06546 0.07321,0.107659 0.04479,0.04134 0.105937,0.06201 0.06201,0.02067 0.136081,0.02067 0.09819,0 0.197232,-0.03876 0.09991,-0.03962 0.14211,-0.07751 h 0.0086 v 0.176561 q -0.08182,0.03445 -0.167087,0.0577 -0.08527,0.02326 -0.179145,0.02326 -0.239435,0 -0.373793,-0.129192 -0.134359,-0.130052 -0.134359,-0.368625 0,-0.235989 0.12833,-0.374654 0.129191,-0.138666 0.339342,-0.138666 0.194648,0 0.299723,0.113689 0.105937,0.113688 0.105937,0.322978 z m -0.157613,-0.124024 q -8.61e-4,-0.127469 -0.0646,-0.197232 -0.06287,-0.06976 -0.192064,-0.06976 -0.130052,0 -0.207567,0.07665 -0.07665,0.07665 -0.08699,0.190342 z" />
      <path
         inkscape:connector-curvature="0"
         id="path1749"
         style="stroke-width:0.264583"
         d="m 58.219572,68.841669 h -0.0086 q -0.03617,-0.0086 -0.07062,-0.01206 -0.03359,-0.0043 -0.0801,-0.0043 -0.07493,0 -0.144694,0.03359 -0.06976,0.03273 -0.134359,0.08527 v 0.68299 h -0.16192 v -0.962043 h 0.16192 v 0.14211 q 0.09646,-0.07751 0.169671,-0.109382 0.07407,-0.03273 0.150723,-0.03273 0.0422,0 0.06115,0.0026 0.01895,0.0017 0.05685,0.0078 z" />
    </g>
    <g
       transform="translate(0.1502924)"
       style="font-size:1.76389px;line-height:1.25;font-family:sans-serif;-inkscape-font-specification:'sans-serif Normal';display:inline;mix-blend-mode:normal;stroke-width:0.264583"
       id="text1453-5-1"
       aria-label="smooth">
      <path
         inkscape:connector-curvature="0"
         id="path1662"
         style="stroke-width:0.264583"
         d="m 13.637854,63.338121 q 0,0.131775 -0.109381,0.21618 -0.108521,0.0844 -0.29714,0.0844 -0.106798,0 -0.196371,-0.02498 -0.08871,-0.02584 -0.149,-0.05598 v -0.181728 h 0.0086 q 0.07665,0.0577 0.170532,0.09216 0.09388,0.03359 0.180006,0.03359 0.106798,0 0.167087,-0.03445 0.06029,-0.03445 0.06029,-0.108521 0,-0.05684 -0.03273,-0.08613 -0.03273,-0.02928 -0.125746,-0.04995 -0.03445,-0.0078 -0.09043,-0.01809 -0.05512,-0.01034 -0.100769,-0.02239 -0.126607,-0.03359 -0.180006,-0.09819 -0.05254,-0.06546 -0.05254,-0.160197 0,-0.05943 0.02412,-0.111965 0.02498,-0.05254 0.07493,-0.09388 0.04823,-0.04048 0.122301,-0.06373 0.07493,-0.02412 0.167087,-0.02412 0.08613,0 0.173977,0.02153 0.08871,0.02067 0.147278,0.05082 v 0.173116 h -0.0086 q -0.06201,-0.04565 -0.150723,-0.07665 -0.08871,-0.03187 -0.173978,-0.03187 -0.08871,0 -0.149862,0.03445 -0.06115,0.03359 -0.06115,0.10077 0,0.05943 0.03703,0.08957 0.03617,0.03014 0.117133,0.04909 0.04479,0.01033 0.09991,0.02067 0.05598,0.01034 0.09302,0.01895 0.112827,0.02584 0.173978,0.08871 0.06115,0.06373 0.06115,0.168809 z" />
      <path
         inkscape:connector-curvature="0"
         id="path1664"
         style="stroke-width:0.264583"
         d="m 15.274276,63.615452 h -0.16192 v -0.547771 q 0,-0.06201 -0.006,-0.119717 -0.0052,-0.0577 -0.02325,-0.09216 -0.01981,-0.03704 -0.05684,-0.05598 -0.03704,-0.01895 -0.106798,-0.01895 -0.06804,0 -0.136082,0.03445 -0.06804,0.03359 -0.136081,0.08613 0.0026,0.01981 0.0043,0.04651 0.0017,0.02584 0.0017,0.05168 v 0.615811 h -0.16192 v -0.547771 q 0,-0.06373 -0.006,-0.120578 -0.0052,-0.05771 -0.02325,-0.09216 -0.01981,-0.03703 -0.05684,-0.05512 -0.03704,-0.01895 -0.106798,-0.01895 -0.06632,0 -0.133498,0.03273 -0.06632,0.03273 -0.132636,0.08354 v 0.718303 h -0.16192 v -0.962044 h 0.16192 v 0.106798 q 0.07579,-0.06287 0.150723,-0.09818 0.07579,-0.03531 0.161058,-0.03531 0.09819,0 0.166226,0.04134 0.0689,0.04134 0.102492,0.114549 0.09819,-0.08268 0.179145,-0.118855 0.08096,-0.03704 0.173116,-0.03704 0.158475,0 0.233406,0.09646 0.07579,0.0956 0.07579,0.267856 z" />
      <path
         inkscape:connector-curvature="0"
         id="path1666"
         style="stroke-width:0.264583"
         d="m 16.40599,63.134861 q 0,0.235128 -0.120578,0.371209 -0.120578,0.136081 -0.322978,0.136081 -0.204122,0 -0.3247,-0.136081 -0.119718,-0.136081 -0.119718,-0.371209 0,-0.235128 0.119718,-0.37121 0.120578,-0.136942 0.3247,-0.136942 0.2024,0 0.322978,0.136942 0.120578,0.136082 0.120578,0.37121 z m -0.167087,0 q 0,-0.186897 -0.07321,-0.277331 -0.07321,-0.09129 -0.203261,-0.09129 -0.131775,0 -0.204983,0.09129 -0.07235,0.09043 -0.07235,0.277331 0,0.180867 0.07321,0.274746 0.07321,0.09302 0.204122,0.09302 0.129191,0 0.2024,-0.09216 0.07407,-0.09302 0.07407,-0.275607 z" />
      <path
         inkscape:connector-curvature="0"
         id="path1668"
         style="stroke-width:0.264583"
         d="m 17.477416,63.134861 q 0,0.235128 -0.120579,0.371209 -0.120578,0.136081 -0.322978,0.136081 -0.204122,0 -0.3247,-0.136081 -0.119717,-0.136081 -0.119717,-0.371209 0,-0.235128 0.119717,-0.37121 0.120578,-0.136942 0.3247,-0.136942 0.2024,0 0.322978,0.136942 0.120579,0.136082 0.120579,0.37121 z m -0.167087,0 q 0,-0.186897 -0.07321,-0.277331 -0.07321,-0.09129 -0.203261,-0.09129 -0.131775,0 -0.204983,0.09129 -0.07235,0.09043 -0.07235,0.277331 0,0.180867 0.07321,0.274746 0.07321,0.09302 0.204122,0.09302 0.129192,0 0.2024,-0.09216 0.07407,-0.09302 0.07407,-0.275607 z" />
      <path
         inkscape:connector-curvature="0"
         id="path1670"
         style="stroke-width:0.264583"
         d="m 18.228447,63.606839 q -0.04565,0.01206 -0.09991,0.01981 -0.0534,0.0078 -0.0956,0.0078 -0.147278,0 -0.223931,-0.07924 -0.07665,-0.07924 -0.07665,-0.254076 V 62.78949 h -0.109382 v -0.136082 h 0.109382 v -0.276469 h 0.16192 v 0.276469 h 0.334174 v 0.136082 h -0.334174 v 0.438388 q 0,0.07579 0.0034,0.118856 0.0034,0.0422 0.02412,0.07924 0.01895,0.03445 0.05168,0.05082 0.03359,0.0155 0.101631,0.0155 0.03962,0 0.08268,-0.0112 0.04306,-0.01206 0.06201,-0.01981 h 0.0086 z" />
      <path
         inkscape:connector-curvature="0"
         id="path1672"
         style="stroke-width:0.264583"
         d="m 19.229248,63.615452 h -0.16192 v -0.547771 q 0,-0.06632 -0.0078,-0.124023 -0.0078,-0.05857 -0.02842,-0.0913 -0.02153,-0.03617 -0.06201,-0.0534 -0.04048,-0.01809 -0.105075,-0.01809 -0.06632,0 -0.138666,0.03273 -0.07235,0.03273 -0.138665,0.08354 v 0.718303 h -0.161919 v -1.340143 h 0.161919 v 0.484897 q 0.07579,-0.06287 0.156752,-0.09818 0.08096,-0.03531 0.166226,-0.03531 0.155891,0 0.237712,0.09388 0.08182,0.09388 0.08182,0.27044 z" />
    </g>
    <g
       transform="translate(0.1502924)"
       style="font-size:1.76389px;line-height:1.25;font-family:sans-serif;-inkscape-font-specification:'sans-serif Normal';display:inline;mix-blend-mode:normal;stroke-width:0.264583"
       id="text1457-1-1"
       aria-label="dropper">
      <path
         inkscape:connector-curvature="0"
         id="path1675"
         style="stroke-width:0.264583"
         d="m 13.730868,66.621307 h -0.161919 v -0.100769 q -0.06976,0.06029 -0.145556,0.09388 -0.07579,0.03359 -0.164503,0.03359 -0.172255,0 -0.273885,-0.132636 -0.10077,-0.132637 -0.10077,-0.367765 0,-0.122301 0.03445,-0.217902 0.03531,-0.0956 0.09474,-0.162781 0.05857,-0.06546 0.136081,-0.09991 0.07838,-0.03445 0.16192,-0.03445 0.07579,0 0.134358,0.01636 0.05857,0.0155 0.123163,0.04909 v -0.416857 h 0.161919 z m -0.161919,-0.23685 V 65.83238 q -0.06546,-0.02928 -0.117134,-0.04048 -0.05168,-0.0112 -0.112827,-0.0112 -0.136081,0 -0.211873,0.09474 -0.07579,0.09474 -0.07579,0.268717 0,0.171394 0.05857,0.260966 0.05857,0.08871 0.187758,0.08871 0.0689,0 0.139527,-0.03014 0.07062,-0.03101 0.131775,-0.07924 z" />
      <path
         inkscape:connector-curvature="0"
         id="path1677"
         style="stroke-width:0.264583"
         d="m 14.649848,65.835825 h -0.0086 q -0.03617,-0.0086 -0.07062,-0.01206 -0.03359,-0.0043 -0.0801,-0.0043 -0.07493,0 -0.144694,0.03359 -0.06976,0.03273 -0.134359,0.08527 v 0.68299 H 14.04954 v -0.962043 h 0.161919 v 0.14211 q 0.09646,-0.07751 0.169671,-0.109382 0.07407,-0.03273 0.150723,-0.03273 0.0422,0 0.06115,0.0026 0.01895,0.0017 0.05684,0.0078 z" />
      <path
         inkscape:connector-curvature="0"
         id="path1679"
         style="stroke-width:0.264583"
         d="m 15.623949,66.140716 q 0,0.235128 -0.120578,0.37121 -0.120578,0.136081 -0.322978,0.136081 -0.204122,0 -0.3247,-0.136081 -0.119718,-0.136082 -0.119718,-0.37121 0,-0.235128 0.119718,-0.371209 0.120578,-0.136943 0.3247,-0.136943 0.2024,0 0.322978,0.136943 0.120578,0.136081 0.120578,0.371209 z m -0.167087,0 q 0,-0.186896 -0.07321,-0.27733 -0.07321,-0.0913 -0.203261,-0.0913 -0.131775,0 -0.204983,0.0913 -0.07235,0.09043 -0.07235,0.27733 0,0.180868 0.07321,0.274747 0.07321,0.09302 0.204122,0.09302 0.129191,0 0.2024,-0.09216 0.07407,-0.09302 0.07407,-0.275608 z" />
      <path
         inkscape:connector-curvature="0"
         id="path1681"
         style="stroke-width:0.264583"
         d="m 16.722074,66.128658 q 0,0.117134 -0.03359,0.214458 -0.03359,0.09646 -0.09474,0.163642 -0.05684,0.06373 -0.134359,0.09905 -0.07665,0.03445 -0.162781,0.03445 -0.07493,0 -0.136081,-0.01636 -0.06029,-0.01636 -0.123163,-0.05082 v 0.403076 h -0.161919 v -1.316888 h 0.161919 v 0.100769 q 0.0646,-0.05426 0.144694,-0.09043 0.08096,-0.03704 0.172255,-0.03704 0.173978,0 0.27044,0.131775 0.09732,0.130914 0.09732,0.364319 z m -0.167087,0.0043 q 0,-0.173978 -0.05943,-0.260105 -0.05943,-0.08613 -0.18259,-0.08613 -0.06976,0 -0.140388,0.03015 -0.07062,0.03014 -0.13522,0.07924 V 66.4413 q 0.0689,0.03101 0.117995,0.0422 0.04995,0.0112 0.112827,0.0112 0.13522,0 0.211012,-0.09129 0.07579,-0.0913 0.07579,-0.27044 z" />
      <path
         inkscape:connector-curvature="0"
         id="path1683"
         style="stroke-width:0.264583"
         d="m 17.821061,66.128658 q 0,0.117134 -0.03359,0.214458 -0.03359,0.09646 -0.09474,0.163642 -0.05684,0.06373 -0.134359,0.09905 -0.07665,0.03445 -0.162781,0.03445 -0.07493,0 -0.136081,-0.01636 -0.06029,-0.01636 -0.123163,-0.05082 v 0.403076 h -0.161919 v -1.316888 h 0.161919 v 0.100769 q 0.0646,-0.05426 0.144695,-0.09043 0.08096,-0.03704 0.172254,-0.03704 0.173978,0 0.270441,0.131775 0.09732,0.130914 0.09732,0.364319 z m -0.167088,0.0043 q 0,-0.173978 -0.05943,-0.260105 -0.05943,-0.08613 -0.18259,-0.08613 -0.06976,0 -0.140387,0.03015 -0.07062,0.03014 -0.135221,0.07924 V 66.4413 q 0.0689,0.03101 0.117995,0.0422 0.04995,0.0112 0.112827,0.0112 0.13522,0 0.211012,-0.09129 0.07579,-0.0913 0.07579,-0.27044 z" />
      <path
         inkscape:connector-curvature="0"
         id="path1685"
         style="stroke-width:0.264583"
         d="m 18.878706,66.15708 h -0.708829 q 0,0.08871 0.0267,0.15503 0.0267,0.06546 0.07321,0.107659 0.04479,0.04134 0.105936,0.06201 0.06201,0.02067 0.136082,0.02067 0.09819,0 0.197232,-0.03876 0.09991,-0.03962 0.14211,-0.07752 h 0.0086 v 0.176562 q -0.08182,0.03445 -0.167088,0.0577 -0.08527,0.02325 -0.179145,0.02325 -0.239434,0 -0.373793,-0.129192 -0.134359,-0.130052 -0.134359,-0.368625 0,-0.235989 0.12833,-0.374654 0.129191,-0.138666 0.339342,-0.138666 0.194648,0 0.299724,0.113689 0.105937,0.113688 0.105937,0.322977 z m -0.157614,-0.124023 q -8.61e-4,-0.127469 -0.06459,-0.197232 -0.06287,-0.06976 -0.192064,-0.06976 -0.130053,0 -0.207568,0.07665 -0.07665,0.07665 -0.08699,0.190342 z" />
      <path
         inkscape:connector-curvature="0"
         id="path1687"
         style="stroke-width:0.264583"
         d="m 19.724477,65.835825 h -0.0086 q -0.03617,-0.0086 -0.07062,-0.01206 -0.03359,-0.0043 -0.0801,-0.0043 -0.07493,0 -0.144694,0.03359 -0.06976,0.03273 -0.134359,0.08527 v 0.68299 h -0.161919 v -0.962043 h 0.161919 v 0.14211 q 0.09646,-0.07751 0.169671,-0.109382 0.07407,-0.03273 0.150723,-0.03273 0.0422,0 0.06115,0.0026 0.01895,0.0017 0.05684,0.0078 z" />
    </g>
    <g
       transform="translate(0.1502924)"
       style="font-size:1.76389px;line-height:1.25;font-family:sans-serif;-inkscape-font-specification:'sans-serif Normal';display:inline;mix-blend-mode:normal;stroke-width:0.264583"
       id="text1465-4-1"
       aria-label="trimmer">
      <path
         inkscape:connector-curvature="0"
         id="path1690"
         style="stroke-width:0.264583"
         d="m 13.450093,69.618546 q -0.04565,0.01206 -0.09991,0.01981 -0.0534,0.0078 -0.0956,0.0078 -0.147277,0 -0.223931,-0.07924 -0.07665,-0.07924 -0.07665,-0.254076 V 68.801243 H 12.84462 v -0.136081 h 0.109382 v -0.27647 h 0.161919 v 0.27647 h 0.334175 v 0.136081 h -0.334175 v 0.438389 q 0,0.07579 0.0034,0.118855 0.0034,0.0422 0.02412,0.07924 0.01895,0.03445 0.05168,0.05082 0.03359,0.0155 0.10163,0.0155 0.03962,0 0.08268,-0.0112 0.04306,-0.01206 0.06201,-0.01981 h 0.0086 z" />
      <path
         inkscape:connector-curvature="0"
         id="path1692"
         style="stroke-width:0.264583"
         d="m 14.246772,68.841677 h -0.0086 q -0.03617,-0.0086 -0.07062,-0.01206 -0.03359,-0.0043 -0.0801,-0.0043 -0.07493,0 -0.144694,0.03359 -0.06976,0.03273 -0.134359,0.08527 v 0.682991 h -0.16192 v -0.962043 h 0.16192 v 0.14211 q 0.09646,-0.07752 0.169671,-0.109382 0.07407,-0.03273 0.150723,-0.03273 0.0422,0 0.06115,0.0026 0.01895,0.0017 0.05684,0.0078 z" />
      <path
         inkscape:connector-curvature="0"
         id="path1694"
         style="stroke-width:0.264583"
         d="m 14.574917,68.504057 h -0.18259 v -0.167948 h 0.18259 z m -0.01033,1.123102 h -0.16192 v -0.962043 h 0.16192 z" />
      <path
         inkscape:connector-curvature="0"
         id="path1696"
         style="stroke-width:0.264583"
         d="m 16.290576,69.627159 h -0.16192 v -0.54777 q 0,-0.06201 -0.006,-0.119718 -0.0052,-0.0577 -0.02325,-0.09216 -0.01981,-0.03704 -0.05684,-0.05598 -0.03703,-0.01895 -0.106798,-0.01895 -0.06804,0 -0.136082,0.03445 -0.06804,0.03359 -0.136081,0.08613 0.0026,0.01981 0.0043,0.04651 0.0017,0.02584 0.0017,0.05168 v 0.615811 h -0.16192 v -0.54777 q 0,-0.06374 -0.006,-0.120579 -0.0052,-0.0577 -0.02325,-0.09216 -0.01981,-0.03704 -0.05684,-0.05512 -0.03703,-0.01895 -0.106798,-0.01895 -0.06632,0 -0.133498,0.03273 -0.06632,0.03273 -0.132636,0.08354 v 0.718303 h -0.161919 v -0.962043 h 0.161919 v 0.106798 q 0.07579,-0.06287 0.150723,-0.09819 0.07579,-0.03531 0.161058,-0.03531 0.09819,0 0.166226,0.04134 0.0689,0.04134 0.102492,0.11455 0.09818,-0.08268 0.179145,-0.118856 0.08096,-0.03703 0.173116,-0.03703 0.158475,0 0.233406,0.09646 0.07579,0.0956 0.07579,0.267856 z" />
      <path
         inkscape:connector-curvature="0"
         id="path1698"
         style="stroke-width:0.264583"
         d="m 18.006234,69.627159 h -0.161919 v -0.54777 q 0,-0.06201 -0.006,-0.119718 -0.0052,-0.0577 -0.02325,-0.09216 -0.01981,-0.03704 -0.05684,-0.05598 -0.03703,-0.01895 -0.106798,-0.01895 -0.06804,0 -0.136081,0.03445 -0.06804,0.03359 -0.136081,0.08613 0.0026,0.01981 0.0043,0.04651 0.0017,0.02584 0.0017,0.05168 v 0.615811 h -0.16192 v -0.54777 q 0,-0.06374 -0.006,-0.120579 -0.0052,-0.0577 -0.02325,-0.09216 -0.01981,-0.03704 -0.05684,-0.05512 -0.03703,-0.01895 -0.106798,-0.01895 -0.06632,0 -0.133497,0.03273 -0.06632,0.03273 -0.132636,0.08354 v 0.718303 h -0.16192 v -0.962043 h 0.16192 v 0.106798 q 0.07579,-0.06287 0.150723,-0.09819 0.07579,-0.03531 0.161058,-0.03531 0.09819,0 0.166226,0.04134 0.0689,0.04134 0.102492,0.11455 0.09819,-0.08268 0.179145,-0.118856 0.08096,-0.03703 0.173116,-0.03703 0.158474,0 0.233405,0.09646 0.07579,0.0956 0.07579,0.267856 z" />
      <path
         inkscape:connector-curvature="0"
         id="path1700"
         style="stroke-width:0.264583"
         d="m 19.123307,69.162932 h -0.708829 q 0,0.08871 0.0267,0.15503 0.0267,0.06546 0.07321,0.107659 0.04479,0.04134 0.105937,0.06201 0.06201,0.02067 0.136081,0.02067 0.09819,0 0.197232,-0.03876 0.09991,-0.03962 0.142111,-0.07751 h 0.0086 v 0.176561 q -0.08182,0.03445 -0.167087,0.05771 -0.08527,0.02325 -0.179145,0.02325 -0.239434,0 -0.373793,-0.129191 -0.134359,-0.130052 -0.134359,-0.368625 0,-0.23599 0.12833,-0.374655 0.129191,-0.138665 0.339342,-0.138665 0.194648,0 0.299724,0.113688 0.105936,0.113689 0.105936,0.322978 z m -0.157613,-0.124023 q -8.61e-4,-0.127469 -0.0646,-0.197232 -0.06287,-0.06976 -0.192065,-0.06976 -0.130052,0 -0.207567,0.07665 -0.07665,0.07665 -0.08699,0.190342 z" />
      <path
         inkscape:connector-curvature="0"
         id="path1702"
         style="stroke-width:0.264583"
         d="m 19.969079,68.841677 h -0.0086 q -0.03617,-0.0086 -0.07062,-0.01206 -0.03359,-0.0043 -0.0801,-0.0043 -0.07493,0 -0.144694,0.03359 -0.06976,0.03273 -0.134359,0.08527 v 0.682991 h -0.161919 v -0.962043 h 0.161919 v 0.14211 q 0.09646,-0.07752 0.169671,-0.109382 0.07407,-0.03273 0.150723,-0.03273 0.0422,0 0.06115,0.0026 0.01895,0.0017 0.05684,0.0078 z" />
    </g>
    <g
       style="font-size:1.76389px;line-height:1.25;font-family:sans-serif;-inkscape-font-specification:'sans-serif Normal';display:inline;mix-blend-mode:normal;stroke-width:0.264583"
       id="text1457-1-7-1"
       aria-label="scramble">
      <path
         id="path1752"
         style="stroke-width:0.264583"
         d="m 53.395137,66.359915 q 0,0.131775 -0.109382,0.21618 -0.108521,0.08441 -0.29714,0.08441 -0.106798,0 -0.19637,-0.02498 -0.08871,-0.02584 -0.149001,-0.05598 v -0.181729 h 0.0086 q 0.07665,0.0577 0.170532,0.09216 0.09388,0.03359 0.180006,0.03359 0.106799,0 0.167088,-0.03445 0.06029,-0.03445 0.06029,-0.108521 0,-0.05684 -0.03273,-0.08613 -0.03273,-0.02928 -0.125747,-0.04995 -0.03445,-0.0078 -0.09043,-0.01809 -0.05512,-0.01033 -0.100769,-0.02239 -0.126608,-0.03359 -0.180007,-0.09819 -0.05254,-0.06546 -0.05254,-0.160197 0,-0.05943 0.02412,-0.111966 0.02498,-0.05254 0.07493,-0.09388 0.04823,-0.04048 0.122301,-0.06373 0.07493,-0.02412 0.167087,-0.02412 0.08613,0 0.173978,0.02153 0.08871,0.02067 0.147278,0.05082 v 0.173116 h -0.0086 q -0.06201,-0.04565 -0.150723,-0.07665 -0.08871,-0.03187 -0.173978,-0.03187 -0.08871,0 -0.149861,0.03445 -0.06115,0.03359 -0.06115,0.100769 0,0.05943 0.03704,0.08957 0.03617,0.03014 0.117133,0.04909 0.04479,0.01033 0.09991,0.02067 0.05598,0.01034 0.09302,0.01895 0.112827,0.02584 0.173977,0.08871 0.06115,0.06373 0.06115,0.16881 z" />
      <path
         id="path1754"
         style="stroke-width:0.264583"
         d="m 54.339093,66.576956 q -0.08096,0.03876 -0.154168,0.06029 -0.07235,0.02153 -0.154168,0.02153 -0.104214,0 -0.191203,-0.03015 -0.08699,-0.031 -0.149,-0.09302 -0.06287,-0.06201 -0.09732,-0.156752 -0.03445,-0.09474 -0.03445,-0.221348 0,-0.235989 0.129191,-0.370348 0.130052,-0.134358 0.342787,-0.134358 0.08268,0 0.16192,0.02325 0.0801,0.02325 0.146416,0.05684 v 0.180006 h -0.0086 q -0.07407,-0.0577 -0.153307,-0.08871 -0.07838,-0.03101 -0.153307,-0.03101 -0.137804,0 -0.217902,0.09302 -0.07924,0.09216 -0.07924,0.271301 0,0.173978 0.07752,0.267857 0.07838,0.09302 0.219625,0.09302 0.04909,0 0.09991,-0.01292 0.05082,-0.01292 0.09129,-0.03359 0.03531,-0.01809 0.06632,-0.0379 0.03101,-0.02067 0.04909,-0.03531 h 0.0086 z" />
      <path
         id="path1756"
         style="stroke-width:0.264583"
         d="m 55.14783,65.851763 h -0.0086 q -0.03617,-0.0086 -0.07062,-0.01206 -0.03359,-0.0043 -0.0801,-0.0043 -0.07493,0 -0.144694,0.03359 -0.06976,0.03273 -0.134359,0.08527 v 0.68299 h -0.161919 v -0.962043 h 0.161919 v 0.14211 q 0.09646,-0.07752 0.169672,-0.109382 0.07407,-0.03273 0.150723,-0.03273 0.0422,0 0.06115,0.0026 0.01895,0.0017 0.05684,0.0078 z" />
      <path
         id="path1758"
         style="stroke-width:0.264583"
         d="m 56.049584,66.637245 h -0.161058 v -0.102491 q -0.02153,0.01464 -0.05857,0.04134 -0.03617,0.02584 -0.07062,0.04134 -0.04048,0.01981 -0.09302,0.03273 -0.05254,0.01378 -0.123162,0.01378 -0.130052,0 -0.220486,-0.08613 -0.09043,-0.08613 -0.09043,-0.219625 0,-0.109382 0.04651,-0.176561 0.04737,-0.06804 0.134359,-0.106798 0.08785,-0.03876 0.211012,-0.05254 0.123162,-0.01378 0.264411,-0.02067 v -0.02498 q 0,-0.05512 -0.01981,-0.0913 -0.01895,-0.03617 -0.05512,-0.05684 -0.03445,-0.01981 -0.08268,-0.0267 -0.04823,-0.0069 -0.100769,-0.0069 -0.06373,0 -0.14211,0.01723 -0.07838,0.01636 -0.16192,0.04823 h -0.0086 v -0.164504 q 0.04737,-0.01292 0.136943,-0.02842 0.08957,-0.0155 0.176561,-0.0155 0.101631,0 0.176561,0.01723 0.07579,0.01636 0.130914,0.05684 0.05426,0.03962 0.08268,0.102491 0.02842,0.06287 0.02842,0.155891 z m -0.161058,-0.23685 v -0.267857 q -0.07407,0.0043 -0.174839,0.01292 -0.09991,0.0086 -0.158474,0.02498 -0.06976,0.01981 -0.112827,0.06201 -0.04306,0.04134 -0.04306,0.11455 0,0.08268 0.04995,0.124884 0.04995,0.04134 0.152446,0.04134 0.08527,0 0.15589,-0.03273 0.07062,-0.03359 0.130914,-0.0801 z" />
      <path
         id="path1760"
         style="stroke-width:0.264583"
         d="m 57.766966,66.637245 h -0.16192 v -0.54777 q 0,-0.06201 -0.006,-0.119718 -0.0052,-0.0577 -0.02325,-0.09216 -0.01981,-0.03704 -0.05684,-0.05598 -0.03703,-0.01895 -0.106798,-0.01895 -0.06804,0 -0.136082,0.03445 -0.06804,0.03359 -0.136081,0.08613 0.0026,0.01981 0.0043,0.04651 0.0017,0.02584 0.0017,0.05168 v 0.615811 h -0.16192 v -0.54777 q 0,-0.06373 -0.006,-0.120579 -0.0052,-0.0577 -0.02325,-0.09216 -0.01981,-0.03704 -0.05684,-0.05512 -0.03703,-0.01895 -0.106798,-0.01895 -0.06632,0 -0.133498,0.03273 -0.06632,0.03273 -0.132636,0.08354 v 0.718303 h -0.16192 v -0.962043 h 0.16192 V 65.782 q 0.07579,-0.06287 0.150723,-0.09819 0.07579,-0.03531 0.161058,-0.03531 0.09819,0 0.166226,0.04134 0.0689,0.04134 0.102492,0.11455 0.09818,-0.08268 0.179145,-0.118856 0.08096,-0.03704 0.173116,-0.03704 0.158475,0 0.233405,0.09646 0.07579,0.0956 0.07579,0.267856 z" />
      <path
         id="path1762"
         style="stroke-width:0.264583"
         d="m 58.92538,66.148903 q 0,0.120578 -0.03445,0.217041 -0.03359,0.09646 -0.0913,0.161919 -0.06115,0.06804 -0.134359,0.102492 -0.07321,0.03359 -0.161058,0.03359 -0.08182,0 -0.142972,-0.01981 -0.06115,-0.01895 -0.120578,-0.05168 l -0.01034,0.04479 h -0.151584 v -1.340143 h 0.16192 v 0.478869 q 0.06804,-0.05598 0.144694,-0.0913 0.07665,-0.03617 0.172255,-0.03617 0.170532,0 0.268717,0.130914 0.09905,0.130914 0.09905,0.369487 z m -0.167088,0.0043 q 0,-0.172255 -0.05684,-0.260966 -0.05684,-0.08957 -0.183451,-0.08957 -0.07062,0 -0.142972,0.03101 -0.07235,0.03015 -0.134358,0.07838 v 0.551216 q 0.0689,0.03101 0.117994,0.04306 0.04995,0.01206 0.112827,0.01206 0.134359,0 0.210151,-0.08785 0.07665,-0.08871 0.07665,-0.27733 z" />
      <path
         id="path1764"
         style="stroke-width:0.264583"
         d="m 59.341375,66.637245 h -0.161919 v -1.340143 h 0.161919 z" />
      <path
         id="path1766"
         style="stroke-width:0.264583"
         d="m 60.468783,66.173018 h -0.708828 q 0,0.08871 0.0267,0.15503 0.0267,0.06546 0.07321,0.107659 0.04479,0.04134 0.105937,0.06201 0.06201,0.02067 0.136082,0.02067 0.09819,0 0.197231,-0.03876 0.09991,-0.03962 0.142111,-0.07751 h 0.0086 v 0.176562 q -0.08182,0.03445 -0.167087,0.05771 -0.08527,0.02325 -0.179145,0.02325 -0.239434,0 -0.373793,-0.129191 -0.134359,-0.130052 -0.134359,-0.368625 0,-0.235989 0.12833,-0.374655 0.129191,-0.138665 0.339342,-0.138665 0.194648,0 0.299724,0.113688 0.105936,0.113689 0.105936,0.322978 z M 60.31117,66.048995 q -8.61e-4,-0.127469 -0.06459,-0.197232 -0.06287,-0.06976 -0.192065,-0.06976 -0.130052,0 -0.207567,0.07665 -0.07665,0.07665 -0.08699,0.190342 z" />
    </g>
  </g>
  <g
     aria-label="modA "
     id="text851"
     style="font-style:normal;font-weight:normal;font-size:10.5833px;line-height:1.25;font-family:sans-serif;fill:#000000;fill-opacity:1;stroke:none;stroke-width:0.264583"
     transform="translate(0,-4.2333333)">
    <path
       d="m 41.070895,80.491263 v 1.096918 h -0.49885 v -0.773079 q 0,-0.112999 -0.0055,-0.191547 -0.0055,-0.07993 -0.03032,-0.129536 -0.0248,-0.04961 -0.07579,-0.07166 -0.04961,-0.02343 -0.14056,-0.02343 -0.07304,0 -0.141937,0.03032 -0.0689,0.02894 -0.124024,0.06201 v 1.096918 H 39.55781 v -1.547536 h 0.496093 v 0.170876 q 0.128158,-0.100596 0.245291,-0.157096 0.117133,-0.0565 0.259071,-0.0565 0.152962,0 0.270095,0.0689 0.117133,0.06752 0.183279,0.199815 0.148828,-0.125401 0.289388,-0.197059 0.14056,-0.07166 0.275607,-0.07166 0.250803,0 0.380339,0.150206 0.130913,0.150206 0.130913,0.432703 v 1.007346 h -0.498849 v -0.773079 q 0,-0.114377 -0.0055,-0.192926 -0.0041,-0.07855 -0.02894,-0.128157 -0.02343,-0.04961 -0.07441,-0.07166 -0.05099,-0.02343 -0.143316,-0.02343 -0.06201,0 -0.121267,0.02205 -0.05926,0.02067 -0.144694,0.07028 z"
       style="font-style:normal;font-variant:normal;font-weight:bold;font-stretch:normal;font-size:2.82222px;font-family:sans-serif;-inkscape-font-specification:'sans-serif Normal';font-variant-ligatures:normal;font-variant-caps:normal;font-variant-numeric:normal;font-variant-east-asian:normal"
       id="path930"
       inkscape:connector-curvature="0" />
    <path
       d="m 44.127381,80.815102 q 0,0.381716 -0.223242,0.602202 -0.221864,0.219108 -0.624251,0.219108 -0.402387,0 -0.625629,-0.219108 -0.221864,-0.220486 -0.221864,-0.602202 0,-0.384473 0.223242,-0.603581 0.22462,-0.219107 0.624251,-0.219107 0.405143,0 0.625629,0.220485 0.221864,0.220486 0.221864,0.602203 z m -0.61047,0.376204 q 0.04823,-0.05926 0.07166,-0.141938 0.0248,-0.08406 0.0248,-0.23151 0,-0.136426 -0.0248,-0.228754 -0.02481,-0.09233 -0.0689,-0.14745 -0.0441,-0.0565 -0.106109,-0.07993 -0.06201,-0.02343 -0.13367,-0.02343 -0.07166,0 -0.128157,0.01929 -0.05512,0.01929 -0.106109,0.07717 -0.04548,0.05374 -0.07304,0.14745 -0.02618,0.09371 -0.02618,0.235645 0,0.126779 0.02343,0.220486 0.02343,0.09233 0.0689,0.148828 0.0441,0.05374 0.104731,0.07855 0.06201,0.02481 0.140559,0.02481 0.06752,0 0.128158,-0.02205 0.06201,-0.02343 0.104731,-0.07717 z"
       style="font-style:normal;font-variant:normal;font-weight:bold;font-stretch:normal;font-size:2.82222px;font-family:sans-serif;-inkscape-font-specification:'sans-serif Normal';font-variant-ligatures:normal;font-variant-caps:normal;font-variant-numeric:normal;font-variant-east-asian:normal"
       id="path932"
       inkscape:connector-curvature="0" />
    <path
       d="M 45.990487,81.588181 H 45.494394 V 81.42695 q -0.128158,0.104731 -0.239779,0.15434 -0.111621,0.04961 -0.257693,0.04961 -0.282497,0 -0.451996,-0.21773 -0.169498,-0.21773 -0.169498,-0.587044 0,-0.197059 0.0565,-0.348643 0.05788,-0.152963 0.157096,-0.261827 0.09371,-0.103353 0.227377,-0.159853 0.133669,-0.05788 0.267339,-0.05788 0.139181,0 0.227376,0.03032 0.08957,0.02894 0.183279,0.07441 v -0.658701 h 0.496093 z m -0.496093,-0.427192 v -0.759298 q -0.05237,-0.02205 -0.110243,-0.03169 -0.05788,-0.0096 -0.106109,-0.0096 -0.195681,0 -0.293522,0.122646 -0.09784,0.121267 -0.09784,0.337619 0,0.227376 0.07855,0.330729 0.07855,0.101975 0.25218,0.101975 0.06752,0 0.143316,-0.0248 0.07579,-0.02618 0.13367,-0.06752 z"
       style="font-style:normal;font-variant:normal;font-weight:bold;font-stretch:normal;font-size:2.82222px;font-family:sans-serif;-inkscape-font-specification:'sans-serif Normal';font-variant-ligatures:normal;font-variant-caps:normal;font-variant-numeric:normal;font-variant-east-asian:normal"
       id="path934"
       inkscape:connector-curvature="0" />
    <path
       d="m 48.38276,81.588181 h -0.547081 l -0.141938,-0.41479 h -0.760677 l -0.141937,0.41479 h -0.533301 l 0.757921,-2.051898 h 0.609092 z m -0.817176,-0.790994 -0.252181,-0.735872 -0.252181,0.735872 z"
       style="font-style:normal;font-variant:normal;font-weight:bold;font-stretch:normal;font-size:2.82222px;font-family:sans-serif;-inkscape-font-specification:'sans-serif Normal';font-variant-ligatures:normal;font-variant-caps:normal;font-variant-numeric:normal;font-variant-east-asian:normal"
       id="path936"
       inkscape:connector-curvature="0" />
  </g>
  <g
     aria-label="modB"
     id="text851-1"
     style="font-style:normal;font-weight:normal;font-size:10.5833px;line-height:1.25;font-family:sans-serif;fill:#000000;fill-opacity:1;stroke:none;stroke-width:0.264583"
     transform="translate(0,-4.2333333)">
    <path
       d="m 52.615035,80.473532 v 1.096918 h -0.49885 v -0.773079 q 0,-0.112999 -0.0055,-0.191547 -0.0055,-0.07993 -0.03032,-0.129536 -0.02481,-0.04961 -0.07579,-0.07166 -0.04961,-0.02343 -0.14056,-0.02343 -0.07304,0 -0.141938,0.03032 -0.0689,0.02894 -0.124023,0.06201 V 81.57045 H 51.10195 v -1.547536 h 0.496093 v 0.170877 q 0.128158,-0.100597 0.245291,-0.157097 0.117133,-0.0565 0.259071,-0.0565 0.152962,0 0.270095,0.0689 0.117133,0.06752 0.183279,0.199815 0.148828,-0.125401 0.289388,-0.197059 0.14056,-0.07166 0.275607,-0.07166 0.250803,0 0.380338,0.150206 0.130914,0.150206 0.130914,0.432704 v 1.007345 h -0.49885 v -0.773079 q 0,-0.114377 -0.0055,-0.192925 -0.0041,-0.07855 -0.02894,-0.128158 -0.02343,-0.04961 -0.07441,-0.07166 -0.05099,-0.02343 -0.143316,-0.02343 -0.06201,0 -0.121268,0.02205 -0.05926,0.02067 -0.144693,0.07028 z"
       style="font-style:normal;font-variant:normal;font-weight:bold;font-stretch:normal;font-size:2.82222px;font-family:sans-serif;-inkscape-font-specification:'sans-serif Normal';font-variant-ligatures:normal;font-variant-caps:normal;font-variant-numeric:normal;font-variant-east-asian:normal;stroke-width:0.264583"
       id="path939"
       inkscape:connector-curvature="0" />
    <path
       d="m 55.671521,80.797371 q 0,0.381716 -0.223242,0.602202 -0.221864,0.219108 -0.624251,0.219108 -0.402387,0 -0.625629,-0.219108 -0.221864,-0.220486 -0.221864,-0.602202 0,-0.384472 0.223242,-0.60358 0.22462,-0.219108 0.624251,-0.219108 0.405143,0 0.625629,0.220486 0.221864,0.220486 0.221864,0.602202 z m -0.61047,0.376204 q 0.04823,-0.05925 0.07166,-0.141938 0.02481,-0.08406 0.02481,-0.23151 0,-0.136426 -0.02481,-0.228754 -0.0248,-0.09233 -0.0689,-0.14745 -0.0441,-0.0565 -0.106109,-0.07993 -0.06201,-0.02343 -0.13367,-0.02343 -0.07166,0 -0.128157,0.01929 -0.05512,0.01929 -0.106109,0.07717 -0.04548,0.05374 -0.07304,0.14745 -0.02618,0.09371 -0.02618,0.235644 0,0.126779 0.02343,0.220486 0.02343,0.09233 0.0689,0.148828 0.0441,0.05374 0.10473,0.07855 0.06201,0.02481 0.14056,0.02481 0.06752,0 0.128158,-0.02205 0.06201,-0.02343 0.104731,-0.07717 z"
       style="font-style:normal;font-variant:normal;font-weight:bold;font-stretch:normal;font-size:2.82222px;font-family:sans-serif;-inkscape-font-specification:'sans-serif Normal';font-variant-ligatures:normal;font-variant-caps:normal;font-variant-numeric:normal;font-variant-east-asian:normal;stroke-width:0.264583"
       id="path941"
       inkscape:connector-curvature="0" />
    <path
       d="m 57.534627,81.57045 h -0.496093 v -0.161231 q -0.128158,0.104731 -0.239779,0.154341 -0.111621,0.04961 -0.257693,0.04961 -0.282497,0 -0.451996,-0.21773 -0.169499,-0.21773 -0.169499,-0.587044 0,-0.197059 0.0565,-0.348643 0.05788,-0.152962 0.157096,-0.261827 0.09371,-0.103353 0.227376,-0.159852 0.13367,-0.05788 0.26734,-0.05788 0.139181,0 0.227376,0.03032 0.08957,0.02894 0.183279,0.07441 v -0.658702 h 0.496093 z M 57.038534,81.143258 V 80.38396 q -0.05237,-0.02205 -0.110243,-0.03169 -0.05788,-0.0096 -0.106109,-0.0096 -0.195681,0 -0.293522,0.122645 -0.09784,0.121267 -0.09784,0.337619 0,0.227376 0.07855,0.330729 0.07855,0.101975 0.252181,0.101975 0.06752,0 0.143316,-0.02481 0.07579,-0.02618 0.13367,-0.06752 z"
       style="font-style:normal;font-variant:normal;font-weight:bold;font-stretch:normal;font-size:2.82222px;font-family:sans-serif;-inkscape-font-specification:'sans-serif Normal';font-variant-ligatures:normal;font-variant-caps:normal;font-variant-numeric:normal;font-variant-east-asian:normal;stroke-width:0.264583"
       id="path943"
       inkscape:connector-curvature="0" />
    <path
       d="m 59.78634,80.942065 q 0,0.148828 -0.06063,0.265961 -0.05926,0.117133 -0.163986,0.194303 -0.121268,0.09095 -0.26734,0.129536 -0.144694,0.03858 -0.367936,0.03858 H 58.03072 v -2.051897 h 0.796506 q 0.248046,0 0.362424,0.01654 0.115755,0.01654 0.228754,0.07304 0.117133,0.05926 0.173632,0.159852 0.05788,0.09922 0.05788,0.227376 0,0.148828 -0.07855,0.263205 -0.07855,0.113 -0.221864,0.176389 v 0.01103 q 0.201193,0.03996 0.318326,0.165364 0.118512,0.125401 0.118512,0.330729 z m -0.677995,-0.843359 q 0,-0.05099 -0.02618,-0.101975 -0.02481,-0.05099 -0.08957,-0.07579 -0.05788,-0.02205 -0.144694,-0.02343 -0.08544,-0.0028 -0.241156,-0.0028 h -0.04961 v 0.434081 h 0.08268 q 0.125401,0 0.213595,-0.0041 0.08819,-0.0041 0.139182,-0.02756 0.07166,-0.03169 0.09371,-0.08131 0.02205,-0.05099 0.02205,-0.117133 z m 0.129536,0.835091 q 0,-0.09784 -0.03859,-0.150206 -0.03721,-0.05374 -0.128158,-0.07993 -0.06201,-0.01791 -0.170876,-0.01929 -0.108865,-0.0014 -0.227376,-0.0014 H 58.55713 v 0.511252 h 0.03859 q 0.223242,0 0.319704,-0.0014 0.09646,-0.0014 0.177767,-0.03583 0.08268,-0.03445 0.112999,-0.09095 0.03169,-0.05788 0.03169,-0.132291 z"
       style="font-style:normal;font-variant:normal;font-weight:bold;font-stretch:normal;font-size:2.82222px;font-family:sans-serif;-inkscape-font-specification:'sans-serif Normal';font-variant-ligatures:normal;font-variant-caps:normal;font-variant-numeric:normal;font-variant-east-asian:normal;stroke-width:0.264583"
       id="path945"
       inkscape:connector-curvature="0" />
  </g>
</svg>
