<?xml version="1.0" encoding="UTF-8" standalone="no"?>
<svg
   xmlns:dc="http://purl.org/dc/elements/1.1/"
   xmlns:cc="http://creativecommons.org/ns#"
   xmlns:rdf="http://www.w3.org/1999/02/22-rdf-syntax-ns#"
   xmlns:svg="http://www.w3.org/2000/svg"
   xmlns="http://www.w3.org/2000/svg"
   xmlns:sodipodi="http://sodipodi.sourceforge.net/DTD/sodipodi-0.dtd"
   xmlns:inkscape="http://www.inkscape.org/namespaces/inkscape"
   sodipodi:docname="blooper_text.svg"
   inkscape:version="1.0beta1 (76ce730, 2019-10-19)"
   id="svg3705"
   version="1.1"
   viewBox="0 0 60.96 128.5"
   height="128.5mm"
   width="60.959999mm">
  <defs
     id="defs3699" />
  <sodipodi:namedview
     inkscape:document-rotation="0"
     inkscape:window-maximized="0"
     inkscape:window-y="23"
     inkscape:window-x="0"
     inkscape:window-height="855"
     inkscape:window-width="1440"
     showgrid="false"
     inkscape:current-layer="layer2"
     inkscape:document-units="mm"
     inkscape:cy="243.16925"
     inkscape:cx="115.5"
     inkscape:zoom="1.3231083"
     inkscape:pageshadow="2"
     inkscape:pageopacity="0.0"
     borderopacity="1.0"
     bordercolor="#666666"
     pagecolor="#ffffff"
     id="base" />
  <metadata
     id="metadata3702">
    <rdf:RDF>
      <cc:Work
         rdf:about="">
        <dc:format>image/svg+xml</dc:format>
        <dc:type
           rdf:resource="http://purl.org/dc/dcmitype/StillImage" />
        <dc:title></dc:title>
      </cc:Work>
    </rdf:RDF>
  </metadata>
  <g
     sodipodi:insensitive="true"
     style="display:inline;mix-blend-mode:normal"
     transform="translate(0,-168.5)"
     id="layer1"
     inkscape:groupmode="layer"
     inkscape:label="background">
    <rect
       y="168.1479"
       x="-0.79375005"
       height="129.38126"
       width="62.706249"
       id="rect3711"
       style="fill:#96bed2;fill-opacity:1;stroke-width:0.288951" />
  </g>
  <g
     style="display:inline"
     inkscape:label="text"
     id="layer2"
     inkscape:groupmode="layer">
    <g
       aria-label="CLK"
       id="text344"
       style="font-style:normal;font-variant:normal;font-weight:normal;font-stretch:normal;font-size:4.23332999999999959px;line-height:1.25;font-family:sans-serif;-inkscape-font-specification:'sans-serif Normal';font-variant-ligatures:normal;font-variant-caps:normal;font-variant-numeric:normal;font-variant-east-asian:normal;fill:#ffffff;fill-opacity:1;stroke:none;stroke-width:0.264583"
       transform="translate(10.583331,2.6458334)">
      <path
         d="m 42.209906,97.565068 q -0.285943,0 -0.528822,-0.0844 -0.241157,-0.08441 -0.415134,-0.251492 -0.173978,-0.167088 -0.270441,-0.416857 -0.09474,-0.24977 -0.09474,-0.577054 0,-0.304891 0.0913,-0.552938 0.0913,-0.248047 0.265273,-0.42547 0.167087,-0.170532 0.413412,-0.26355 0.248047,-0.09302 0.54088,-0.09302 0.16192,0 0.291111,0.01895 0.130913,0.01722 0.241157,0.04651 0.11541,0.03273 0.208428,0.07407 0.09474,0.03962 0.165365,0.07407 v 0.62184 h -0.07579 q -0.04823,-0.04134 -0.1223,-0.09819 -0.07235,-0.05684 -0.165365,-0.111966 -0.09474,-0.05512 -0.204984,-0.09302 -0.110243,-0.0379 -0.235989,-0.0379 -0.139526,0 -0.265272,0.04479 -0.125746,0.04306 -0.232544,0.144695 -0.101631,0.09819 -0.165365,0.260104 -0.06201,0.16192 -0.06201,0.392742 0,0.241156 0.06718,0.403076 0.0689,0.16192 0.172255,0.254937 0.105075,0.09474 0.234266,0.136082 0.129191,0.03962 0.254937,0.03962 0.120579,0 0.237712,-0.03617 0.118856,-0.03617 0.218764,-0.09819 0.0844,-0.04995 0.156752,-0.106798 0.07235,-0.05684 0.118856,-0.09819 h 0.0689 v 0.613227 q -0.09646,0.04306 -0.184313,0.08096 -0.08785,0.0379 -0.184313,0.06546 -0.125746,0.03617 -0.235989,0.05512 -0.110243,0.01895 -0.303169,0.01895 z"
         style="font-style:normal;font-variant:normal;font-weight:bold;font-stretch:normal;font-size:3.52777999999999992px;font-family:sans-serif;-inkscape-font-specification:'sans-serif Bold';font-variant-ligatures:normal;font-variant-caps:normal;font-variant-numeric:normal;font-variant-east-asian:normal;fill:#ffffff;stroke-width:0.264583;fill-opacity:1"
         id="path390"
         inkscape:connector-curvature="0" />
      <path
         d="m 45.456911,97.515114 h -1.850018 v -2.564875 h 0.661459 v 2.068781 h 1.188559 z"
         style="font-style:normal;font-variant:normal;font-weight:bold;font-stretch:normal;font-size:3.52777999999999992px;font-family:sans-serif;-inkscape-font-specification:'sans-serif Bold';font-variant-ligatures:normal;font-variant-caps:normal;font-variant-numeric:normal;font-variant-east-asian:normal;fill:#ffffff;stroke-width:0.264583;fill-opacity:1"
         id="path392"
         inkscape:connector-curvature="0" />
      <path
         d="m 48.24744,97.515114 h -0.81132 l -0.766534,-1.026639 -0.15503,0.187758 v 0.838881 h -0.661459 v -2.564875 h 0.661459 v 1.160998 l 0.916396,-1.160998 h 0.766534 l -1.002523,1.186836 z"
         style="font-style:normal;font-variant:normal;font-weight:bold;font-stretch:normal;font-size:3.52777999999999992px;font-family:sans-serif;-inkscape-font-specification:'sans-serif Bold';font-variant-ligatures:normal;font-variant-caps:normal;font-variant-numeric:normal;font-variant-east-asian:normal;fill:#ffffff;stroke-width:0.264583;fill-opacity:1"
         id="path394"
         inkscape:connector-curvature="0" />
    </g>
    <g
       aria-label="EXPR"
       id="text348"
       style="font-style:normal;font-weight:normal;font-size:10.58329999999999949px;line-height:1.25;font-family:sans-serif;fill:#ffffff;fill-opacity:1;stroke:none;stroke-width:0.264583"
       transform="translate(-11.641667,2.6458334)">
      <path
         d="m 51.975251,97.585861 h -1.855185 v -2.564875 h 1.855185 V 95.51708 H 50.77808 v 0.442695 h 1.111044 v 0.496094 H 50.77808 v 0.633898 h 1.197171 z"
         style="font-style:normal;font-variant:normal;font-weight:bold;font-stretch:normal;font-size:3.52777999999999992px;font-family:sans-serif;-inkscape-font-specification:'sans-serif Bold';font-variant-ligatures:normal;font-variant-caps:normal;font-variant-numeric:normal;font-variant-east-asian:normal;fill:#ffffff;stroke-width:0.264583;fill-opacity:1"
         id="path397"
         inkscape:connector-curvature="0" />
      <path
         d="m 54.857075,97.585861 h -0.764811 l -0.552938,-0.844049 -0.563274,0.844049 h -0.730361 l 0.909506,-1.291911 -0.890558,-1.272964 h 0.76309 l 0.53399,0.799263 0.549493,-0.799263 h 0.732083 l -0.895725,1.247125 z"
         style="font-style:normal;font-variant:normal;font-weight:bold;font-stretch:normal;font-size:3.52777999999999992px;font-family:sans-serif;-inkscape-font-specification:'sans-serif Bold';font-variant-ligatures:normal;font-variant-caps:normal;font-variant-numeric:normal;font-variant-east-asian:normal;fill:#ffffff;stroke-width:0.264583;fill-opacity:1"
         id="path399"
         inkscape:connector-curvature="0" />
      <path
         d="m 57.342713,95.830584 q 0,0.172255 -0.06029,0.337619 -0.06029,0.163643 -0.172255,0.275608 -0.153307,0.151585 -0.342787,0.229099 -0.187758,0.07752 -0.468533,0.07752 H 55.88716 v 0.835436 h -0.661459 v -2.564875 h 1.088651 q 0.244602,0 0.411689,0.04306 0.16881,0.04134 0.298001,0.125746 0.155029,0.10163 0.235989,0.260105 0.08268,0.158474 0.08268,0.380683 z m -0.683852,0.0155 q 0,-0.108521 -0.05857,-0.186035 -0.05857,-0.07924 -0.136082,-0.110244 -0.103353,-0.04134 -0.201538,-0.04479 -0.09819,-0.0052 -0.261827,-0.0052 H 55.88716 v 0.768256 h 0.18948 q 0.16881,0 0.27733,-0.02067 0.110243,-0.02067 0.184313,-0.08268 0.06373,-0.05512 0.0913,-0.130913 0.02928,-0.07752 0.02928,-0.187758 z"
         style="font-style:normal;font-variant:normal;font-weight:bold;font-stretch:normal;font-size:3.52777999999999992px;font-family:sans-serif;-inkscape-font-specification:'sans-serif Bold';font-variant-ligatures:normal;font-variant-caps:normal;font-variant-numeric:normal;font-variant-east-asian:normal;fill:#ffffff;stroke-width:0.264583;fill-opacity:1"
         id="path401"
         inkscape:connector-curvature="0" />
      <path
         d="m 59.247852,95.806468 q 0,-0.09646 -0.03962,-0.165364 -0.03962,-0.0689 -0.136082,-0.108521 -0.06718,-0.02756 -0.156752,-0.03273 -0.08957,-0.0069 -0.208428,-0.0069 h -0.239434 v 0.690742 h 0.20326 q 0.158475,0 0.265273,-0.0155 0.106798,-0.0155 0.179145,-0.07062 0.0689,-0.0534 0.09991,-0.117133 0.03273,-0.06546 0.03273,-0.173978 z m 1.031807,1.779393 H 59.471784 L 58.772429,96.64535 h -0.304891 v 0.940511 h -0.658014 v -2.564875 h 1.109321 q 0.227377,0 0.391019,0.02584 0.163642,0.02584 0.306614,0.111966 0.144694,0.08613 0.229099,0.223931 0.08613,0.136082 0.08613,0.342787 0,0.284221 -0.132636,0.463366 -0.130914,0.179145 -0.375516,0.298001 z"
         style="font-style:normal;font-variant:normal;font-weight:bold;font-stretch:normal;font-size:3.52777999999999992px;font-family:sans-serif;-inkscape-font-specification:'sans-serif Bold';font-variant-ligatures:normal;font-variant-caps:normal;font-variant-numeric:normal;font-variant-east-asian:normal;fill:#ffffff;stroke-width:0.264583;fill-opacity:1"
         id="path403"
         inkscape:connector-curvature="0" />
    </g>
  </g>
</svg>
