<?xml version="1.0" encoding="UTF-8" standalone="no"?>
<svg
   xmlns:osb="http://www.openswatchbook.org/uri/2009/osb"
   xmlns:dc="http://purl.org/dc/elements/1.1/"
   xmlns:cc="http://creativecommons.org/ns#"
   xmlns:rdf="http://www.w3.org/1999/02/22-rdf-syntax-ns#"
   xmlns:svg="http://www.w3.org/2000/svg"
   xmlns="http://www.w3.org/2000/svg"
   xmlns:xlink="http://www.w3.org/1999/xlink"
   xmlns:sodipodi="http://sodipodi.sourceforge.net/DTD/sodipodi-0.dtd"
   xmlns:inkscape="http://www.inkscape.org/namespaces/inkscape"
   width="10.000074mm"
   height="10.000074mm"
   viewBox="0 0 10.000074 10.000074"
   version="1.1"
   id="svg49872"
   sodipodi:docname="cba_knob_blooper.svg"
   inkscape:version="1.0beta1 (76ce730, 2019-10-19)">
  <sodipodi:namedview
     fit-margin-bottom="0"
     fit-margin-right="0"
     fit-margin-left="0"
     fit-margin-top="0"
     pagecolor="#ffffff"
     bordercolor="#666666"
     borderopacity="1"
     objecttolerance="10"
     gridtolerance="10"
     guidetolerance="10"
     inkscape:pageopacity="0"
     inkscape:pageshadow="2"
     inkscape:window-width="1393"
     inkscape:window-height="855"
     id="namedview19"
     showgrid="false"
     units="mm"
     inkscape:zoom="17.118414"
     inkscape:cx="4.9069967"
     inkscape:cy="18.897778"
     inkscape:window-x="47"
     inkscape:window-y="23"
     inkscape:window-maximized="0"
     inkscape:current-layer="svg49872"
     inkscape:document-rotation="0" />
  <defs
     id="defs49866">
    <linearGradient
       osb:paint="solid"
       id="linearGradient2847">
      <stop
         id="stop2845"
         offset="0"
         style="stop-color:#000000;stop-opacity:1;" />
    </linearGradient>
    <linearGradient
       inkscape:collect="always"
       id="linearGradient842">
      <stop
         style="stop-color:#ffffff;stop-opacity:0.624"
         offset="0"
         id="stop838" />
      <stop
         style="stop-color:#c3c3c3;stop-opacity:0"
         offset="1"
         id="stop840" />
    </linearGradient>
    <clipPath
       id="clip12">
      <path
         inkscape:connector-curvature="0"
         d="m 143,129.75 h 3 V 158 h -3 z m 0,0"
         id="path28860" />
    </clipPath>
    <clipPath
       id="clip11">
      <path
         inkscape:connector-curvature="0"
         d="m 117.39453,129.75 h 54 v 54.00391 h -54 z m 0,0"
         id="path28857" />
    </clipPath>
    <clipPath
       id="clip150">
      <path
         inkscape:connector-curvature="0"
         d="m 176,208.92578 h 2 V 228 h -2 z m 0,0"
         id="path29465" />
    </clipPath>
    <clipPath
       id="clip149">
      <path
         inkscape:connector-curvature="0"
         d="m 159.27734,208.92578 h 36 v 36 h -36 z m 0,0"
         id="path29462" />
    </clipPath>
    <clipPath
       id="clip142">
      <path
         inkscape:connector-curvature="0"
         d="m 110,208.92578 h 3 V 228 h -3 z m 0,0"
         id="path29320" />
    </clipPath>
    <clipPath
       id="clip141">
      <path
         inkscape:connector-curvature="0"
         d="m 93.511719,208.92578 h 36.000001 v 36 H 93.511719 Z m 0,0"
         id="path29317" />
    </clipPath>
    <radialGradient
       inkscape:collect="always"
       xlink:href="#linearGradient842"
       id="radialGradient844"
       cx="5"
       cy="5"
       fx="5"
       fy="5"
       r="4.6089997"
       gradientUnits="userSpaceOnUse"
       gradientTransform="matrix(1.4734744,-0.00117444,0.0012697,1.5929787,-2.3736829,-2.9589841)" />
  </defs>
  <metadata
     id="metadata49869">
    <rdf:RDF>
      <cc:Work
         rdf:about="">
        <dc:format>image/svg+xml</dc:format>
        <dc:type
           rdf:resource="http://purl.org/dc/dcmitype/StillImage" />
        <dc:title></dc:title>
      </cc:Work>
    </rdf:RDF>
  </metadata>
  <path
     id="paath31010907"
     d="M 5.0245787,0.35706644 A 4.6430825,4.6429898 44.8907 0 1 9.6430094,5.02451 4.6430825,4.6429898 44.8907 0 1 4.975818,9.6430094 4.6430825,4.6429898 44.8907 0 1 0.35706343,4.9758859 4.6430825,4.6429898 44.8907 0 1 5.0239352,0.35706307"
     style="opacity:1;fill:#f2f2f2;fill-opacity:1;fill-rule:evenodd;stroke:#000000;stroke-width:0.714;stroke-linecap:butt;stroke-linejoin:round;stroke-miterlimit:4;stroke-dasharray:none;stroke-dashoffset:0;stroke-opacity:1"
     inkscape:connector-curvature="0" />
  <path
     inkscape:connector-curvature="0"
     id="path832"
     d="m 5.0000374,0.73126938 v 4.46265322 0"
     style="fill:none;fill-rule:evenodd;stroke:#fcfcfc;stroke-width:0.651228;stroke-linecap:butt;stroke-linejoin:miter;stroke-miterlimit:4;stroke-dasharray:none;stroke-opacity:1" />
  <path
     inkscape:connector-curvature="0"
     style="opacity:1;fill:#ffffff;fill-opacity:1;fill-rule:nonzero;stroke:url(#radialGradient844);stroke-width:0.318;stroke-linecap:square;stroke-linejoin:round;stroke-miterlimit:6.1;stroke-dasharray:none;stroke-dashoffset:0;stroke-opacity:0.982222"
     d="M 9.4500373,5.0000373 A 4.4499998,4.4499998 0 0 1 5.0000375,9.4500371 4.4499998,4.4499998 0 0 1 0.5500377,5.0000373 4.4499998,4.4499998 0 0 1 5.0000375,0.55003753 4.4499998,4.4499998 0 0 1 9.4500373,5.0000373 Z"
     id="path826" />
  <path
     style="fill:#cccccc;stroke:none;stroke-width:0.0472469"
     d="M 4.4950442,9.2335653 C 3.2157984,9.0538934 2.1113599,8.3611976 1.4335587,7.3134241 0.99328892,6.6328364 0.79542522,6.006792 0.75597754,5.1695434 0.68372171,3.6359669 1.4439392,2.2105274 2.7787988,1.3766693 3.2336427,1.0925381 3.9264936,0.83895655 4.3764747,0.79192419 L 4.6617301,0.76210909 V 2.9894498 5.2167906 H 5.0160829 5.3704356 V 2.9961806 0.77557037 L 5.5003648,0.7759011 C 5.7386155,0.776507 6.4120817,0.96271852 6.7638704,1.1252549 7.8969136,1.6487528 8.7593417,2.6515618 9.1042848,3.8466263 9.2499501,4.3512899 9.2844608,5.2973901 9.1768074,5.8348472 8.8951452,7.2410473 7.8897195,8.4339834 6.5343692,8.9700972 5.9385328,9.2057825 5.0836215,9.3162315 4.4950442,9.2335648 Z"
     id="path101"
     inkscape:connector-curvature="0" />
  <path
     style="fill:#808080;stroke-width:0.0472469"
     d="M 4.7089773,2.972557 V 0.77557037 H 5.0160829 5.3231885 V 2.972557 5.1695434 H 5.0160829 4.7089773 Z"
     id="path103"
     inkscape:connector-curvature="0" />
  <path
     style="fill:#4d4d4d;stroke-width:0.0472469"
     d="M 4.7089773,2.972557 V 0.77557037 H 5.0160829 5.3231885 V 2.972557 5.1695434 H 5.0160829 4.7089773 Z"
     id="path105"
     inkscape:connector-curvature="0" />
  <path
     style="fill:#e6e6e6;stroke-width:0.0472469"
     d="M 4.2365072,9.1654246 C 2.163825,8.7053586 0.79071495,7.0429117 0.78809504,4.9903753 0.78669767,3.895639 1.1611826,2.9444035 1.9077521,2.1463154 2.5941236,1.4125794 3.4922832,0.93998296 4.4609304,0.80287588 L 4.6617301,0.77445367 V 2.995622 5.2167906 H 5.0160829 5.3704356 V 2.995622 0.77445367 l 0.2007997,0.030664 C 7.2004887,1.0539193 8.5582655,2.2115445 9.0554935,3.7757563 9.2060282,4.2493173 9.2443433,5.3793543 9.1276494,5.9038715 9.026382,6.3590474 8.7988662,6.9069852 8.5578279,7.276199 8.2865744,7.691697 7.5769704,8.3810707 7.1792392,8.6154855 6.2887792,9.1403053 5.1131429,9.3600087 4.2365072,9.1654246 Z"
     id="path107"
     inkscape:connector-curvature="0" />
  <path
     style="fill:#cccccc;stroke-width:0.0472469"
     d="M 4.4503797,9.1801605 C 4.0242179,9.1180917 3.3627713,8.8814497 2.9137403,8.6304064 2.379852,8.3319209 1.6524149,7.6147165 1.3682667,7.1066715 0.71967745,5.9470221 0.63841197,4.422431 1.164893,3.2912537 1.7541004,2.0253043 2.929574,1.1165959 4.3208807,0.85149425 l 0.3408494,-0.064946 V 3.0016693 5.2167906 H 5.0160829 5.3704356 V 3.0137171 0.81064367 l 0.2480469,0.032209 C 6.5132377,0.95903711 7.5817395,1.5582228 8.1964592,2.2885093 8.7916256,2.9955673 9.0869191,3.695078 9.1400059,4.5236468 9.2080126,5.5850858 9.1104761,6.143049 8.7203299,6.9244204 8.415476,7.5349719 7.663069,8.3144272 7.0380721,8.6671538 6.6614155,8.8797251 5.8824375,9.1235884 5.3940592,9.1818197 4.9182193,9.2385564 4.8505082,9.2384374 4.4503797,9.1801529 Z"
     id="path127"
     inkscape:connector-curvature="0" />
  <path
     inkscape:connector-curvature="0"
     d="M 8.3002975,5.5272486 A 3.4613918,3.3965879 85.820287 0 1 4.439597,8.4266914 3.4613918,3.3965879 85.820287 0 1 1.5808054,4.4869758 3.4613918,3.3965879 85.820287 0 1 5.4378879,1.5825484 3.4613918,3.3965879 85.820287 0 1 8.3015606,5.5185891"
     style="fill:#393939;fill-opacity:0.178363;stroke:#3b1515;stroke-width:0.626531;stroke-miterlimit:4;stroke-dasharray:none;stroke-dashoffset:5.88941;stroke-opacity:0.295322;paint-order:stroke fill markers"
     id="path2340" />
</svg>
