<?xml version="1.0" encoding="UTF-8" standalone="no"?>
<svg
   xmlns:dc="http://purl.org/dc/elements/1.1/"
   xmlns:cc="http://creativecommons.org/ns#"
   xmlns:rdf="http://www.w3.org/1999/02/22-rdf-syntax-ns#"
   xmlns:svg="http://www.w3.org/2000/svg"
   xmlns="http://www.w3.org/2000/svg"
   xmlns:sodipodi="http://sodipodi.sourceforge.net/DTD/sodipodi-0.dtd"
   xmlns:inkscape="http://www.inkscape.org/namespaces/inkscape"
   sodipodi:docname="darkworld_panel.svg"
   inkscape:version="1.0beta1 (76ce730, 2019-10-19)"
   id="svg3705"
   version="1.1"
   viewBox="0 0 60.96 128.5"
   height="128.5mm"
   width="60.959999mm">
  <defs
     id="defs3699">
    <inkscape:perspective
       sodipodi:type="inkscape:persp3d"
       inkscape:vp_x="0 : 64.25 : 1"
       inkscape:vp_y="0 : 1000 : 0"
       inkscape:vp_z="60.96 : 64.25 : 1"
       inkscape:persp3d-origin="30.48 : 42.833333 : 1"
       id="perspective1959" />
    <inkscape:path-effect
       effect="bspline"
       id="path-effect1953"
       is_visible="true"
       weight="33.333333"
       steps="2"
       helper_size="0"
       apply_no_weight="true"
       apply_with_weight="true"
       only_selected="false" />
  </defs>
  <sodipodi:namedview
     inkscape:document-rotation="0"
     inkscape:window-maximized="0"
     inkscape:window-y="23"
     inkscape:window-x="0"
     inkscape:window-height="880"
     inkscape:window-width="1600"
     showgrid="false"
     inkscape:current-layer="layer4"
     inkscape:document-units="mm"
     inkscape:cy="242.83465"
     inkscape:cx="115.2"
     inkscape:zoom="1.3836576"
     inkscape:pageshadow="2"
     inkscape:pageopacity="0.0"
     borderopacity="1.0"
     bordercolor="#666666"
     pagecolor="#ffffff"
     id="base"
     inkscape:snap-bbox="true"
     inkscape:snap-text-baseline="false" />
  <metadata
     id="metadata3702">
    <rdf:RDF>
      <cc:Work
         rdf:about="">
        <dc:format>image/svg+xml</dc:format>
        <dc:type
           rdf:resource="http://purl.org/dc/dcmitype/StillImage" />
        <dc:title />
      </cc:Work>
    </rdf:RDF>
  </metadata>
  <g
     sodipodi:insensitive="true"
     style="mix-blend-mode:normal"
     transform="translate(0,-168.5)"
     id="layer1"
     inkscape:groupmode="layer"
     inkscape:label="background">
    <rect
       y="168.1479"
       x="-0.79375005"
       height="129.38126"
       width="62.706249"
       id="rect3711"
       style="opacity:1;fill:#c4c5c7;fill-opacity:1;stroke-width:0.288951" />
  </g>
  <g
     style="display:inline"
     inkscape:label="text"
     id="layer2"
     inkscape:groupmode="layer"
     sodipodi:insensitive="true">
    <g
       aria-label="W"
       id="text2384"
       style="font-size:1.76389px;line-height:1.25;font-family:sans-serif;-inkscape-font-specification:'sans-serif Normal';stroke-width:0.264583"
       transform="translate(0.79531386,1.1361627)">
      <path
         d="m 46.40601,122.65985 -0.533301,2.0519 h -0.307302 l -0.431326,-1.70326 -0.421679,1.70326 H 44.41199 l -0.542947,-2.0519 h 0.279742 l 0.431325,1.70601 0.424436,-1.70601 h 0.276985 l 0.42857,1.72255 0.428569,-1.72255 z"
         style="font-style:normal;font-variant:normal;font-weight:normal;font-stretch:normal;font-size:2.82222px;font-family:sans-serif;-inkscape-font-specification:'sans-serif Normal';font-variant-ligatures:normal;font-variant-caps:normal;font-variant-numeric:normal;font-variant-east-asian:normal;stroke-width:0.264583"
         id="path2386"
         inkscape:connector-curvature="0" />
    </g>
    <g
       aria-label="EXPR"
       id="text348"
       style="font-style:normal;font-weight:normal;font-size:10.5833px;line-height:1.25;font-family:sans-serif;fill:#000000;fill-opacity:0.997067;stroke:none;stroke-width:0.264583"
       transform="translate(-11.641667,2.6458334)">
      <path
         d="m 51.975251,97.585861 h -1.855185 v -2.564875 h 1.855185 V 95.51708 H 50.77808 v 0.442695 h 1.111044 v 0.496094 H 50.77808 v 0.633898 h 1.197171 z"
         style="font-style:normal;font-variant:normal;font-weight:bold;font-stretch:normal;font-size:3.52778px;font-family:sans-serif;-inkscape-font-specification:'sans-serif Bold';font-variant-ligatures:normal;font-variant-caps:normal;font-variant-numeric:normal;font-variant-east-asian:normal;fill:#000000;fill-opacity:0.997067;stroke-width:0.264583"
         id="path397"
         inkscape:connector-curvature="0" />
      <path
         d="m 54.857075,97.585861 h -0.764811 l -0.552938,-0.844049 -0.563274,0.844049 h -0.730361 l 0.909506,-1.291911 -0.890558,-1.272964 h 0.76309 l 0.53399,0.799263 0.549493,-0.799263 h 0.732083 l -0.895725,1.247125 z"
         style="font-style:normal;font-variant:normal;font-weight:bold;font-stretch:normal;font-size:3.52778px;font-family:sans-serif;-inkscape-font-specification:'sans-serif Bold';font-variant-ligatures:normal;font-variant-caps:normal;font-variant-numeric:normal;font-variant-east-asian:normal;fill:#000000;fill-opacity:0.997067;stroke-width:0.264583"
         id="path399"
         inkscape:connector-curvature="0" />
      <path
         d="m 57.342713,95.830584 q 0,0.172255 -0.06029,0.337619 -0.06029,0.163643 -0.172255,0.275608 -0.153307,0.151585 -0.342787,0.229099 -0.187758,0.07752 -0.468533,0.07752 H 55.88716 v 0.835436 h -0.661459 v -2.564875 h 1.088651 q 0.244602,0 0.411689,0.04306 0.16881,0.04134 0.298001,0.125746 0.155029,0.10163 0.235989,0.260105 0.08268,0.158474 0.08268,0.380683 z m -0.683852,0.0155 q 0,-0.108521 -0.05857,-0.186035 -0.05857,-0.07924 -0.136082,-0.110244 -0.103353,-0.04134 -0.201538,-0.04479 -0.09819,-0.0052 -0.261827,-0.0052 H 55.88716 v 0.768256 h 0.18948 q 0.16881,0 0.27733,-0.02067 0.110243,-0.02067 0.184313,-0.08268 0.06373,-0.05512 0.0913,-0.130913 0.02928,-0.07752 0.02928,-0.187758 z"
         style="font-style:normal;font-variant:normal;font-weight:bold;font-stretch:normal;font-size:3.52778px;font-family:sans-serif;-inkscape-font-specification:'sans-serif Bold';font-variant-ligatures:normal;font-variant-caps:normal;font-variant-numeric:normal;font-variant-east-asian:normal;fill:#000000;fill-opacity:0.997067;stroke-width:0.264583"
         id="path401"
         inkscape:connector-curvature="0" />
      <path
         d="m 59.247852,95.806468 q 0,-0.09646 -0.03962,-0.165364 -0.03962,-0.0689 -0.136082,-0.108521 -0.06718,-0.02756 -0.156752,-0.03273 -0.08957,-0.0069 -0.208428,-0.0069 h -0.239434 v 0.690742 h 0.20326 q 0.158475,0 0.265273,-0.0155 0.106798,-0.0155 0.179145,-0.07062 0.0689,-0.0534 0.09991,-0.117133 0.03273,-0.06546 0.03273,-0.173978 z m 1.031807,1.779393 H 59.471784 L 58.772429,96.64535 h -0.304891 v 0.940511 h -0.658014 v -2.564875 h 1.109321 q 0.227377,0 0.391019,0.02584 0.163642,0.02584 0.306614,0.111966 0.144694,0.08613 0.229099,0.223931 0.08613,0.136082 0.08613,0.342787 0,0.284221 -0.132636,0.463366 -0.130914,0.179145 -0.375516,0.298001 z"
         style="font-style:normal;font-variant:normal;font-weight:bold;font-stretch:normal;font-size:3.52778px;font-family:sans-serif;-inkscape-font-specification:'sans-serif Bold';font-variant-ligatures:normal;font-variant-caps:normal;font-variant-numeric:normal;font-variant-east-asian:normal;fill:#000000;fill-opacity:0.997067;stroke-width:0.264583"
         id="path403"
         inkscape:connector-curvature="0" />
    </g>
    <g
       aria-label="MOD"
       id="text1555"
       style="font-size:1.76389px;line-height:1.25;font-family:sans-serif;-inkscape-font-specification:'sans-serif Normal';stroke-width:0.264583"
       transform="translate(-6.2488962,4.4310353)">
      <path
         d="M 17.868672,59.389111 H 17.69814 v -1.105016 l -0.356568,0.751893 h -0.10163 l -0.353984,-0.751893 v 1.105016 h -0.159336 v -1.282438 h 0.232544 l 0.341926,0.713996 0.330729,-0.713996 h 0.236851 z"
         style="stroke-width:0.264583"
         id="path1834"
         inkscape:connector-curvature="0" />
      <path
         d="m 19.170919,58.253951 q 0.07838,0.08613 0.119717,0.211012 0.0422,0.124885 0.0422,0.283359 0,0.158475 -0.04306,0.284221 -0.0422,0.124885 -0.118856,0.208428 -0.07924,0.08699 -0.187758,0.130914 -0.107659,0.04393 -0.246325,0.04393 -0.13522,0 -0.246324,-0.04479 -0.110243,-0.04479 -0.187758,-0.130053 -0.07752,-0.08527 -0.119717,-0.209289 -0.04134,-0.124024 -0.04134,-0.28336 0,-0.156752 0.04134,-0.280775 0.04134,-0.124885 0.120578,-0.213596 0.07579,-0.08441 0.187758,-0.129191 0.112827,-0.04479 0.245463,-0.04479 0.137804,0 0.247186,0.04565 0.110243,0.04479 0.186896,0.12833 z m -0.0155,0.494371 q 0,-0.249769 -0.111966,-0.384989 -0.111966,-0.136082 -0.305752,-0.136082 -0.19551,0 -0.307475,0.136082 -0.111105,0.13522 -0.111105,0.384989 0,0.252354 0.113689,0.386713 0.113688,0.133497 0.304891,0.133497 0.191203,0 0.30403,-0.133497 0.113688,-0.134359 0.113688,-0.386713 z"
         style="stroke-width:0.264583"
         id="path1836"
         inkscape:connector-curvature="0" />
      <path
         d="m 20.686762,58.749184 q 0,0.174838 -0.07665,0.316949 -0.07579,0.14211 -0.202399,0.220486 -0.08785,0.05426 -0.196371,0.07838 -0.107659,0.02412 -0.28422,0.02412 h -0.32384 v -1.282438 h 0.320395 q 0.187757,0 0.298001,0.02756 0.111104,0.0267 0.187757,0.07407 0.130914,0.08182 0.204122,0.217903 0.07321,0.136081 0.07321,0.322978 z m -0.178284,-0.0026 q 0,-0.150723 -0.05254,-0.254076 -0.05254,-0.103353 -0.156752,-0.162781 -0.07579,-0.04306 -0.161058,-0.05943 -0.08527,-0.01722 -0.204122,-0.01722 h -0.160197 v 0.989604 h 0.160197 q 0.123162,0 0.214457,-0.01809 0.09216,-0.01809 0.16881,-0.06718 0.0956,-0.06115 0.142972,-0.161059 0.04823,-0.09991 0.04823,-0.249769 z"
         style="stroke-width:0.264583"
         id="path1838"
         inkscape:connector-curvature="0" />
    </g>
    <g
       aria-label="SHIM"
       id="text1567"
       style="font-size:1.76389px;line-height:1.25;font-family:sans-serif;-inkscape-font-specification:'sans-serif Normal';stroke-width:0.264583"
       transform="translate(-6.2488962,4.4310353)">
      <path
         d="m 17.620971,62.008989 q 0,0.07493 -0.03531,0.148139 -0.03445,0.07321 -0.09732,0.124024 -0.0689,0.05512 -0.161059,0.08613 -0.0913,0.03101 -0.220486,0.03101 -0.138665,0 -0.24977,-0.02584 -0.110243,-0.02584 -0.224792,-0.07665 v -0.213596 h 0.01206 q 0.09732,0.08096 0.224792,0.124885 0.127469,0.04393 0.239435,0.04393 0.158474,0 0.246324,-0.05943 0.08871,-0.05943 0.08871,-0.158474 0,-0.08527 -0.0422,-0.125746 -0.04134,-0.04048 -0.126607,-0.06287 -0.0646,-0.01722 -0.140388,-0.02842 -0.07493,-0.0112 -0.159336,-0.02842 -0.170532,-0.03617 -0.253215,-0.123162 -0.08182,-0.08785 -0.08182,-0.228238 0,-0.161058 0.136082,-0.26355 0.136081,-0.103353 0.345371,-0.103353 0.13522,0 0.248047,0.02584 0.112827,0.02584 0.199815,0.06373 v 0.201538 h -0.01206 q -0.07321,-0.06201 -0.192926,-0.102491 -0.118856,-0.04134 -0.243741,-0.04134 -0.136942,0 -0.220486,0.05684 -0.08268,0.05684 -0.08268,0.146416 0,0.0801 0.04134,0.125746 0.04134,0.04565 0.145555,0.06976 0.05512,0.01206 0.156752,0.02928 0.101631,0.01723 0.172255,0.03531 0.142972,0.0379 0.215319,0.11455 0.07235,0.07665 0.07235,0.214457 z"
         style="stroke-width:0.264583"
         id="path1841"
         inkscape:connector-curvature="0" />
      <path
         d="m 18.875848,62.375031 h -0.170533 v -0.62787 h -0.639926 v 0.62787 h -0.170533 v -1.282438 h 0.170533 v 0.502984 h 0.639926 v -0.502984 h 0.170533 z"
         style="stroke-width:0.264583"
         id="path1843"
         inkscape:connector-curvature="0" />
      <path
         d="m 19.673388,62.375031 h -0.506429 v -0.130914 h 0.167948 v -1.02061 h -0.167948 v -0.130914 h 0.506429 v 0.130914 h -0.167949 v 1.02061 h 0.167949 z"
         style="stroke-width:0.264583"
         id="path1845"
         inkscape:connector-curvature="0" />
      <path
         d="m 21.10741,62.375031 h -0.170532 v -1.105016 l -0.356568,0.751893 h -0.10163 l -0.353984,-0.751893 v 1.105016 H 19.96536 v -1.282438 h 0.232544 l 0.341926,0.713996 0.330729,-0.713996 h 0.236851 z"
         style="stroke-width:0.264583"
         id="path1847"
         inkscape:connector-curvature="0" />
    </g>
    <g
       aria-label="BLACK"
       id="text1575"
       style="font-size:1.76389px;line-height:1.25;font-family:sans-serif;-inkscape-font-specification:'sans-serif Normal';stroke-width:0.264583"
       transform="translate(-6.2488962,4.4310353)">
      <path
         d="m 17.61303,64.999762 q 0,0.0956 -0.03617,0.16881 -0.03617,0.07321 -0.09732,0.120579 -0.07235,0.05684 -0.159336,0.08096 -0.08613,0.02412 -0.219625,0.02412 h -0.454753 v -1.282438 h 0.379822 q 0.140388,0 0.210151,0.01034 0.06976,0.01033 0.133498,0.04306 0.07062,0.03704 0.102491,0.0956 0.03187,0.0577 0.03187,0.138665 0,0.09129 -0.04651,0.155891 -0.04651,0.06373 -0.124024,0.102491 v 0.0069 q 0.130052,0.0267 0.204983,0.114549 0.07493,0.08699 0.07493,0.220486 z m -0.286804,-0.577915 q 0,-0.04651 -0.0155,-0.07838 -0.0155,-0.03187 -0.04995,-0.05168 -0.04048,-0.02325 -0.09819,-0.02842 -0.05771,-0.006 -0.142972,-0.006 h -0.203261 v 0.370348 h 0.220487 q 0.0801,0 0.127468,-0.0078 0.04737,-0.0086 0.08785,-0.03445 0.04048,-0.02584 0.05684,-0.06632 0.01723,-0.04134 0.01723,-0.09732 z m 0.109382,0.584806 q 0,-0.07752 -0.02325,-0.123163 -0.02325,-0.04565 -0.08441,-0.07751 -0.04134,-0.02153 -0.100769,-0.02756 -0.05857,-0.0069 -0.142971,-0.0069 h -0.267857 v 0.477146 h 0.225654 q 0.111966,0 0.183452,-0.0112 0.07149,-0.01206 0.117133,-0.04306 0.04823,-0.03359 0.07062,-0.07665 0.02239,-0.04306 0.02239,-0.111104 z"
         style="stroke-width:0.264583"
         id="path1850"
         inkscape:connector-curvature="0" />
      <path
         d="m 18.666369,65.394226 h -0.811321 v -1.282438 h 0.170533 v 1.130854 h 0.640788 z"
         style="stroke-width:0.264583"
         id="path1852"
         inkscape:connector-curvature="0" />
      <path
         d="m 19.848037,65.394226 h -0.181728 l -0.125747,-0.357429 h -0.55466 l -0.125746,0.357429 H 18.68704 l 0.46681,-1.282438 h 0.227377 z m -0.360012,-0.503845 -0.224793,-0.629592 -0.225654,0.629592 z"
         style="stroke-width:0.264583"
         id="path1854"
         inkscape:connector-curvature="0" />
      <path
         d="m 21.033151,65.301208 q -0.04737,0.02067 -0.08613,0.03876 -0.0379,0.01809 -0.09991,0.0379 -0.05254,0.01636 -0.11455,0.02756 -0.06115,0.01206 -0.13522,0.01206 -0.139526,0 -0.254076,-0.03876 -0.113688,-0.03962 -0.198093,-0.123162 -0.08268,-0.08182 -0.129191,-0.207567 -0.04651,-0.126608 -0.04651,-0.293695 0,-0.158474 0.04479,-0.283359 0.04479,-0.124885 0.129191,-0.211012 0.08182,-0.08354 0.197232,-0.127469 0.116272,-0.04393 0.257521,-0.04393 0.103353,0 0.205845,0.02498 0.103353,0.02498 0.229099,0.08785 v 0.202399 h -0.01292 q -0.105937,-0.08871 -0.210151,-0.129191 -0.104214,-0.04048 -0.22307,-0.04048 -0.09732,0 -0.1757,0.03187 -0.07752,0.031 -0.138665,0.09732 -0.05943,0.06459 -0.09302,0.163642 -0.03273,0.09819 -0.03273,0.227376 0,0.13522 0.03617,0.232544 0.03703,0.09732 0.09474,0.158475 0.06029,0.06373 0.140388,0.09474 0.08096,0.03014 0.170532,0.03014 0.123163,0 0.230822,-0.0422 0.107659,-0.0422 0.201538,-0.126607 h 0.01206 z"
         style="stroke-width:0.264583"
         id="path1856"
         inkscape:connector-curvature="0" />
      <path
         d="m 22.306976,65.394226 h -0.221348 l -0.50729,-0.571025 -0.127469,0.136081 v 0.434944 h -0.170532 v -1.282438 h 0.170532 v 0.669211 l 0.622702,-0.669211 h 0.206705 l -0.572747,0.602893 z"
         style="stroke-width:0.264583"
         id="path1858"
         inkscape:connector-curvature="0" />
    </g>
    <g
       aria-label="PARA"
       id="text1579"
       style="font-size:1.76389px;line-height:1.25;font-family:sans-serif;-inkscape-font-specification:'sans-serif Normal';stroke-width:0.264583"
       transform="translate(-3.6323676,4.7718842)">
      <path
         d="m 35.204209,58.213321 q 0,0.08527 -0.03014,0.158474 -0.02928,0.07235 -0.08268,0.125746 -0.06632,0.06632 -0.156752,0.09991 -0.09043,0.03273 -0.228238,0.03273 H 34.53586 v 0.478007 H 34.365328 V 57.82575 h 0.347955 q 0.115411,0 0.195509,0.01981 0.0801,0.01895 0.142111,0.06029 0.07321,0.04909 0.112827,0.122301 0.04048,0.07321 0.04048,0.185174 z m -0.177422,0.0043 q 0,-0.06632 -0.02325,-0.115411 -0.02325,-0.04909 -0.07062,-0.0801 -0.04134,-0.0267 -0.09474,-0.0379 -0.05254,-0.01206 -0.133498,-0.01206 h -0.16881 v 0.512458 h 0.143833 q 0.103353,0 0.167949,-0.01809 0.06459,-0.01895 0.105075,-0.05943 0.04048,-0.04134 0.05684,-0.08699 0.01723,-0.04565 0.01723,-0.102492 z"
         style="stroke-width:0.264583"
         id="path1809"
         inkscape:connector-curvature="0" />
      <path
         d="m 36.440999,59.108185 h -0.181728 l -0.125746,-0.357429 h -0.554661 l -0.125746,0.357429 h -0.173116 l 0.46681,-1.282438 h 0.227377 z m -0.360012,-0.503846 -0.224793,-0.629591 -0.225654,0.629591 z"
         style="stroke-width:0.264583"
         id="path1811"
         inkscape:connector-curvature="0" />
      <path
         d="M 37.696738,59.108185 H 37.47539 L 37.046476,58.59831 H 36.80618 v 0.509875 h -0.170532 v -1.282438 h 0.359151 q 0.116272,0 0.193787,0.0155 0.07751,0.01464 0.139526,0.0534 0.06976,0.04393 0.108521,0.111105 0.03962,0.06632 0.03962,0.168809 0,0.138666 -0.06976,0.232544 -0.06976,0.09302 -0.192064,0.140388 z m -0.39877,-0.921564 q 0,-0.05512 -0.01981,-0.09732 -0.01895,-0.04306 -0.06373,-0.07235 -0.03704,-0.02498 -0.08785,-0.03445 -0.05082,-0.01033 -0.119717,-0.01033 H 36.80618 V 58.4562 h 0.172255 q 0.08096,0 0.141249,-0.01378 0.06029,-0.01464 0.102492,-0.0534 0.03876,-0.03617 0.05684,-0.08268 0.01895,-0.04737 0.01895,-0.119717 z"
         style="stroke-width:0.264583"
         id="path1813"
         inkscape:connector-curvature="0" />
      <path
         d="M 38.873239,59.108185 H 38.69151 l -0.125746,-0.357429 h -0.554661 l -0.125746,0.357429 h -0.173116 l 0.46681,-1.282438 h 0.227377 z m -0.360013,-0.503846 -0.224793,-0.629591 -0.225654,0.629591 z"
         style="stroke-width:0.264583"
         id="path1815"
         inkscape:connector-curvature="0" />
    </g>
    <g
       aria-label="→"
       transform="matrix(0.66165333,0,0,1.5113655,-3.6323676,4.9991169)"
       id="text1611"
       style="font-size:2.98136px;line-height:1.25;font-family:sans-serif;-inkscape-font-specification:'sans-serif Normal';stroke-width:0.447203">
      <path
         d="m 56.429401,39.890099 q 0.193614,0.211082 0.334821,0.321719 0.141207,0.109181 0.2664,0.163043 v 0.06551 q -0.144118,0.06988 -0.279502,0.179057 -0.135384,0.107725 -0.323175,0.317351 h -0.112092 q 0.13684,-0.292604 0.286781,-0.449824 h -2.321908 v -0.14703 h 2.321908 q -0.110636,-0.141207 -0.154308,-0.209627 -0.04367,-0.06842 -0.129561,-0.240197 z"
         style="stroke-width:0.447203"
         id="path1818"
         inkscape:connector-curvature="0" />
    </g>
    <g
       aria-label="D    W"
       id="text1615"
       style="font-size:1.76389px;line-height:1.25;font-family:sans-serif;-inkscape-font-specification:'sans-serif Normal';stroke-width:0.264583"
       transform="translate(-3.6323676,4.9991169)">
      <path
         d="m 35.369901,61.126949 q 0,0.174839 -0.07665,0.316949 -0.07579,0.142111 -0.202399,0.220487 -0.08785,0.05426 -0.196371,0.07838 -0.107659,0.02412 -0.28422,0.02412 h -0.32384 v -1.282437 h 0.320394 q 0.187758,0 0.298001,0.02756 0.111105,0.0267 0.187758,0.07407 0.130914,0.08182 0.204122,0.217902 0.07321,0.136082 0.07321,0.322978 z m -0.178284,-0.0026 q 0,-0.150723 -0.05254,-0.254075 -0.05254,-0.103353 -0.156752,-0.162781 -0.07579,-0.04306 -0.161058,-0.05943 -0.08527,-0.01723 -0.204122,-0.01723 H 34.45695 v 0.989605 h 0.160197 q 0.123162,0 0.214457,-0.01809 0.09216,-0.01809 0.16881,-0.06718 0.0956,-0.06115 0.142971,-0.161058 0.04823,-0.09991 0.04823,-0.24977 z"
         style="stroke-width:0.264583"
         id="path1821"
         inkscape:connector-curvature="0" />
      <path
         d="m 39.62029,60.484439 -0.333313,1.282437 h -0.192064 l -0.269579,-1.064535 -0.26355,1.064535 h -0.187758 l -0.339342,-1.282437 h 0.174838 l 0.269579,1.066257 0.265273,-1.066257 h 0.173116 l 0.267856,1.076593 0.267857,-1.076593 z"
         style="stroke-width:0.264583"
         id="path1823"
         inkscape:connector-curvature="0" />
    </g>
    <g
       aria-label="W    D"
       id="text1615-3"
       style="font-size:1.76389px;line-height:1.25;font-family:sans-serif;-inkscape-font-specification:'sans-serif Normal';stroke-width:0.264583"
       transform="translate(-3.6323676,5.2263495)">
      <path
         d="m 35.682502,63.151721 -0.333314,1.282437 h -0.192064 l -0.269579,-1.064535 -0.26355,1.064535 h -0.187757 l -0.339343,-1.282437 h 0.174839 l 0.269579,1.066257 0.265273,-1.066257 h 0.173116 l 0.267856,1.076593 0.267856,-1.076593 z"
         style="stroke-width:0.264583"
         id="path1826"
         inkscape:connector-curvature="0" />
      <path
         d="m 39.497086,63.794231 q 0,0.174839 -0.07665,0.316949 -0.07579,0.142111 -0.2024,0.220487 -0.08785,0.05426 -0.19637,0.07838 -0.107659,0.02411 -0.284221,0.02411 H 38.413606 V 63.15172 H 38.734 q 0.187758,0 0.298001,0.02756 0.111105,0.0267 0.187758,0.07407 0.130914,0.08182 0.204122,0.217903 0.07321,0.136081 0.07321,0.322977 z m -0.178283,-0.0026 q 0,-0.150723 -0.05254,-0.254076 -0.05254,-0.103353 -0.156752,-0.162781 -0.07579,-0.04306 -0.161058,-0.05943 -0.08527,-0.01723 -0.204122,-0.01723 h -0.160198 v 0.989605 h 0.160198 q 0.123162,0 0.214457,-0.01809 0.09216,-0.01809 0.16881,-0.06718 0.0956,-0.06115 0.142971,-0.161059 0.04823,-0.09991 0.04823,-0.249769 z"
         style="stroke-width:0.264583"
         id="path1828"
         inkscape:connector-curvature="0" />
    </g>
    <g
       aria-label="HALL"
       id="text1643"
       style="font-size:1.76389px;line-height:1.25;font-family:sans-serif;-inkscape-font-specification:'sans-serif Normal';stroke-width:0.264583"
       transform="translate(1.5906279,4.7718842)">
      <path
         d="m 49.777033,59.100811 h -0.170532 v -0.627869 h -0.639927 v 0.627869 h -0.170532 v -1.282438 h 0.170532 v 0.502985 h 0.639927 v -0.502985 h 0.170532 z"
         style="stroke-width:0.264583"
         id="path1861"
         inkscape:connector-curvature="0" />
      <path
         d="m 51.133541,59.100811 h -0.181729 l -0.125746,-0.357429 h -0.554661 l -0.125746,0.357429 h -0.173116 l 0.46681,-1.282438 h 0.227377 z m -0.360013,-0.503846 -0.224793,-0.629591 -0.225654,0.629591 z"
         style="stroke-width:0.264583"
         id="path1863"
         inkscape:connector-curvature="0" />
      <path
         d="m 52.139509,59.100811 h -0.81132 v -1.282438 h 0.170532 v 1.130854 h 0.640788 z"
         style="stroke-width:0.264583"
         id="path1865"
         inkscape:connector-curvature="0" />
      <path
         d="m 53.121362,59.100811 h -0.81132 v -1.282438 h 0.170532 v 1.130854 h 0.640788 z"
         style="stroke-width:0.264583"
         id="path1867"
         inkscape:connector-curvature="0" />
    </g>
    <g
       aria-label="PLATE"
       id="text1647"
       style="font-size:1.76389px;line-height:1.25;font-family:sans-serif;-inkscape-font-specification:'sans-serif Normal';stroke-width:0.264583"
       transform="translate(1.5906279,4.8855006)">
      <path
         d="m 49.683351,60.949817 q 0,0.08527 -0.03015,0.158474 -0.02928,0.07235 -0.08268,0.125746 -0.06632,0.06632 -0.156752,0.09991 -0.09043,0.03273 -0.228238,0.03273 h -0.170532 v 0.478008 h -0.170533 v -1.282438 h 0.347955 q 0.115411,0 0.19551,0.01981 0.0801,0.01895 0.14211,0.06029 0.07321,0.04909 0.112827,0.122301 0.04048,0.07321 0.04048,0.185174 z m -0.177423,0.0043 q 0,-0.06632 -0.02325,-0.115411 -0.02326,-0.04909 -0.07062,-0.0801 -0.04134,-0.0267 -0.09474,-0.0379 -0.05254,-0.01206 -0.133497,-0.01206 h -0.16881 v 0.512458 h 0.143833 q 0.103352,0 0.167948,-0.01809 0.0646,-0.01895 0.105076,-0.05943 0.04048,-0.04134 0.05684,-0.08699 0.01722,-0.04565 0.01722,-0.102492 z"
         style="stroke-width:0.264583"
         id="path1870"
         inkscape:connector-curvature="0" />
      <path
         d="m 50.720325,61.844681 h -0.81132 v -1.282438 h 0.170532 v 1.130853 h 0.640788 z"
         style="stroke-width:0.264583"
         id="path1872"
         inkscape:connector-curvature="0" />
      <path
         d="m 51.901993,61.844681 h -0.181728 l -0.125746,-0.357429 h -0.554661 l -0.125746,0.357429 h -0.173116 l 0.46681,-1.282438 h 0.227377 z m -0.360012,-0.503846 -0.224793,-0.629591 -0.225654,0.629591 z"
         style="stroke-width:0.264583"
         id="path1874"
         inkscape:connector-curvature="0" />
      <path
         d="m 53.011315,60.713827 h -0.458198 v 1.130854 h -0.170532 v -1.130854 h -0.458198 v -0.151584 h 1.086928 z"
         style="stroke-width:0.264583"
         id="path1876"
         inkscape:connector-curvature="0" />
      <path
         d="m 54.030203,61.844681 h -0.84491 v -1.282438 h 0.84491 v 0.151584 h -0.674378 v 0.3514 h 0.674378 v 0.151585 h -0.674378 v 0.476284 h 0.674378 z"
         style="stroke-width:0.264583"
         id="path1878"
         inkscape:connector-curvature="0" />
    </g>
    <g
       aria-label="SPRING"
       id="text1651"
       style="font-size:1.76389px;line-height:1.25;font-family:sans-serif;-inkscape-font-specification:'sans-serif Normal';stroke-width:0.264583"
       transform="translate(1.5906279,4.8855006)">
      <path
         d="m 49.680692,64.315149 q 0,0.07493 -0.03531,0.148139 -0.03445,0.07321 -0.09732,0.124024 -0.0689,0.05512 -0.161059,0.08613 -0.0913,0.03101 -0.220486,0.03101 -0.138665,0 -0.24977,-0.02584 -0.110243,-0.02584 -0.224792,-0.07665 v -0.213596 h 0.01206 q 0.09732,0.08096 0.224792,0.124885 0.127469,0.04393 0.239435,0.04393 0.158474,0 0.246324,-0.05943 0.08871,-0.05943 0.08871,-0.158474 0,-0.08527 -0.0422,-0.125747 -0.04134,-0.04048 -0.126607,-0.06287 -0.0646,-0.01722 -0.140388,-0.02842 -0.07493,-0.0112 -0.159336,-0.02842 -0.170532,-0.03617 -0.253215,-0.123162 -0.08182,-0.08785 -0.08182,-0.228238 0,-0.161058 0.136082,-0.26355 0.136081,-0.103353 0.345371,-0.103353 0.13522,0 0.248047,0.02584 0.112827,0.02584 0.199815,0.06373 v 0.201538 h -0.01206 q -0.07321,-0.06201 -0.192926,-0.102491 -0.118856,-0.04134 -0.243741,-0.04134 -0.136942,0 -0.220486,0.05684 -0.08268,0.05685 -0.08268,0.146417 0,0.0801 0.04134,0.125746 0.04134,0.04565 0.145555,0.06976 0.05512,0.01206 0.156752,0.02928 0.101631,0.01722 0.172255,0.03531 0.142972,0.0379 0.215319,0.11455 0.07235,0.07665 0.07235,0.214457 z"
         style="stroke-width:0.264583"
         id="path1881"
         inkscape:connector-curvature="0" />
      <path
         d="m 50.793458,63.786326 q 0,0.08527 -0.03014,0.158475 -0.02928,0.07235 -0.08268,0.125746 -0.06632,0.06632 -0.156752,0.09991 -0.09043,0.03273 -0.228238,0.03273 H 50.12511 v 0.478007 h -0.170533 v -1.282437 h 0.347955 q 0.115411,0 0.195509,0.01981 0.0801,0.01895 0.142111,0.06029 0.07321,0.04909 0.112827,0.122301 0.04048,0.07321 0.04048,0.185174 z m -0.177422,0.0043 q 0,-0.06632 -0.02325,-0.115411 -0.02325,-0.04909 -0.07062,-0.0801 -0.04134,-0.0267 -0.09474,-0.0379 -0.05254,-0.01206 -0.133498,-0.01206 H 50.12511 v 0.512458 h 0.143832 q 0.103353,0 0.167949,-0.01809 0.06459,-0.01895 0.105075,-0.05943 0.04048,-0.04134 0.05684,-0.08699 0.01723,-0.04565 0.01723,-0.102491 z"
         style="stroke-width:0.264583"
         id="path1883"
         inkscape:connector-curvature="0" />
      <path
         d="M 52.080203,64.68119 H 51.858855 L 51.42994,64.171316 h -0.240295 v 0.509874 h -0.170533 v -1.282437 h 0.359152 q 0.116272,0 0.193787,0.0155 0.07751,0.01464 0.139526,0.0534 0.06976,0.04393 0.108521,0.111104 0.03962,0.06632 0.03962,0.16881 0,0.138665 -0.06976,0.232544 -0.06976,0.09302 -0.192064,0.140388 z m -0.398771,-0.921563 q 0,-0.05512 -0.01981,-0.09732 -0.01895,-0.04306 -0.06373,-0.07235 -0.03704,-0.02498 -0.08785,-0.03445 -0.05082,-0.01033 -0.119717,-0.01033 h -0.200677 v 0.484036 H 51.3619 q 0.08096,0 0.141249,-0.01378 0.06029,-0.01464 0.102491,-0.0534 0.03876,-0.03617 0.05684,-0.08268 0.01895,-0.04737 0.01895,-0.119717 z"
         style="stroke-width:0.264583"
         id="path1885"
         inkscape:connector-curvature="0" />
      <path
         d="m 52.697736,64.68119 h -0.506429 v -0.130913 h 0.167948 v -1.02061 h -0.167948 v -0.130914 h 0.506429 v 0.130914 h -0.167948 v 1.02061 h 0.167948 z"
         style="stroke-width:0.264583"
         id="path1887"
         inkscape:connector-curvature="0" />
      <path
         d="m 53.968116,64.68119 h -0.211012 l -0.60806,-1.147217 v 1.147217 h -0.159336 v -1.282437 h 0.264412 l 0.55466,1.04731 v -1.04731 h 0.159336 z"
         style="stroke-width:0.264583"
         id="path1889"
         inkscape:connector-curvature="0" />
      <path
         d="m 55.378883,64.58645 q -0.105075,0.04823 -0.22996,0.08441 -0.124023,0.03531 -0.240295,0.03531 -0.149862,0 -0.274747,-0.04134 -0.124885,-0.04134 -0.212735,-0.124023 -0.08871,-0.08354 -0.136942,-0.208429 -0.04823,-0.125746 -0.04823,-0.293694 0,-0.307475 0.179145,-0.484898 0.180007,-0.178284 0.493511,-0.178284 0.109381,0 0.22307,0.0267 0.114549,0.02584 0.246324,0.08871 v 0.2024 h -0.0155 q -0.0267,-0.02067 -0.07751,-0.05426 -0.05082,-0.03359 -0.09991,-0.05598 -0.05943,-0.0267 -0.13522,-0.04393 -0.07493,-0.01809 -0.170533,-0.01809 -0.215318,0 -0.341064,0.138665 -0.124885,0.137804 -0.124885,0.373793 0,0.248908 0.130914,0.387574 0.130913,0.137804 0.356567,0.137804 0.08268,0 0.164504,-0.01637 0.08268,-0.01636 0.144694,-0.0422 v -0.314365 h -0.343649 v -0.149862 h 0.512458 z"
         style="stroke-width:0.264583"
         id="path1891"
         inkscape:connector-curvature="0" />
    </g>
    <g
       aria-label="→"
       transform="matrix(0.66165333,0,0,1.5113655,-3.6323676,5.2263495)"
       id="text1611-1"
       style="font-size:2.98135px;line-height:1.25;font-family:sans-serif;-inkscape-font-specification:'sans-serif Normal';stroke-width:0.447204">
      <path
         d="m 56.506851,41.640553 q 0.193613,0.211082 0.334819,0.321718 0.141207,0.10918 0.2664,0.163043 v 0.06551 q -0.144118,0.06988 -0.279501,0.179056 -0.135384,0.107724 -0.323174,0.31735 h -0.112092 q 0.13684,-0.292603 0.286781,-0.449822 h -2.321901 v -0.14703 h 2.321901 q -0.110637,-0.141206 -0.154309,-0.209626 -0.04367,-0.06842 -0.12956,-0.240197 z"
         style="stroke-width:0.447204"
         id="path1831"
         inkscape:connector-curvature="0" />
    </g>
    <g
       aria-label="D"
       id="text2380"
       style="font-size:1.76389px;line-height:1.25;font-family:sans-serif;-inkscape-font-specification:'sans-serif Normal';stroke-width:0.264583"
       transform="translate(-0.90893013,0.90893016)">
      <path
         d="m 17.006525,123.95401 q 0,0.27974 -0.122645,0.50712 -0.121268,0.22737 -0.323839,0.35277 -0.14056,0.0868 -0.314192,0.1254 -0.172255,0.0386 -0.454753,0.0386 h -0.518142 v -2.0519 h 0.51263 q 0.300412,0 0.476801,0.0441 0.177767,0.0427 0.300412,0.11851 0.209462,0.13091 0.326595,0.34864 0.117133,0.21773 0.117133,0.51677 z m -0.285254,-0.004 q 0,-0.24115 -0.08406,-0.40652 -0.08406,-0.16536 -0.250803,-0.26045 -0.121267,-0.0689 -0.257693,-0.0951 -0.136425,-0.0276 -0.326594,-0.0276 h -0.256315 v 1.58336 h 0.256315 q 0.197059,0 0.343131,-0.0289 0.14745,-0.0289 0.270095,-0.10748 0.152962,-0.0978 0.228754,-0.25769 0.07717,-0.15986 0.07717,-0.39964 z"
         style="font-style:normal;font-variant:normal;font-weight:normal;font-stretch:normal;font-size:2.82222px;font-family:sans-serif;-inkscape-font-specification:'sans-serif Normal';font-variant-ligatures:normal;font-variant-caps:normal;font-variant-numeric:normal;font-variant-east-asian:normal;stroke-width:0.264583"
         id="path2389"
         inkscape:connector-curvature="0" />
    </g>
  </g>
  <text
     xml:space="preserve"
     style="font-size:1.76389px;line-height:1.25;font-family:sans-serif;-inkscape-font-specification:'sans-serif Normal';stroke-width:0.264583"
     x="24.066454"
     y="91.837585"
     id="text1599"><tspan
       sodipodi:role="line"
       id="tspan1597"
       x="24.066454"
       y="91.837585"
       style="stroke-width:0.264583" /></text>
  <g
     inkscape:groupmode="layer"
     id="layer4"
     inkscape:label="Knob Half Circles and Lines"
     sodipodi:insensitive="true">
    <path
       sodipodi:nodetypes="cc"
       inkscape:connector-curvature="0"
       id="path1955-3"
       d="m 49.899834,34.565816 c -2.800054,0.01802 -5.479329,2.012606 -5.594923,5.539509"
       style="fill:none;stroke:#0d8894;stroke-width:0.204019;stroke-linecap:butt;stroke-linejoin:miter;stroke-miterlimit:4;stroke-dasharray:none;stroke-opacity:1" />
    <path
       style="fill:none;stroke:#0d8894;stroke-width:0.204019;stroke-linecap:butt;stroke-linejoin:miter;stroke-miterlimit:4;stroke-dasharray:none;stroke-opacity:1"
       d="m 50.076789,6.512685 c -2.800054,0.01802 -5.479329,2.012606 -5.594923,5.539509"
       id="path1955-3-7"
       inkscape:connector-curvature="0"
       sodipodi:nodetypes="cc" />
    <path
       style="fill:none;stroke:#0d8894;stroke-width:0.204019;stroke-linecap:butt;stroke-linejoin:miter;stroke-miterlimit:4;stroke-dasharray:none;stroke-opacity:1"
       d="m 44.304911,40.105325 c 0.01802,2.800054 2.012606,5.479329 5.539509,5.594923"
       id="path1955-3-9"
       inkscape:connector-curvature="0"
       sodipodi:nodetypes="cc" />
    <path
       sodipodi:nodetypes="cc"
       inkscape:connector-curvature="0"
       id="path1955-3-7-3"
       d="m 44.481866,12.052194 c 0.01802,2.800054 2.012606,5.479329 5.539509,5.594923"
       style="fill:none;stroke:#0d8894;stroke-width:0.204019;stroke-linecap:butt;stroke-linejoin:miter;stroke-miterlimit:4;stroke-dasharray:none;stroke-opacity:1" />
    <path
       style="fill:none;stroke:#0d8894;stroke-width:0.264583px;stroke-linecap:butt;stroke-linejoin:miter;stroke-opacity:1"
       d="m 44.30491,40.105324 -1.323634,0.0038"
       id="path2035"
       inkscape:connector-curvature="0" />
    <path
       inkscape:connector-curvature="0"
       id="path1894-2"
       d="m 15.900593,66.058777 h 1.259796 V 12.089295 h -1.488848"
       style="fill:none;stroke:#000000;stroke-width:0.248456px;stroke-linecap:butt;stroke-linejoin:miter;stroke-opacity:1" />
    <path
       style="fill:none;stroke:#000000;stroke-width:0.204019;stroke-linecap:butt;stroke-linejoin:miter;stroke-miterlimit:4;stroke-dasharray:none;stroke-opacity:1"
       d="m 10.253573,34.602917 c 2.800054,0.01802 5.479329,2.012606 5.594923,5.53951"
       id="path1955-3-8"
       inkscape:connector-curvature="0"
       sodipodi:nodetypes="cc" />
    <path
       sodipodi:nodetypes="cc"
       inkscape:connector-curvature="0"
       id="path1955-3-7-2"
       d="m 10.076618,6.5497853 c 2.800054,0.01802 5.479329,2.012606 5.594923,5.5395097"
       style="fill:none;stroke:#000000;stroke-width:0.204019;stroke-linecap:butt;stroke-linejoin:miter;stroke-miterlimit:4;stroke-dasharray:none;stroke-opacity:1" />
    <path
       sodipodi:nodetypes="cc"
       inkscape:connector-curvature="0"
       id="path1955-3-9-3"
       d="m 15.848496,40.142427 c -0.01802,2.800053 -2.012606,5.479327 -5.539509,5.594924"
       style="fill:none;stroke:#000000;stroke-width:0.204019;stroke-linecap:butt;stroke-linejoin:miter;stroke-miterlimit:4;stroke-dasharray:none;stroke-opacity:1" />
    <path
       style="fill:none;stroke:#000000;stroke-width:0.204019;stroke-linecap:butt;stroke-linejoin:miter;stroke-miterlimit:4;stroke-dasharray:none;stroke-opacity:1"
       d="m 15.671541,12.089295 c -0.01802,2.800054 -2.012606,5.479329 -5.539509,5.594924"
       id="path1955-3-7-3-1"
       inkscape:connector-curvature="0"
       sodipodi:nodetypes="cc" />
    <path
       inkscape:connector-curvature="0"
       id="path2035-2"
       d="m 15.848497,40.142427 1.323634,0.0038"
       style="fill:none;stroke:#000000;stroke-width:0.264583px;stroke-linecap:butt;stroke-linejoin:miter;stroke-opacity:1" />
    <path
       style="fill:none;stroke:#0d8894;stroke-width:0.248456px;stroke-linecap:butt;stroke-linejoin:miter;stroke-opacity:1"
       d="m 44.252814,66.021674 h -1.259796 v -53.96948 h 1.488848"
       id="path1894"
       inkscape:connector-curvature="0" />
    <g
       id="g2332"
       transform="translate(12.043324,164.62997)">
      <path
         style="fill:#9fa5a5;stroke-width:0.0471416"
         d="M 23.570356,8.0099466 V 5.2716088 h 7.049228 7.049228 v 2.7383378 2.7383374 h -7.049228 -7.049228 z"
         id="path2348"
         inkscape:connector-curvature="0" />
      <path
         style="fill:#61969a;stroke-width:0.0471416"
         d="M 23.570356,8.0099466 V 5.2716088 h 7.049228 7.049228 v 2.7383378 2.7383374 h -7.049228 -7.049228 z m 1.487181,1.9656384 c 0.06282,-0.171485 0.136848,-0.3117909 0.164504,-0.3117909 0.02765,0 0.09974,0.1480514 0.160186,0.329003 0.104226,0.3120069 0.116618,0.3281139 0.239868,0.3117909 0.126229,-0.01672 0.138663,-0.04342 0.432565,-0.928972 0.16643,-0.5014679 0.3026,-0.9239317 0.3026,-0.9388084 0,-0.014877 -0.05859,-0.019402 -0.130208,-0.010057 -0.125007,0.016313 -0.138716,0.043685 -0.343187,0.6852381 -0.117138,0.3675354 -0.233162,0.6949512 -0.257832,0.7275907 -0.03248,0.042976 -0.07336,-0.021689 -0.148219,-0.2344502 -0.129041,-0.3667691 -0.129232,-0.4914059 -0.0013,-0.8549803 0.05613,-0.1595346 0.102059,-0.2998405 0.102059,-0.3117909 0,-0.01195 -0.05408,-0.021728 -0.12019,-0.021728 -0.0842,0 -0.127981,0.032478 -0.146205,0.108449 -0.01431,0.059647 -0.05179,0.108449 -0.08329,0.108449 -0.0315,0 -0.07701,-0.048802 -0.101139,-0.108449 -0.04149,-0.1025603 -0.245758,-0.1588386 -0.246022,-0.067781 -6.5e-5,0.022368 0.04815,0.191122 0.107143,0.3750098 l 0.107261,0.3343414 -0.09669,0.3299088 c -0.06148,0.2097651 -0.120175,0.3299088 -0.161181,0.3299088 -0.04409,0 -0.134031,-0.22302 -0.284288,-0.7049186 -0.208353,-0.6682224 -0.225808,-0.7049186 -0.335309,-0.7049186 -0.06353,0 -0.115514,0.026291 -0.115514,0.058425 0,0.076774 0.529956,1.6831114 0.5854,1.7743934 0.02356,0.03879 0.09052,0.06319 0.148802,0.05423 0.08377,-0.01288 0.129895,-0.08161 0.220189,-0.3280889 z m 2.803766,0.225246 c 0.243358,-0.155867 0.381216,-0.471454 0.381216,-0.8726852 0,-0.3431563 -0.100328,-0.5882009 -0.321603,-0.7854932 -0.265033,-0.2363077 -0.762314,-0.216353 -1.036093,0.041576 -0.322359,0.3036972 -0.37513,1.008248 -0.104748,1.3985097 0.229968,0.3319297 0.742182,0.4352477 1.081228,0.2180927 z M 27.147007,9.9629731 c -0.257012,-0.1478268 -0.370787,-0.606204 -0.23604,-0.9509585 0.161286,-0.4126558 0.74622,-0.4700786 0.983761,-0.096576 0.134167,0.2109613 0.142103,0.6118624 0.0163,0.8234625 -0.174572,0.2936319 -0.484866,0.3846339 -0.764022,0.2240715 z m 1.744062,0.1081919 c 0.01748,-0.2842386 0.06719,-0.3531464 0.254762,-0.3531464 0.222827,0 0.266369,0.033669 0.427637,0.3306614 0.117729,0.216813 0.16701,0.265808 0.267354,0.265808 0.149402,0 0.151434,-0.02795 0.02056,-0.28277 -0.13091,-0.2548922 -0.128805,-0.3142396 0.01774,-0.4999962 0.152684,-0.1935399 0.195009,-0.4866497 0.10941,-0.757701 -0.09225,-0.2921161 -0.246226,-0.3573904 -0.843051,-0.3573904 h -0.493123 v 0.9127792 c 0,0.5020286 0.01307,0.9300764 0.02905,0.9512164 0.01598,0.02114 0.0667,0.03131 0.112706,0.02259 0.06547,-0.0124 0.08654,-0.06285 0.09695,-0.232054 z m 0.02407,-0.6985131 c -0.01184,-0.040834 -0.01588,-0.2055412 -0.009,-0.3660154 l 0.01257,-0.2917713 0.336486,-0.015714 c 0.293391,-0.013702 0.347192,-0.00155 0.420085,0.094893 0.1107,0.1464644 0.107829,0.4018627 -0.0061,0.5422908 -0.07446,0.09178 -0.144299,0.1105614 -0.411126,0.1105614 -0.23426,0 -0.327269,-0.020134 -0.342962,-0.074244 z m 2.647074,0.8062751 c 0,-0.134881 -0.0019,-0.135561 -0.38115,-0.135561 -0.241805,0 -0.39913,-0.02379 -0.430331,-0.06507 -0.0335,-0.044323 -0.04918,-0.3036573 -0.04918,-0.8133677 V 8.4166304 H 30.5786 30.455648 v 0.9127792 c 0,0.5020286 0.0123,0.9290464 0.02732,0.9489294 0.01503,0.01988 0.264004,0.03615 0.553283,0.03615 h 0.525959 z m 1.420739,-0.01704 C 33.249655,9.9805764 33.344789,9.7616835 33.344911,9.3290599 33.345034,8.9189235 33.272773,8.7387674 33.033349,8.5522067 32.920645,8.4643872 32.80264,8.4401069 32.412629,8.4244902 l -0.481561,-0.019282 v 0.9184906 c 0,0.5051698 0.01383,0.9373862 0.03074,0.9604822 0.01691,0.02309 0.215166,0.03114 0.440577,0.01788 0.312374,-0.01838 0.450441,-0.05171 0.580569,-0.140176 z M 32.221543,9.9677487 C 32.190316,9.9179659 32.1781,9.691028 32.185787,9.3034984 l 0.01168,-0.5886332 0.289518,-0.015728 c 0.247378,-0.013439 0.306264,0.0017 0.40456,0.1039973 0.240105,0.2498839 0.279954,0.7122282 0.08533,0.9900718 -0.156726,0.2237447 -0.652592,0.3383297 -0.755332,0.1745424 z M 26.246268,7.4631594 C 26.718873,7.2501022 26.878823,6.4890715 26.553904,5.9994532 26.387501,5.748703 26.101989,5.6417409 25.654364,5.6624564 l -0.342193,0.015836 -0.01133,0.8654156 c -0.0062,0.4759785 -0.0022,0.8968962 0.009,0.9353728 0.03016,0.1039881 0.695579,0.092675 0.936468,-0.015922 z M 25.555324,7.2066503 c -0.01137,-0.039196 -0.0154,-0.3381086 -0.009,-0.6642503 l 0.01171,-0.5929848 h 0.294197 c 0.234553,0 0.317641,0.023036 0.409839,0.1136281 0.268335,0.2636618 0.255793,0.8431959 -0.02362,1.0912444 -0.10874,0.096534 -0.196594,0.123628 -0.40088,0.123628 -0.178312,0 -0.268202,-0.022693 -0.28229,-0.071265 z m 1.68309,0.1797144 0.06358,-0.1626735 0.419033,8.301e-4 c 0.447507,8.866e-4 0.482602,0.013628 0.557782,0.2025116 0.04851,0.1218661 0.250597,0.1777215 0.250597,0.069262 0,-0.029009 -0.146765,-0.457561 -0.326144,-0.9523383 l -0.326145,-0.8995951 -0.145564,0.016966 c -0.145472,0.016955 -0.145769,0.017539 -0.469128,0.921366 -0.17796,0.4974203 -0.31303,0.9183381 -0.300155,0.9353728 0.06841,0.09051 0.216989,0.019647 0.276144,-0.1317016 z m 0.204462,-0.4889983 c -0.037,-0.079201 0.227277,-0.81239 0.292821,-0.81239 0.06414,0 0.301902,0.5966573 0.301902,0.7575969 0,0.099946 -0.02599,0.1099953 -0.284468,0.1099953 -0.156458,0 -0.296072,-0.024841 -0.310255,-0.055202 z m 1.701288,0.3805493 0.02049,-0.2440103 0.234286,-0.016208 0.234285,-0.016208 0.14866,0.2737744 c 0.119982,0.2209613 0.171637,0.2737744 0.267767,0.2737744 0.146762,0 0.148589,-0.051832 0.01149,-0.3259372 l -0.10762,-0.215163 0.148604,-0.2176267 c 0.129422,-0.1895366 0.148603,-0.2529197 0.148603,-0.4910578 0,-0.4946476 -0.219663,-0.6472577 -0.932383,-0.6477707 L 28.898261,5.6511804 V 6.603711 7.5562417 l 0.112706,-0.017158 c 0.100663,-0.015325 0.114895,-0.04323 0.133197,-0.261168 z m 0.01699,-0.6160974 c -0.01178,-0.040619 -0.01581,-0.2175262 -0.009,-0.3931277 l 0.01246,-0.3192754 0.310079,-0.015657 c 0.264438,-0.013353 0.326271,0.00119 0.420085,0.098829 0.186255,0.19384 0.133029,0.5356017 -0.100164,0.6431561 -0.188981,0.087162 -0.606845,0.077978 -0.6335,-0.013924 z m 1.761422,0.8014483 c 0.01368,-0.047174 0.02488,-0.1493062 0.02488,-0.2269594 0,-0.1438897 0.141496,-0.3921876 0.223493,-0.3921876 0.0249,0 0.164083,0.1586067 0.309298,0.3524593 0.218069,0.2911083 0.287418,0.3524593 0.398408,0.3524593 0.07391,0 0.134382,-0.014026 0.134382,-0.031168 0,-0.017142 -0.13371,-0.2258519 -0.297133,-0.4637988 -0.163423,-0.2379471 -0.303181,-0.4553362 -0.310574,-0.4830871 -0.0074,-0.027751 0.126319,-0.2250017 0.297134,-0.4383351 0.170815,-0.2133333 0.310573,-0.4089366 0.310573,-0.4346738 0,-0.025737 -0.0577,-0.046795 -0.128229,-0.046795 -0.105671,0 -0.190857,0.081083 -0.484228,0.4609083 -0.195798,0.2534996 -0.377851,0.4609083 -0.404561,0.4609083 -0.03275,0 -0.04856,-0.1221633 -0.04856,-0.3751367 0,-0.4619594 -0.02291,-0.5466799 -0.147828,-0.5466799 h -0.09808 v 0.9489289 0.9489289 h 0.09808 c 0.05394,0 0.109269,-0.038597 0.122951,-0.085772 z"
         id="path2346"
         inkscape:connector-curvature="0" />
      <path
         style="fill:#3b7c84;stroke-width:0.0471416"
         d="M 23.570356,7.9828343 V 5.2716088 h 7.049228 7.049228 V 7.9828343 10.69406 h -7.049228 -7.049228 z m 1.516404,2.0742807 c 0.05635,-0.1564675 0.114939,-0.2845729 0.130193,-0.284679 0.01525,-1.085e-4 0.07417,0.1340128 0.13093,0.298042 0.09669,0.27944 0.11232,0.298235 0.247963,0.298235 0.10568,0 0.161381,-0.03355 0.206302,-0.124256 0.08757,-0.176819 0.596096,-1.7177393 0.596096,-1.806259 0,-0.098298 -0.177709,-0.1530999 -0.274414,-0.084624 -0.04504,0.031892 -0.161721,0.3269903 -0.280458,0.7093066 -0.111832,0.360081 -0.221773,0.6466677 -0.244314,0.6368593 -0.02254,-0.00981 -0.07643,-0.1309344 -0.119748,-0.269169 L 25.40055,9.1792355 25.517793,8.7939069 c 0.09882,-0.3247838 0.107977,-0.3930854 0.05827,-0.4346965 -0.096,-0.080367 -0.193978,-0.058475 -0.279058,0.062352 l -0.07984,0.1133804 -0.08569,-0.1133804 c -0.08999,-0.1190659 -0.192103,-0.142782 -0.283763,-0.065906 -0.04367,0.036627 -0.03036,0.1212685 0.0664,0.4220904 l 0.121022,0.3762769 -0.08033,0.2848933 C 24.910625,9.5956076 24.855579,9.7154741 24.832479,9.7052864 24.809378,9.6950986 24.701454,9.4070836 24.592646,9.0652529 24.48305,8.7209447 24.35746,8.4107997 24.311064,8.3698819 24.22244,8.2917232 24.021179,8.32481 24.021179,8.4175381 c 0,0.068245 0.574689,1.7927999 0.628534,1.8861359 0.02375,0.04117 0.101843,0.06374 0.187636,0.05422 0.132834,-0.01473 0.156794,-0.04363 0.249411,-0.300783 z m 2.783381,0.205526 C 28.284694,9.9828266 28.435595,9.3184629 28.200683,8.8073844 27.99174,8.3528051 27.447097,8.1747269 27.016065,8.4200575 26.721811,8.5875373 26.56218,8.9054939 26.56218,9.3241111 c 0,0.3036329 0.09311,0.6178398 0.232515,0.7846309 0.22695,0.271536 0.783228,0.351141 1.075446,0.153899 z M 27.176938,9.894164 c -0.08817,-0.058279 -0.173116,-0.175197 -0.220453,-0.303447 -0.06627,-0.1795415 -0.07025,-0.2385102 -0.02851,-0.4228332 0.06474,-0.2859141 0.238348,-0.4254343 0.529698,-0.4257037 0.194812,-1.789e-4 0.234804,0.020357 0.358609,0.1841607 0.108199,0.1431537 0.139346,0.229157 0.139346,0.3847613 0,0.2758995 -0.109704,0.4965766 -0.295846,0.5951181 -0.202265,0.1070768 -0.306542,0.1044728 -0.482848,-0.012056 z m 1.753288,0.311875 c 0.03131,-0.3699122 0.03782,-0.3795714 0.255771,-0.3795714 0.198096,0 0.208612,0.00811 0.351427,0.2711224 0.132824,0.244612 0.162637,0.271123 0.304892,0.271123 0.08672,0 0.167403,-0.02083 0.179296,-0.04629 0.01189,-0.02546 -0.03369,-0.161693 -0.101297,-0.302739 L 29.797394,9.7632344 29.921009,9.5769585 C 30.066776,9.3573039 30.105682,9.1881087 30.072547,8.9179517 30.019228,8.4832379 29.722942,8.3092311 29.034811,8.3084954 28.579458,8.3080086 28.611374,8.2306231 28.611374,9.335211 c 0,0.5286613 0.01317,0.978626 0.02926,0.999922 0.01609,0.0213 0.08526,0.03146 0.153689,0.02259 0.09835,-0.01275 0.12683,-0.04454 0.135898,-0.151687 z m 0.0339,-0.8991391 c -0.01368,-0.047174 -0.02488,-0.1549833 -0.02488,-0.2395754 0,-0.2978288 0.02733,-0.3253471 0.323136,-0.3253471 0.313042,0 0.455558,0.094261 0.455558,0.3013096 0,0.2465463 -0.131405,0.3493846 -0.446438,0.3493846 -0.219799,0 -0.288024,-0.019038 -0.307379,-0.085772 z m 2.656112,0.9728371 c 0.01419,-0.04894 0.01492,-0.13434 0.0016,-0.189786 -0.02127,-0.08867 -0.06974,-0.1008098 -0.402572,-0.1008098 -0.239657,0 -0.39642,-0.023857 -0.427569,-0.065069 -0.03348,-0.044292 -0.04918,-0.3028452 -0.04918,-0.8097135 0,-0.6970211 -0.0052,-0.7468455 -0.08197,-0.7790646 -0.04508,-0.018931 -0.118853,-0.018931 -0.163936,0 -0.07792,0.032719 -0.08197,0.082043 -0.08197,0.9977701 0,0.5298423 0.0123,0.9796178 0.02732,0.9994998 0.01503,0.01988 0.280474,0.03615 0.589882,0.03615 0.483711,0 0.566176,-0.01247 0.588365,-0.08898 z m 1.398704,-0.07736 c 0.264769,-0.180232 0.386202,-0.4518758 0.386202,-0.863929 0,-0.3739753 -0.123981,-0.6820732 -0.331521,-0.8238424 -0.17059,-0.1165289 -0.534711,-0.2056534 -0.842065,-0.2061092 -0.360953,-5.352e-4 -0.34147,-0.059117 -0.34147,1.0267156 0,0.5286613 0.01383,0.979808 0.03074,1.002548 0.01691,0.02274 0.225196,0.03269 0.462866,0.02211 0.365169,-0.01625 0.463601,-0.04065 0.63525,-0.157498 z M 32.267136,9.9240717 c -0.05142,-0.068033 -0.07067,-0.9364521 -0.0243,-1.0963226 0.01785,-0.061533 0.07982,-0.085772 0.219296,-0.085772 0.400713,0 0.575505,0.1865941 0.575505,0.6143615 0,0.3139252 -0.107926,0.492819 -0.344956,0.5717863 -0.235604,0.078492 -0.364077,0.077268 -0.425541,-0.00405 z m 3.372974,0.3361923 c 0.08858,-0.02982 0.03702,-0.04139 -0.184428,-0.04139 -0.221452,0 -0.273008,0.01157 -0.184427,0.04139 0.06762,0.02277 0.150616,0.04139 0.184427,0.04139 0.03381,0 0.116804,-0.01863 0.184428,-0.04139 z m 0.667725,-0.2960145 c 0.01219,-0.016133 -0.372812,-0.028959 -0.855568,-0.028503 -0.482756,4.555e-4 -0.856454,0.018757 -0.830439,0.040668 0.05332,0.044912 1.651583,0.03338 1.686007,-0.012166 z M 36.039703,9.677474 c -0.321212,-0.00916 -0.84683,-0.00916 -1.168041,0 -0.321211,0.00916 -0.0584,0.016657 0.58402,0.016657 0.642423,0 0.905232,-0.0075 0.584021,-0.016657 z m 0.727464,-0.2983586 c 0,-0.022368 -0.590168,-0.040668 -1.311485,-0.040668 -0.721316,0 -1.311484,0.018301 -1.311484,0.040668 0,0.022368 0.590168,0.040668 1.311484,0.040668 0.721317,0 1.311485,-0.018301 1.311485,-0.040668 z m 0.163935,-0.2711225 c 0,-0.022368 -0.663939,-0.040668 -1.47542,-0.040668 -0.811481,0 -1.47542,0.018301 -1.47542,0.040668 0,0.022368 0.663939,0.040668 1.47542,0.040668 0.811481,0 1.47542,-0.018301 1.47542,-0.040668 z m 0.08197,-0.2711226 c 0,-0.022368 -0.711134,-0.040668 -1.580299,-0.040668 -0.869164,0 -1.571749,0.018301 -1.561301,0.040668 0.02484,0.053171 3.1416,0.053171 3.1416,0 z M 36.285606,8.5387002 c -0.456458,-0.00873 -1.203389,-0.00873 -1.659847,0 -0.456458,0.00873 -0.08299,0.015866 0.829923,0.015866 0.912916,0 1.286382,-0.00714 0.829924,-0.015866 z m 0.02049,-0.2711254 c -0.467729,-0.0087 -1.233103,-0.0087 -1.700831,0 -0.467729,0.0087 -0.08504,0.015818 0.850415,0.015818 0.935457,0 1.318144,-0.00712 0.850416,-0.015818 z M 37.13602,7.9838674 c 0,-0.1017447 -0.193591,-0.112472 -1.758902,-0.097465 -1.214935,0.011648 -1.578371,0.030573 -1.591541,0.082876 -0.01347,0.053491 0.337905,0.067781 1.666688,0.067781 1.073379,0 1.683755,-0.019282 1.683755,-0.053191 z M 37.11836,7.7598738 c 0.01549,-0.033158 0.0027,-0.081586 -0.02832,-0.1076187 -0.08107,-0.06794 -3.262388,-0.062887 -3.294208,0.00523 -0.01393,0.029824 -0.01393,0.078626 0,0.1084491 0.03722,0.07968 3.285243,0.073753 3.322527,-0.00606 z M 26.344034,7.4359352 c 0.257202,-0.1647342 0.356902,-0.3796685 0.374568,-0.8075 0.0124,-0.3003438 1.15e-4,-0.3822902 -0.08149,-0.5434588 C 26.494933,5.8041541 26.258559,5.6695247 25.828649,5.6245058 25.25304,5.5642296 25.291679,5.4937639 25.291679,6.6037634 v 0.9452748 h 0.437883 c 0.360126,0 0.469241,-0.020084 0.614472,-0.113103 z M 25.601986,7.1927057 c -0.04937,-0.065322 -0.0644,-0.2036353 -0.0644,-0.5925964 0,-0.6823218 0.06506,-0.7617161 0.512299,-0.6251669 0.363237,0.1109022 0.515876,0.6619043 0.284253,1.0261039 -0.162989,0.2562795 -0.597364,0.3699888 -0.732148,0.1916594 z m 1.664587,0.193659 c 0.10502,-0.1583495 0.117791,-0.1626735 0.480441,-0.1626735 0.317908,0 0.384576,0.015907 0.454521,0.108449 0.04508,0.059647 0.08197,0.13285 0.08197,0.1626735 0,0.029824 0.06455,0.054225 0.143443,0.054225 0.07889,0 0.143444,-0.012634 0.143444,-0.028075 0,-0.015442 -0.150572,-0.4430008 -0.334604,-0.9501317 -0.354466,-0.9767858 -0.423074,-1.0794354 -0.609674,-0.9121747 -0.07229,0.064795 -0.695078,1.7151229 -0.695078,1.8418808 0,0.1201367 0.232641,0.040977 0.335539,-0.1141725 z M 27.479608,6.874548 c -0.03182,-0.109713 0.187994,-0.735347 0.258362,-0.735347 0.06838,0 0.318135,0.6756584 0.279959,0.7573836 -0.04206,0.090032 -0.51139,0.07082 -0.538321,-0.022037 z m 1.664556,0.4684371 c 0,-0.2654883 0.05775,-0.336192 0.274592,-0.336192 0.190029,0 0.272562,0.075859 0.404817,0.3720813 0.06387,0.1430515 0.100686,0.1701638 0.231073,0.1701638 0.0853,0 0.155099,-0.018737 0.155099,-0.041637 0,-0.022901 -0.04611,-0.1314105 -0.10246,-0.2411335 -0.124828,-0.24305 -0.12893,-0.3453644 -0.01702,-0.4246048 0.09286,-0.06575 0.20145,-0.3586793 0.20145,-0.5434079 0,-0.2118635 -0.12534,-0.4735435 -0.270459,-0.5646548 -0.184281,-0.1156982 -0.946705,-0.1782268 -1.074012,-0.088083 -0.08698,0.06159 -0.08996,0.093012 -0.08996,0.9474623 0,0.4860675 0.0123,0.9000265 0.02732,0.9199088 0.01503,0.019882 0.07958,0.03615 0.143443,0.03615 0.107133,0 0.116121,-0.015948 0.116121,-0.2060531 z m 0.02732,-0.6976887 c -0.01503,-0.019882 -0.02732,-0.16543 -0.02732,-0.3234393 0,-0.3360482 0.05397,-0.3995542 0.339553,-0.3995542 0.248669,0 0.419209,0.088775 0.473523,0.2464945 0.05589,0.1623012 0.0042,0.3730916 -0.111694,0.4551272 -0.08857,0.062716 -0.62984,0.079877 -0.674059,0.021372 z m 1.775968,0.7038947 c 0,-0.2178939 0.127629,-0.450847 0.247007,-0.450847 0.03783,0 0.172675,0.1464062 0.299654,0.3253471 0.207834,0.2928835 0.247286,0.325347 0.395387,0.325347 0.09048,0 0.164517,-0.016549 0.164517,-0.036775 0,-0.020226 -0.138321,-0.2248329 -0.307379,-0.4546813 -0.169059,-0.2298485 -0.307379,-0.4518205 -0.307379,-0.4932711 0,-0.041451 0.138145,-0.2569212 0.30699,-0.4788237 0.243178,-0.319594 0.294121,-0.412988 0.245077,-0.4493018 -0.110521,-0.081832 -0.238325,0.02092 -0.603959,0.4855672 -0.197599,0.2511091 -0.377416,0.4417249 -0.399593,0.4235909 -0.02218,-0.018134 -0.04032,-0.225095 -0.04032,-0.459913 0,-0.3826534 -0.0087,-0.4305981 -0.08394,-0.4621882 -0.179973,-0.075576 -0.202952,0.034757 -0.202952,0.9744692 0,0.4834651 0.01229,0.8952948 0.02732,0.9151771 0.01503,0.019882 0.07958,0.03615 0.143443,0.03615 0.106501,0 0.116121,-0.016557 0.116121,-0.1998471 z m 6.129923,0.1395601 c 0.01549,-0.033158 0.0027,-0.081586 -0.02832,-0.1076187 -0.08105,-0.067923 -3.180426,-0.062875 -3.21224,0.00523 -0.01393,0.029824 -0.01393,0.078626 0,0.108449 0.03721,0.07965 3.203287,0.073727 3.240559,-0.00606 z m -0.0848,-0.3192846 c 0,-0.070853 -0.198026,-0.081337 -1.536334,-0.081337 -1.43461,0 -1.537256,0.00633 -1.550243,0.095549 -0.01311,0.09009 0.07466,0.094737 1.536335,0.081337 1.345896,-0.012339 1.550242,-0.024934 1.550242,-0.095549 z M 36.91061,6.8983441 c 0,-0.070475 -0.19121,-0.083242 -1.431847,-0.095607 -0.839502,-0.00837 -1.447547,0.0065 -1.4698,0.035944 -0.115195,0.1524119 0.04305,0.1692419 1.459706,0.1552459 1.249617,-0.012346 1.441941,-0.025094 1.441941,-0.095583 z M 36.756935,6.6136654 c -0.01306,-0.051867 -0.315675,-0.071142 -1.288912,-0.082099 -1.094791,-0.012325 -1.279017,-0.00289 -1.323347,0.067781 -0.04581,0.073031 0.09655,0.082099 1.288911,0.082099 1.054106,0 1.336766,-0.014478 1.323348,-0.067781 z M 36.603231,6.3571321 c 0,-0.098553 -0.180557,-0.1129281 -1.226122,-0.097621 -0.788576,0.011545 -1.045838,0.03172 -1.05875,0.083031 -0.01338,0.053151 0.231363,0.067781 1.133908,0.067781 0.725084,0 1.150964,-0.019682 1.150964,-0.053191 z M 36.316344,6.0907779 c 0,-0.026633 -0.02917,-0.063234 -0.06483,-0.081337 -0.08452,-0.042909 -1.507153,-0.042909 -1.591667,0 -0.189373,0.096146 0.01678,0.1297599 0.795833,0.1297599 0.47771,0 0.860662,-0.021546 0.860662,-0.048423 z m -0.594266,-0.276924 c -0.01393,-0.029824 -0.13381,-0.054225 -0.266396,-0.054225 -0.132586,0 -0.252464,0.024401 -0.266395,0.054225 -0.01598,0.03421 0.08235,0.054225 0.266395,0.054225 0.184047,0 0.282376,-0.020015 0.266396,-0.054225 z"
         id="path2344"
         inkscape:connector-curvature="0" />
      <path
         style="fill:#5a656a;stroke-width:0.0471416"
         d="M 23.570356,7.9828343 V 5.2716088 h 7.049228 7.049228 V 7.9828343 10.69406 h -7.049228 -7.049228 z m 1.371509,2.4062237 c 0.0367,-0.01863 0.114274,-0.158016 0.172385,-0.30974 l 0.105655,-0.2758615 0.102819,0.2690715 c 0.05655,0.14799 0.123417,0.287 0.148593,0.308911 0.08303,0.07226 0.257422,0.04314 0.319746,-0.0534 0.09946,-0.154058 0.653096,-1.8704236 0.629532,-1.9516677 -0.01477,-0.050922 -0.07655,-0.069197 -0.19532,-0.057781 l -0.173719,0.016698 -0.198279,0.6235819 C 25.744223,9.3018455 25.638449,9.604781 25.618222,9.6320656 25.596279,9.661665 25.548467,9.579881 25.49968,9.4292963 L 25.417915,9.1769187 25.540777,8.79492 c 0.06757,-0.2100993 0.111854,-0.4055653 0.0984,-0.4343687 -0.04028,-0.086236 -0.273846,-0.05922 -0.357876,0.041394 -0.07422,0.088869 -0.08038,0.088869 -0.117969,0 -0.02715,-0.06419 -0.09072,-0.093764 -0.201559,-0.093764 -0.198712,0 -0.204692,0.057131 -0.05486,0.5241656 0.106577,0.332213 0.106808,0.3359905 0.03553,0.5829135 -0.03946,0.1366935 -0.08595,0.2485336 -0.103312,0.2485336 -0.01737,0 -0.118622,-0.2745116 -0.225014,-0.6100257 -0.106392,-0.3355142 -0.211814,-0.6405271 -0.234272,-0.6778064 -0.05313,-0.088202 -0.344054,-0.088202 -0.369289,0 -0.0259,0.090527 0.572047,1.8928031 0.656643,1.9791951 0.0727,0.07424 0.171257,0.0864 0.274666,0.0339 z m 2.812977,-0.02783 c 0.377972,-0.167434 0.589195,-0.5742514 0.561469,-1.0813945 -0.03421,-0.6257051 -0.372152,-1.001835 -0.89347,-0.9944282 -0.408392,0.0058 -0.698338,0.243106 -0.838213,0.6860287 -0.160188,0.5072415 0.0046,1.05344 0.395717,1.31128 0.234499,0.154608 0.534146,0.184985 0.774497,0.07851 z M 27.07038,9.7505533 c -0.255271,-0.3377412 -0.156391,-0.8314695 0.19133,-0.9553506 0.363362,-0.1294533 0.652938,0.1043096 0.652938,0.5270911 0,0.1320995 -0.01899,0.2871262 -0.0422,0.3445039 -0.06358,0.1571678 -0.258962,0.268119 -0.472163,0.268119 -0.162071,0 -0.211394,-0.027563 -0.329906,-0.1843634 z m 1.860793,0.6039157 c 0.02362,-0.03766 0.04893,-0.165763 0.05625,-0.284679 0.01186,-0.1928166 0.02603,-0.218135 0.130957,-0.2340002 0.199387,-0.030148 0.287657,0.031925 0.408774,0.2874542 0.117394,0.247677 0.223037,0.324174 0.401365,0.290631 0.134464,-0.02529 0.141212,-0.17358 0.01765,-0.38791 C 29.816186,9.8004898 29.815558,9.7564648 29.939978,9.5918479 30.24,9.1948987 30.115107,8.5131118 29.714526,8.3611109 c -0.203737,-0.077308 -1.034309,-0.0681 -1.094956,0.01214 -0.03433,0.045423 -0.04918,0.3389462 -0.04918,0.9721679 0,0.7523352 0.01099,0.9216362 0.0644,0.9923082 0.07746,0.102478 0.236948,0.111488 0.29638,0.01674 z m 0.04906,-1.2871445 V 8.7962019 h 0.299182 c 0.326226,0 0.397544,0.048639 0.397544,0.2711226 0,0.222484 -0.07132,0.2711225 -0.397544,0.2711225 H 28.980229 Z M 31.60114,10.34488 c 0.02693,-0.04293 0.04302,-0.146637 0.03576,-0.230455 L 31.62369,9.9620289 31.204693,9.9465919 30.785696,9.9311549 30.774366,9.1332244 30.763036,8.3352939 30.627161,8.3180379 c -0.242664,-0.030818 -0.253472,0.012812 -0.253472,1.0231757 0,0.7561584 0.01096,0.9258104 0.0644,0.9965134 0.09031,0.119486 1.088741,0.125625 1.163056,0.0072 z m 1.335131,-0.05447 c 0.508264,-0.280511 0.671116,-1.0912365 0.321922,-1.6026242 -0.196599,-0.2879165 -0.423816,-0.3796074 -0.940694,-0.3796074 -0.343942,0 -0.423084,0.015305 -0.443522,0.085772 -0.01368,0.047174 -0.02488,0.497381 -0.02488,1.000459 0,0.8123846 0.008,0.9213206 0.07172,0.9740006 0.104828,0.08669 0.816022,0.03206 1.015449,-0.078 z M 32.258939,9.3720766 V 8.7962019 h 0.257276 c 0.300967,0 0.412769,0.081194 0.479352,0.3481213 0.108504,0.4349869 -0.08389,0.7411599 -0.490174,0.7800418 l -0.246454,0.023586 z m 3.643515,0.8610744 c 0.02729,-0.03615 -0.122347,-0.05422 -0.448821,-0.05422 -0.269366,0 -0.489757,0.0069 -0.489757,0.0153 0,0.115746 0.853848,0.151153 0.938578,0.03892 z m -1.123006,-0.189785 c -0.01651,-0.03534 0.218962,-0.054225 0.676234,-0.054225 0.457273,0 0.692744,0.018882 0.676234,0.054225 -0.04196,0.08983 0.08707,0.06099 0.181909,-0.04067 0.0849,-0.091003 0.04897,-0.094893 -0.876626,-0.094893 -0.530836,0 -0.96515,0.00532 -0.965143,0.011824 7e-6,0.0065 0.05073,0.048228 0.112719,0.092722 0.130416,0.09361 0.23143,0.109703 0.194673,0.03102 z M 35.43519,9.7180186 c 0.793093,0 1.042771,0.016005 1.057368,0.067781 0.0136,0.048229 0.04381,0.036498 0.104737,-0.040668 l 0.08563,-0.1084491 h -1.225458 c -1.184115,0 -1.223172,0.00334 -1.157704,0.099053 0.03912,0.057185 0.07397,0.074375 0.08246,0.040668 0.01,-0.039648 0.347902,-0.058385 1.052967,-0.058385 z m 0.02049,-0.325347 c 0.973088,0 1.193105,0.013796 1.241519,0.077851 0.04391,0.058103 0.07065,0.062229 0.105388,0.016267 0.0256,-0.033871 0.04655,-0.081104 0.04655,-0.1049631 0,-0.023859 -0.627053,-0.04338 -1.393452,-0.04338 -0.766398,0 -1.393452,0.019521 -1.393452,0.04338 0,0.023859 0.02095,0.071092 0.04655,0.1049631 0.03474,0.045962 0.06147,0.041835 0.105387,-0.016267 0.04841,-0.064054 0.268431,-0.077851 1.241519,-0.077851 z M 35.45428,9.121549 c 1.073882,0 1.391902,0.015339 1.405243,0.067781 0.01344,0.052842 0.03226,0.051379 0.08538,-0.00664 0.03748,-0.040931 0.06814,-0.089733 0.06815,-0.108449 2e-6,-0.018716 -0.700818,-0.034029 -1.557381,-0.034029 -0.856562,0 -1.55739,0.0077 -1.557395,0.017121 -5e-6,0.00942 0.02066,0.068221 0.04593,0.1306759 0.04126,0.1019954 0.04981,0.1043925 0.084,0.023547 0.0343,-0.081097 0.17548,-0.090007 1.426072,-0.090007 z m 0.0062,-0.2711225 c 1.117663,0 1.508928,0.01642 1.520871,0.063825 0.01944,0.077183 0.113699,0.010388 0.113709,-0.080581 4e-6,-0.048882 -0.39851,-0.06458 -1.639349,-0.06458 -1.584209,0 -1.718439,0.012873 -1.611365,0.1545398 0.0154,0.020379 0.04676,0.012246 0.06967,-0.018075 0.02672,-0.035353 0.581464,-0.055128 1.546459,-0.055128 z M 33.836819,8.6335284 c -0.01672,-0.0358 0.524396,-0.054225 1.592537,-0.054225 1.257213,0 1.621946,0.01511 1.636163,0.067781 0.03226,0.1195243 0.06956,0.012418 0.09119,-0.2618517 0.01157,-0.1467605 0.01011,-0.2363359 -0.0032,-0.1990566 -0.01884,0.052592 -0.399058,0.067781 -1.696818,0.067781 -1.467192,0 -1.675509,-0.010238 -1.696725,-0.083389 -0.0133,-0.045864 -4.1e-4,-0.095463 0.02866,-0.1102194 0.02907,-0.014757 0.812784,-0.019933 1.741598,-0.011503 1.487785,0.013503 1.685823,0.00565 1.664128,-0.06601 -0.01354,-0.044735 -0.03258,-0.1423393 -0.0423,-0.216898 C 37.077903,7.1974636 36.960251,6.847601 36.728565,6.506726 36.392404,6.012137 35.962189,5.7596294 35.455682,5.7596294 c -0.360739,0 -0.623073,0.1007076 -0.927258,0.3559662 -0.394969,0.3314404 -0.644824,0.8041378 -0.737717,1.3956755 -0.0337,0.2146245 -0.07634,0.4103942 -0.09474,0.4350436 -0.02955,0.039582 -0.01662,0.1730849 0.05999,0.6194331 0.01152,0.067103 0.04012,0.1220051 0.06356,0.1220051 0.02344,0 0.03122,-0.024401 0.01729,-0.054225 z m -0.03415,-0.1445987 c -0.01503,-0.019882 -0.02732,-0.068684 -0.02732,-0.108449 0,-0.110357 3.30096,-0.1066567 3.332978,0.00374 0.01213,0.041819 0.01103,0.090621 -0.0024,0.108449 -0.03383,0.044765 -3.269317,0.041106 -3.303209,-0.00374 z M 26.344034,7.4359352 c 0.257202,-0.1647342 0.356902,-0.3796685 0.374568,-0.8075 0.0124,-0.3003438 1.15e-4,-0.3822902 -0.08149,-0.5434588 C 26.494933,5.8041541 26.258559,5.6695247 25.828649,5.6245058 25.25304,5.5642296 25.291679,5.4937639 25.291679,6.6037634 v 0.9452748 h 0.437883 c 0.360126,0 0.469241,-0.020084 0.614472,-0.113103 z M 25.601986,7.1927057 c -0.04937,-0.065322 -0.0644,-0.2036353 -0.0644,-0.5925964 0,-0.6823218 0.06506,-0.7617161 0.512299,-0.6251669 0.363237,0.1109022 0.515876,0.6619043 0.284253,1.0261039 -0.162989,0.2562795 -0.597364,0.3699888 -0.732148,0.1916594 z m 1.664587,0.193659 c 0.10502,-0.1583495 0.117791,-0.1626735 0.480441,-0.1626735 0.317908,0 0.384576,0.015907 0.454521,0.108449 0.04508,0.059647 0.08197,0.13285 0.08197,0.1626735 0,0.029824 0.06455,0.054225 0.143443,0.054225 0.07889,0 0.143444,-0.012634 0.143444,-0.028075 0,-0.015442 -0.150572,-0.4430008 -0.334604,-0.9501317 -0.354466,-0.9767858 -0.423074,-1.0794354 -0.609674,-0.9121747 -0.07229,0.064795 -0.695078,1.7151229 -0.695078,1.8418808 0,0.1201367 0.232641,0.040977 0.335539,-0.1141725 z M 27.479608,6.874548 c -0.03182,-0.109713 0.187994,-0.735347 0.258362,-0.735347 0.06838,0 0.318135,0.6756584 0.279959,0.7573836 -0.04206,0.090032 -0.51139,0.07082 -0.538321,-0.022037 z m 1.664556,0.4684371 c 0,-0.2654883 0.05775,-0.336192 0.274592,-0.336192 0.190029,0 0.272562,0.075859 0.404817,0.3720813 0.06387,0.1430515 0.100686,0.1701638 0.231073,0.1701638 0.0853,0 0.155099,-0.018737 0.155099,-0.041637 0,-0.022901 -0.04611,-0.1314105 -0.10246,-0.2411335 -0.124828,-0.24305 -0.12893,-0.3453644 -0.01702,-0.4246048 0.09286,-0.06575 0.20145,-0.3586793 0.20145,-0.5434079 0,-0.2118635 -0.12534,-0.4735435 -0.270459,-0.5646548 -0.184281,-0.1156982 -0.946705,-0.1782268 -1.074012,-0.088083 -0.08698,0.06159 -0.08996,0.093012 -0.08996,0.9474623 0,0.4860675 0.0123,0.9000265 0.02732,0.9199088 0.01503,0.019882 0.07958,0.03615 0.143443,0.03615 0.107133,0 0.116121,-0.015948 0.116121,-0.2060531 z m 0.02732,-0.6976887 c -0.01503,-0.019882 -0.02732,-0.16543 -0.02732,-0.3234393 0,-0.3360482 0.05397,-0.3995542 0.339553,-0.3995542 0.248669,0 0.419209,0.088775 0.473523,0.2464945 0.05589,0.1623012 0.0042,0.3730916 -0.111694,0.4551272 -0.08857,0.062716 -0.62984,0.079877 -0.674059,0.021372 z m 1.775968,0.7038947 c 0,-0.2178939 0.127629,-0.450847 0.247007,-0.450847 0.03783,0 0.172675,0.1464062 0.299654,0.3253471 0.207834,0.2928835 0.247286,0.325347 0.395387,0.325347 0.09048,0 0.164517,-0.016549 0.164517,-0.036775 0,-0.020226 -0.138321,-0.2248329 -0.307379,-0.4546813 -0.169059,-0.2298485 -0.307379,-0.4518205 -0.307379,-0.4932711 0,-0.041451 0.138145,-0.2569212 0.30699,-0.4788237 0.243178,-0.319594 0.294121,-0.412988 0.245077,-0.4493018 -0.110521,-0.081832 -0.238325,0.02092 -0.603959,0.4855672 -0.197599,0.2511091 -0.377416,0.4417249 -0.399593,0.4235909 -0.02218,-0.018134 -0.04032,-0.225095 -0.04032,-0.459913 0,-0.3826534 -0.0087,-0.4305981 -0.08394,-0.4621882 -0.179973,-0.075576 -0.202952,0.034757 -0.202952,0.9744692 0,0.4834651 0.01229,0.8952948 0.02732,0.9151771 0.01503,0.019882 0.07958,0.03615 0.143443,0.03615 0.106501,0 0.116121,-0.016557 0.116121,-0.1998471 z"
         id="path2342"
         inkscape:connector-curvature="0" />
      <path
         style="fill:#0a8692;stroke-width:0.0471416"
         d="M 23.570356,7.9828343 V 5.2716088 h 7.049228 7.049228 V 7.9828343 10.69406 h -7.049228 -7.049228 z m 1.371509,2.4062237 c 0.0367,-0.01863 0.114274,-0.158016 0.172385,-0.30974 l 0.105655,-0.2758615 0.102819,0.2690715 c 0.05655,0.14799 0.123417,0.287 0.148593,0.308911 0.08303,0.07226 0.257422,0.04314 0.319746,-0.0534 0.09946,-0.154058 0.653096,-1.8704236 0.629532,-1.9516677 -0.01477,-0.050922 -0.07655,-0.069197 -0.19532,-0.057781 l -0.173719,0.016698 -0.198279,0.6235819 C 25.744223,9.3018455 25.638449,9.604781 25.618222,9.6320656 25.596279,9.661665 25.548467,9.579881 25.49968,9.4292963 L 25.417915,9.1769187 25.540777,8.79492 c 0.06757,-0.2100993 0.111854,-0.4055653 0.0984,-0.4343687 -0.04028,-0.086236 -0.273846,-0.05922 -0.357876,0.041394 -0.07422,0.088869 -0.08038,0.088869 -0.117969,0 -0.02715,-0.06419 -0.09072,-0.093764 -0.201559,-0.093764 -0.198712,0 -0.204692,0.057131 -0.05486,0.5241656 0.106577,0.332213 0.106808,0.3359905 0.03553,0.5829135 -0.03946,0.1366935 -0.08595,0.2485336 -0.103312,0.2485336 -0.01737,0 -0.118622,-0.2745116 -0.225014,-0.6100257 -0.106392,-0.3355142 -0.211814,-0.6405271 -0.234272,-0.6778064 -0.05313,-0.088202 -0.344054,-0.088202 -0.369289,0 -0.0259,0.090527 0.572047,1.8928031 0.656643,1.9791951 0.0727,0.07424 0.171257,0.0864 0.274666,0.0339 z m 2.812977,-0.02783 c 0.377972,-0.167434 0.589195,-0.5742514 0.561469,-1.0813945 -0.03421,-0.6257051 -0.372152,-1.001835 -0.89347,-0.9944282 -0.408392,0.0058 -0.698338,0.243106 -0.838213,0.6860287 -0.160188,0.5072415 0.0046,1.05344 0.395717,1.31128 0.234499,0.154608 0.534146,0.184985 0.774497,0.07851 z M 27.07038,9.7505533 c -0.255271,-0.3377412 -0.156391,-0.8314695 0.19133,-0.9553506 0.363362,-0.1294533 0.652938,0.1043096 0.652938,0.5270911 0,0.1320995 -0.01899,0.2871262 -0.0422,0.3445039 -0.06358,0.1571678 -0.258962,0.268119 -0.472163,0.268119 -0.162071,0 -0.211394,-0.027563 -0.329906,-0.1843634 z m 1.860793,0.6039157 c 0.02362,-0.03766 0.04893,-0.165763 0.05625,-0.284679 0.01186,-0.1928166 0.02603,-0.218135 0.130957,-0.2340002 0.199387,-0.030148 0.287657,0.031925 0.408774,0.2874542 0.117394,0.247677 0.223037,0.324174 0.401365,0.290631 0.134464,-0.02529 0.141212,-0.17358 0.01765,-0.38791 C 29.816186,9.8004898 29.815558,9.7564648 29.939978,9.5918479 30.24,9.1948987 30.115107,8.5131118 29.714526,8.3611109 c -0.203737,-0.077308 -1.034309,-0.0681 -1.094956,0.01214 -0.03433,0.045423 -0.04918,0.3389462 -0.04918,0.9721679 0,0.7523352 0.01099,0.9216362 0.0644,0.9923082 0.07746,0.102478 0.236948,0.111488 0.29638,0.01674 z m 0.04906,-1.2871445 V 8.7962019 h 0.299182 c 0.326226,0 0.397544,0.048639 0.397544,0.2711226 0,0.222484 -0.07132,0.2711225 -0.397544,0.2711225 H 28.980229 Z M 31.60114,10.34488 c 0.02693,-0.04293 0.04302,-0.146637 0.03576,-0.230455 L 31.62369,9.9620289 31.204693,9.9465919 30.785696,9.9311549 30.774366,9.1332244 30.763036,8.3352939 30.627161,8.3180379 c -0.242664,-0.030818 -0.253472,0.012812 -0.253472,1.0231757 0,0.7561584 0.01096,0.9258104 0.0644,0.9965134 0.09031,0.119486 1.088741,0.125625 1.163056,0.0072 z m 1.335131,-0.05447 c 0.508264,-0.280511 0.671116,-1.0912365 0.321922,-1.6026242 -0.196599,-0.2879165 -0.423816,-0.3796074 -0.940694,-0.3796074 -0.343942,0 -0.423084,0.015305 -0.443522,0.085772 -0.01368,0.047174 -0.02488,0.497381 -0.02488,1.000459 0,0.8123846 0.008,0.9213206 0.07172,0.9740006 0.104828,0.08669 0.816022,0.03206 1.015449,-0.078 z M 32.258939,9.3720766 V 8.7962019 h 0.257276 c 0.300967,0 0.412769,0.081194 0.479352,0.3481213 0.108504,0.4349869 -0.08389,0.7411599 -0.490174,0.7800418 l -0.246454,0.023586 z m 3.59228,0.8850734 c 0.08937,-0.04496 0.101259,-0.06774 0.05505,-0.105532 -0.08591,-0.07025 0.04963,-0.130829 0.189099,-0.08451 0.06848,0.02274 0.142842,0.0041 0.20757,-0.052 0.08617,-0.074699 0.093,-0.1000934 0.04689,-0.174293 -0.04801,-0.077257 -0.03976,-0.083132 0.07463,-0.053168 0.158423,0.041497 0.2947,-0.1082227 0.208954,-0.2295664 -0.04125,-0.058375 -0.03381,-0.066335 0.04004,-0.042815 0.120606,0.038415 0.205809,-0.090569 0.134704,-0.2039233 -0.04234,-0.067502 -0.03762,-0.081337 0.02777,-0.081337 0.07843,0 0.177151,-0.094479 0.177151,-0.1695425 0,-0.021672 -0.03227,-0.050563 -0.07172,-0.064202 -0.05325,-0.018411 -0.04764,-0.026418 0.02178,-0.031088 0.110623,-0.00744 0.168399,-0.1593473 0.08665,-0.2278304 -0.045,-0.037704 -0.04089,-0.048099 0.0193,-0.048752 0.05915,-6.421e-4 0.07211,-0.031206 0.05715,-0.1347507 -0.01147,-0.079419 -0.003,-0.1205424 0.02085,-0.1010484 0.02456,0.02008 0.03343,-0.04386 0.0228,-0.1643145 -0.0096,-0.1084525 -6.87e-4,-0.1971864 0.01974,-0.1971864 0.02043,0 0.02448,-0.042702 0.009,-0.094893 -0.01547,-0.052191 -0.03564,-0.192497 -0.04482,-0.3117909 C 37.108659,7.0978501 36.849756,6.5493244 36.407046,6.1024687 36.070279,5.7625485 35.33324,5.60565 34.998919,5.8027112 c -0.09817,0.057864 -0.228554,0.1208929 -0.289748,0.1400648 -0.06119,0.019172 -0.15718,0.095612 -0.213303,0.1698661 -0.05612,0.074254 -0.127583,0.1350079 -0.158801,0.1350079 -0.03122,0 -0.07777,0.061003 -0.103444,0.1355613 -0.02568,0.074559 -0.06598,0.1355612 -0.08956,0.1355612 -0.02358,0 -0.06106,0.054902 -0.08328,0.1220052 -0.02222,0.067103 -0.08503,0.2196092 -0.139561,0.3389032 -0.05454,0.1192939 -0.121991,0.3827012 -0.1499,0.5853495 -0.02791,0.2026483 -0.06415,0.3794127 -0.08053,0.3928097 -0.02624,0.021458 -0.01087,0.1648662 0.06518,0.6079077 0.01173,0.068354 0.05214,0.1223703 0.09188,0.1228355 0.05695,6.664e-4 0.05966,0.010279 0.01374,0.048752 -0.07479,0.062653 -0.02758,0.2213045 0.06616,0.2223706 0.05645,6.42e-4 0.06043,0.011378 0.01755,0.047329 -0.09353,0.078413 0.012,0.274873 0.126647,0.2357816 0.08266,-0.028183 0.08663,-0.02175 0.0365,0.059115 -0.07622,0.1229639 0.0041,0.2540374 0.129477,0.2113003 0.07775,-0.026502 0.08332,-0.018986 0.03897,0.052628 -0.04235,0.06839 -0.03946,0.097027 0.01594,0.1578607 0.03722,0.040873 0.111222,0.066765 0.164441,0.057538 0.100018,-0.017341 0.136231,0.072761 0.04553,0.1132863 -0.08438,0.037702 0.212543,0.2114542 0.299182,0.1750732 0.110911,-0.04658 0.274544,0.02359 0.199026,0.08534 -0.158844,0.129888 0.611157,0.22244 0.850204,0.102192 z M 26.305509,7.5217714 C 26.659916,7.3331895 26.857918,6.8379478 26.767937,6.3651498 26.70141,6.0155905 26.59459,5.8456556 26.356038,5.7098794 26.135579,5.5844011 25.552624,5.4987608 25.358269,5.5633001 l -0.107574,0.035722 v 0.9976017 c 0,0.7453478 0.01295,1.0054642 0.05123,1.0286963 0.104394,0.063363 0.830745,-0.011581 1.003584,-0.1035487 z M 25.67078,7.1877762 C 25.634348,7.1683286 25.61955,6.995503 25.61955,6.5894715 V 6.0185138 l 0.287101,0.021464 c 0.338866,0.025334 0.444791,0.1275667 0.478696,0.4620128 0.02418,0.238509 -0.06129,0.522017 -0.182201,0.6043783 -0.0893,0.060831 -0.46367,0.1180782 -0.532366,0.081407 z m 1.547142,0.361262 c 0.04508,-0.059647 0.08197,-0.13285 0.08197,-0.1626735 0,-0.032695 0.170286,-0.054224 0.428889,-0.054224 0.385287,0 0.433298,0.010899 0.472254,0.1072063 0.02385,0.058963 0.08155,0.1342414 0.128211,0.1672843 0.102363,0.072482 0.282131,0.022908 0.282131,-0.077803 0,-0.039803 -0.148921,-0.4799106 -0.330935,-0.9780176 -0.348374,-0.9533733 -0.415233,-1.0578556 -0.631067,-0.9861838 -0.09035,0.030003 -0.152183,0.1601633 -0.389798,0.8205492 -0.373635,1.0384138 -0.404978,1.1552524 -0.327336,1.2202184 0.09615,0.08045 0.197377,0.06048 0.285684,-0.056356 z M 27.52627,6.8461939 c -0.0134,-0.028683 0.0293,-0.1925452 0.09488,-0.3641391 l 0.119238,-0.3119888 0.107623,0.2809997 c 0.15551,0.4060298 0.146761,0.4472784 -0.09488,0.4472784 -0.111375,0 -0.213463,-0.023468 -0.226861,-0.05215 z m 1.59405,0.7783797 c 0.04292,-0.021791 0.06483,-0.1005836 0.06483,-0.2331654 0,-0.2539145 0.05883,-0.3303906 0.254168,-0.3303906 0.139601,0 0.17082,0.027647 0.300141,0.2658079 0.150641,0.2774228 0.209596,0.3306617 0.366162,0.3306617 0.17634,0 0.192598,-0.1175794 0.05497,-0.3975159 L 30.03383,7.0021579 30.137272,6.8553581 C 30.352842,6.5494301 30.391616,6.240604 30.252388,5.9384916 30.12509,5.6622676 29.963371,5.585007 29.449711,5.5550161 c -0.671008,-0.039178 -0.633418,-0.101153 -0.633418,1.0443066 0,0.8421538 0.0078,0.9503067 0.07172,0.9995967 0.08385,0.064613 0.142757,0.071118 0.232305,0.025654 z m 0.0813,-1.0729865 c -0.01206,-0.041599 -0.0161,-0.1697043 -0.009,-0.2846787 l 0.01298,-0.2090442 0.300924,-0.016033 c 0.33638,-0.017922 0.416294,0.031658 0.416294,0.2582786 0,0.2406255 -0.112261,0.3271116 -0.424598,0.3271116 -0.197166,0 -0.280892,-0.021348 -0.296637,-0.075634 z m 1.694602,1.0717232 c 0.07434,-0.026357 0.09221,-0.071181 0.09221,-0.2312046 0,-0.2067749 0.09289,-0.4395371 0.175403,-0.4395371 0.02629,0 0.160045,0.1471843 0.29723,0.3270762 0.265633,0.348327 0.485214,0.4644164 0.61301,0.3240903 0.05303,-0.058228 0.01454,-0.1361998 -0.272805,-0.55263 L 31.466733,6.5662679 31.786618,6.1405412 c 0.234505,-0.3120971 0.312681,-0.4505622 0.292897,-0.5187756 -0.02163,-0.074559 -0.06067,-0.087071 -0.196499,-0.062967 -0.144413,0.025628 -0.218954,0.095158 -0.503445,0.4696043 -0.183664,0.2417374 -0.346804,0.4224953 -0.362533,0.4016843 -0.01573,-0.020811 -0.0286,-0.2163143 -0.0286,-0.4344517 0,-0.3839976 -0.0035,-0.3977625 -0.108803,-0.4327434 -0.223801,-0.074317 -0.238514,-0.014733 -0.250817,1.0156992 -0.01001,0.8388126 -0.0035,0.9503394 0.05906,1.0108649 0.08019,0.077578 0.08351,0.078117 0.208343,0.033854 z"
         id="path2340"
         inkscape:connector-curvature="0" />
      <path
         style="fill:#25545d;stroke-width:0.0471416"
         d="m 34.823153,10.157357 c -0.115485,-0.05983 -0.0061,-0.133689 0.130669,-0.08826 0.08512,0.02827 0.09556,0.04655 0.0489,0.08561 -0.06853,0.05737 -0.07381,0.05744 -0.179569,0.0026 z m 1.093343,0.01266 c -0.07974,-0.04253 -0.01672,-0.126649 0.09489,-0.126649 0.112479,0 0.134072,0.07957 0.03521,0.12976 -0.03566,0.0181 -0.06793,0.03099 -0.07172,0.02863 -0.0038,-0.0024 -0.03006,-0.01664 -0.05838,-0.03174 z M 34.410593,9.8264676 c -0.01393,-0.029823 0.01264,-0.054225 0.05906,-0.054225 0.04641,0 0.08439,0.024401 0.08439,0.054225 0,0.029823 -0.02658,0.054224 -0.05906,0.054224 -0.03248,0 -0.07046,-0.024401 -0.08439,-0.054224 z m 1.926243,0 c -0.01393,-0.029823 0.01264,-0.054225 0.05906,-0.054225 0.04641,0 0.08439,0.024401 0.08439,0.054225 0,0.029823 -0.02658,0.054224 -0.05906,0.054224 -0.03248,0 -0.07046,-0.024401 -0.08439,-0.054224 z M 34.185182,9.5553451 c 0,-0.029824 0.02875,-0.054225 0.0639,-0.054225 0.03514,0 0.0525,0.024401 0.03856,0.054225 -0.01393,0.029823 -0.04268,0.054225 -0.06389,0.054225 -0.02121,0 -0.03857,-0.024401 -0.03857,-0.054225 z m 2.438541,0 c -0.01393,-0.029824 0.0034,-0.054225 0.03856,-0.054225 0.03514,0 0.0639,0.024401 0.0639,0.054225 0,0.029823 -0.01736,0.054225 -0.03856,0.054225 -0.02121,0 -0.04996,-0.024401 -0.0639,-0.054225 z M 34.021246,9.2842225 c 0,-0.029823 0.02875,-0.054225 0.0639,-0.054225 0.03514,0 0.0525,0.024401 0.03856,0.054225 -0.01393,0.029823 -0.04268,0.054225 -0.06389,0.054225 -0.02121,0 -0.03857,-0.024401 -0.03857,-0.054225 z m 2.766412,0 c -0.01393,-0.029823 0.0034,-0.054225 0.03857,-0.054225 0.03514,0 0.06389,0.024401 0.06389,0.054225 0,0.029823 -0.01735,0.054225 -0.03856,0.054225 -0.02121,0 -0.04996,-0.024401 -0.0639,-0.054225 z m 0.13576,-0.308164 c 0.02959,-0.015664 0.06493,-0.013738 0.07855,0.00428 0.01362,0.018018 -0.01059,0.030834 -0.05379,0.02848 -0.04774,-0.0026 -0.05746,-0.015451 -0.02476,-0.032761 z M 23.621586,8.0011469 c -0.03906,-0.020853 -0.05123,-0.3483052 -0.05123,-1.378444 V 5.2716088 h 7.049228 7.049228 v 1.3498113 c 0,1.5006065 0.01727,1.4156387 -0.28782,1.4156387 -0.183502,0 -0.203705,-0.030273 -0.226769,-0.339802 C 37.109675,7.0994222 36.853914,6.5535215 36.407046,6.1024687 36.070279,5.7625485 35.33324,5.60565 34.998919,5.8027112 c -0.09817,0.057864 -0.228554,0.1208929 -0.289748,0.1400648 -0.06119,0.019172 -0.15718,0.095612 -0.213303,0.1698661 -0.05612,0.074254 -0.127583,0.1350079 -0.158801,0.1350079 -0.03122,0 -0.07777,0.061003 -0.103444,0.1355613 -0.02568,0.074559 -0.06598,0.1355612 -0.08956,0.1355612 -0.02358,0 -0.06106,0.054902 -0.08328,0.1220052 -0.02222,0.067103 -0.08482,0.2196092 -0.139103,0.3389032 -0.05428,0.1192939 -0.121066,0.3755047 -0.148407,0.5693573 -0.02734,0.1938526 -0.06798,0.3829606 -0.09031,0.42024 -0.03211,0.053601 -1.083416,0.066885 -5.025372,0.0635 -2.741623,-0.00235 -5.007823,-0.016588 -5.035999,-0.031631 z M 26.305509,7.5217714 C 26.659916,7.3331895 26.857918,6.8379478 26.767937,6.3651498 26.70141,6.0155905 26.59459,5.8456556 26.356038,5.7098794 26.135579,5.5844011 25.552624,5.4987608 25.358269,5.5633001 l -0.107574,0.035722 v 0.9976017 c 0,0.7453478 0.01295,1.0054642 0.05123,1.0286963 0.104394,0.063363 0.830745,-0.011581 1.003584,-0.1035487 z M 25.67078,7.1877762 C 25.634348,7.1683286 25.61955,6.995503 25.61955,6.5894715 V 6.0185138 l 0.287101,0.021464 c 0.338866,0.025334 0.444791,0.1275667 0.478696,0.4620128 0.02418,0.238509 -0.06129,0.522017 -0.182201,0.6043783 -0.0893,0.060831 -0.46367,0.1180782 -0.532366,0.081407 z m 1.547142,0.361262 c 0.04508,-0.059647 0.08197,-0.13285 0.08197,-0.1626735 0,-0.032695 0.170286,-0.054224 0.428889,-0.054224 0.385287,0 0.433298,0.010899 0.472254,0.1072063 0.02385,0.058963 0.08155,0.1342414 0.128211,0.1672843 0.102363,0.072482 0.282131,0.022908 0.282131,-0.077803 0,-0.039803 -0.148921,-0.4799106 -0.330935,-0.9780176 -0.348374,-0.9533733 -0.415233,-1.0578556 -0.631067,-0.9861838 -0.09035,0.030003 -0.152183,0.1601633 -0.389798,0.8205492 -0.373635,1.0384138 -0.404978,1.1552524 -0.327336,1.2202184 0.09615,0.08045 0.197377,0.06048 0.285684,-0.056356 z M 27.52627,6.8461939 c -0.0134,-0.028683 0.0293,-0.1925452 0.09488,-0.3641391 l 0.119238,-0.3119888 0.107623,0.2809997 c 0.15551,0.4060298 0.146761,0.4472784 -0.09488,0.4472784 -0.111375,0 -0.213463,-0.023468 -0.226861,-0.05215 z m 1.59405,0.7783797 c 0.04292,-0.021791 0.06483,-0.1005836 0.06483,-0.2331654 0,-0.2539145 0.05883,-0.3303906 0.254168,-0.3303906 0.139601,0 0.17082,0.027647 0.300141,0.2658079 0.150641,0.2774228 0.209596,0.3306617 0.366162,0.3306617 0.17634,0 0.192598,-0.1175794 0.05497,-0.3975159 L 30.03383,7.0021579 30.137272,6.8553581 C 30.352842,6.5494301 30.391616,6.240604 30.252388,5.9384916 30.12509,5.6622676 29.963371,5.585007 29.449711,5.5550161 c -0.671008,-0.039178 -0.633418,-0.101153 -0.633418,1.0443066 0,0.8421538 0.0078,0.9503067 0.07172,0.9995967 0.08385,0.064613 0.142757,0.071118 0.232305,0.025654 z m 0.0813,-1.0729865 c -0.01206,-0.041599 -0.0161,-0.1697043 -0.009,-0.2846787 l 0.01298,-0.2090442 0.300924,-0.016033 c 0.33638,-0.017922 0.416294,0.031658 0.416294,0.2582786 0,0.2406255 -0.112261,0.3271116 -0.424598,0.3271116 -0.197166,0 -0.280892,-0.021348 -0.296637,-0.075634 z m 1.694602,1.0717232 c 0.07434,-0.026357 0.09221,-0.071181 0.09221,-0.2312046 0,-0.2067749 0.09289,-0.4395371 0.175403,-0.4395371 0.02629,0 0.160045,0.1471843 0.29723,0.3270762 0.265633,0.348327 0.485214,0.4644164 0.61301,0.3240903 0.05303,-0.058228 0.01454,-0.1361998 -0.272805,-0.55263 L 31.466733,6.5662679 31.786618,6.1405412 c 0.234505,-0.3120971 0.312681,-0.4505622 0.292897,-0.5187756 -0.02163,-0.074559 -0.06067,-0.087071 -0.196499,-0.062967 -0.144413,0.025628 -0.218954,0.095158 -0.503445,0.4696043 -0.183664,0.2417374 -0.346804,0.4224953 -0.362533,0.4016843 -0.01573,-0.020811 -0.0286,-0.2163143 -0.0286,-0.4344517 0,-0.3839976 -0.0035,-0.3977625 -0.108803,-0.4327434 -0.223801,-0.074317 -0.238514,-0.014733 -0.250817,1.0156992 -0.01001,0.8388126 -0.0035,0.9503394 0.05906,1.0108649 0.08019,0.077578 0.08351,0.078117 0.208343,0.033854 z"
         id="path2338"
         inkscape:connector-curvature="0" />
      <path
         style="fill:#233741;stroke-width:0.0471416"
         d="m 23.570353,6.6136654 3e-6,-1.3420566 h 7.049228 7.049228 V 6.633023 c 0,1.2191539 -0.0068,1.3579748 -0.06483,1.3285005 -0.03565,-0.018103 -0.134996,-0.032914 -0.220758,-0.032914 -0.154419,0 -0.15621,-0.00247 -0.184882,-0.2554357 C 37.102592,6.8283931 36.680364,6.1428672 36.049947,5.8086562 35.691403,5.6185767 35.17333,5.6298163 34.79358,5.8359132 c -0.54222,0.2942722 -1.005393,1.0523809 -1.079702,1.7672279 -0.01595,0.153428 -0.05014,0.2893958 -0.07598,0.3021506 -0.02584,0.012755 -2.301611,0.02932 -5.057266,0.03681 l -5.010282,0.01362 z m 2.826305,0.8802978 C 26.710081,7.2630449 26.845937,6.8790932 26.789721,6.3831071 26.756678,6.0915697 26.615556,5.8525147 26.382843,5.6938712 26.174248,5.5516696 25.376025,5.4818391 25.27147,5.5966456 c -0.05064,0.055601 -0.06176,0.2355647 -0.06176,0.9992583 0,0.6718928 0.01428,0.9508353 0.05123,1.0010317 0.03737,0.050754 0.173243,0.064465 0.502053,0.050663 0.387736,-0.016276 0.476409,-0.037775 0.633664,-0.1536352 z M 25.61955,6.5937924 V 6.0181181 l 0.267475,0.022534 c 0.354578,0.029872 0.477066,0.1747249 0.477066,0.5641752 0,0.2271383 -0.01788,0.2854687 -0.127014,0.4144889 -0.108786,0.1286025 -0.16221,0.1501505 -0.37227,0.1501505 H 25.61955 Z m 1.58199,1.0221961 c 0.0248,-0.021911 0.06695,-0.09474 0.09366,-0.1618432 0.04539,-0.1140308 0.07519,-0.1220051 0.455905,-0.1220051 h 0.407345 l 0.06358,0.1626735 c 0.05459,0.1396744 0.08679,0.1626735 0.22775,0.1626735 0.09845,0 0.172507,-0.028749 0.184999,-0.071819 0.01146,-0.0395 -0.141275,-0.5092203 -0.339403,-1.0438218 L 27.93514,5.5698436 27.771204,5.5556958 c -0.09016,-0.00778 -0.18616,0.00518 -0.213324,0.028806 -0.07538,0.065563 -0.715541,1.9173527 -0.69149,2.0002777 0.02234,0.077024 0.258408,0.099006 0.33515,0.031209 z M 27.545793,6.796788 c 0,-0.065314 0.163573,-0.549138 0.185655,-0.549138 0.01914,0 0.224184,0.5191054 0.224184,0.5675547 0,0.015903 -0.09221,0.028915 -0.20492,0.028915 -0.112706,0 -0.204919,-0.021299 -0.204919,-0.047332 z m 1.631158,0.7956298 c 0.02705,-0.035788 0.04918,-0.1577933 0.04918,-0.2711225 V 7.1152421 h 0.196083 c 0.176326,0 0.203738,0.017146 0.272057,0.1701638 0.129912,0.290974 0.215755,0.3720813 0.393808,0.3720813 0.219633,0 0.240904,-0.098573 0.08568,-0.3970692 l -0.124992,-0.2403606 0.08468,-0.1013971 c 0.128533,-0.1539006 0.199244,-0.3709332 0.199244,-0.6115416 0,-0.2974849 -0.06952,-0.4741016 -0.242695,-0.6166017 C 29.957284,5.5813098 29.890778,5.5698436 29.390067,5.5698436 h -0.553282 l -0.01123,0.9742183 c -0.0062,0.53582 -0.0021,1.0055398 0.009,1.0438218 0.02549,0.087902 0.276907,0.091231 0.342434,0.00453 z m 0.04918,-1.2634311 V 6.0307519 h 0.280535 c 0.326621,0 0.446217,0.1054572 0.399412,0.3521923 -0.03288,0.1733061 -0.16571,0.2442773 -0.457204,0.2442773 h -0.222743 z m 1.760865,1.2236163 c 0.02333,-0.057686 0.04243,-0.1759096 0.04243,-0.2627184 0,-0.088606 0.03571,-0.2005866 0.08141,-0.2553064 0.07947,-0.095156 0.0876,-0.088913 0.341849,0.2627184 0.248686,0.3439298 0.269122,0.3601906 0.452671,0.3601906 0.301515,0 0.289144,-0.1024565 -0.07159,-0.5928971 -0.171893,-0.233703 -0.312534,-0.4622811 -0.312534,-0.5079512 0,-0.04567 0.140682,-0.2545449 0.312626,-0.4641661 0.354428,-0.4320934 0.374499,-0.5497415 0.09379,-0.5497415 -0.156575,0 -0.197757,0.034879 -0.52383,0.4436571 l -0.353896,0.443657 -0.02049,-0.3868898 c -0.01127,-0.2127893 -0.0412,-0.4142124 -0.06651,-0.4476068 -0.02531,-0.033394 -0.108303,-0.052839 -0.184428,-0.043211 l -0.138409,0.017506 -0.01123,0.9742183 c -0.0062,0.53582 -0.0021,1.0055398 0.009,1.0438218 0.03295,0.1136184 0.299867,0.086651 0.349189,-0.035281 z"
         id="path2336"
         inkscape:connector-curvature="0" />
      <path
         style="fill:#192c36;stroke-width:0.0471416"
         d="M 23.570356,6.6543338 V 5.3258333 h 7.049228 7.049228 v 1.3285005 c 0,0.8495173 -0.01478,1.3285005 -0.04098,1.3285005 -0.02254,0 -0.04098,-0.024401 -0.04098,-0.054225 0,-0.029824 -0.07137,-0.054225 -0.158603,-0.054225 H 37.269638 L 37.222044,7.5543165 C 37.102935,6.7533062 36.707453,6.1231083 36.110108,5.7824547 35.881818,5.6522655 35.790994,5.6312854 35.455682,5.6312854 c -0.335741,0 -0.426024,0.020912 -0.655742,0.1518902 -0.354378,0.2020555 -0.560856,0.4052658 -0.761129,0.7490842 -0.194489,0.3338907 -0.32657,0.7243277 -0.366894,1.0845591 l -0.02883,0.2575664 h -4.99538 c -3.302931,0 -4.99538,0.018371 -4.99538,0.054225 0,0.029824 -0.01844,0.054225 -0.04098,0.054225 -0.02621,0 -0.04098,-0.4789832 -0.04098,-1.3285005 z m 2.807396,0.9110298 C 26.721503,7.3245548 26.878791,6.9401874 26.83478,6.4485232 26.801926,6.0815047 26.654877,5.8024257 26.412574,5.6472339 26.253439,5.5453102 26.12963,5.5172968 25.754288,5.4982882 c -0.331795,-0.016803 -0.479687,-0.00431 -0.523925,0.044267 -0.05072,0.055695 -0.06164,0.2422117 -0.06164,1.0533483 0,0.7153117 0.01405,1.0047357 0.05123,1.0551824 0.03763,0.051061 0.17634,0.064152 0.522545,0.049316 0.381208,-0.016336 0.502656,-0.042153 0.63525,-0.1350392 z M 25.660534,6.593592 V 6.0719419 l 0.244368,0.023386 c 0.324322,0.031038 0.411374,0.1344188 0.411374,0.4885376 0,0.382161 -0.120317,0.5313762 -0.428468,0.5313762 h -0.227274 z m 1.631016,0.9557891 c 0.06946,-0.1615064 0.0717,-0.1623325 0.441209,-0.1626736 0.365261,-3.361e-4 0.372894,0.00234 0.462295,0.1623307 0.06989,0.1250773 0.122996,0.1626735 0.229767,0.1626735 0.1749,0 0.26852,-0.046558 0.26852,-0.1335364 0,-0.1016895 -0.696884,-2.0016672 -0.751703,-2.0494343 -0.02612,-0.022756 -0.130475,-0.035018 -0.23191,-0.027248 l -0.184427,0.014127 -0.2536,0.6778064 c -0.36004,0.9622943 -0.47766,1.3374337 -0.449634,1.4340644 0.01716,0.059175 0.08022,0.084222 0.212047,0.084222 0.165509,0 0.195848,-0.019131 0.257436,-0.1623306 z m 0.296944,-0.8001544 c 9.45e-4,-0.022368 0.03559,-0.1248172 0.07698,-0.2276658 l 0.07527,-0.1869975 0.08779,0.2276658 0.08779,0.2276659 h -0.164769 c -0.09062,0 -0.163995,-0.018301 -0.163051,-0.040668 z m 1.629441,0.8974156 c 0.02705,-0.035788 0.04918,-0.1577933 0.04918,-0.2711225 0,-0.2034209 0.002,-0.2060532 0.160091,-0.2060532 0.145157,0 0.173824,0.025291 0.307311,0.2711226 0.143154,0.2636343 0.152917,0.2711225 0.353494,0.2711225 0.300275,0 0.312864,-0.090387 0.0805,-0.5779709 -0.05051,-0.105979 -0.04302,-0.1363014 0.07906,-0.3202582 0.128255,-0.1932654 0.134019,-0.2203562 0.117945,-0.5543387 -0.01499,-0.3115527 -0.03141,-0.3683004 -0.145626,-0.5033187 -0.0708,-0.083697 -0.19887,-0.1779467 -0.284601,-0.2094446 -0.166494,-0.061171 -0.986996,-0.079871 -1.095151,-0.02496 -0.05602,0.028441 -0.06483,0.1752133 -0.06483,1.0799715 0,0.7869099 0.01273,1.0538531 0.05123,1.0744079 0.0996,0.053171 0.342868,0.035048 0.391396,-0.029158 z m 0.04918,-1.3176556 V 6.0849764 h 0.258198 c 0.265781,0 0.35656,0.0572 0.35656,0.2246682 0,0.1554601 -0.163247,0.2633524 -0.398466,0.2633524 h -0.216292 z m 1.760865,1.2778408 c 0.02333,-0.057686 0.04243,-0.1926578 0.04243,-0.2999366 0,-0.3183926 0.09375,-0.3001628 0.389647,0.075767 0.261911,0.3327524 0.264899,0.3347357 0.479605,0.31839 0.316713,-0.024112 0.306247,-0.1204541 -0.07315,-0.6733639 L 31.549323,6.5654393 31.867172,6.1424229 c 0.38513,-0.51256 0.396886,-0.6185727 0.07134,-0.6433047 L 31.72131,5.4826173 31.395859,5.9016492 31.070407,6.3206811 V 5.9962946 c 0,-0.4284536 -0.05307,-0.5200903 -0.288374,-0.4979157 l -0.182941,0.01724 -0.01116,1.0534333 c -0.01229,1.1607312 -0.01666,1.1403999 0.245372,1.141829 0.109001,5.943e-4 0.164298,-0.028962 0.194673,-0.1040539 z"
         id="path2334"
         inkscape:connector-curvature="0" />
    </g>
  </g>
</svg>
