<?xml version="1.0" encoding="UTF-8" standalone="no"?>
<svg
   xmlns:dc="http://purl.org/dc/elements/1.1/"
   xmlns:cc="http://creativecommons.org/ns#"
   xmlns:rdf="http://www.w3.org/1999/02/22-rdf-syntax-ns#"
   xmlns:svg="http://www.w3.org/2000/svg"
   xmlns="http://www.w3.org/2000/svg"
   xmlns:sodipodi="http://sodipodi.sourceforge.net/DTD/sodipodi-0.dtd"
   xmlns:inkscape="http://www.inkscape.org/namespaces/inkscape"
   width="60.959999mm"
   height="128.5mm"
   viewBox="0 0 60.96 128.5"
   version="1.1"
   id="svg3705"
   inkscape:version="1.0beta1 (76ce730, 2019-10-19)"
   sodipodi:docname="genloss.svg">
  <defs
     id="defs3699" />
  <sodipodi:namedview
     id="base"
     pagecolor="#ffffff"
     bordercolor="#666666"
     borderopacity="1.0"
     inkscape:pageopacity="0.0"
     inkscape:pageshadow="2"
     inkscape:zoom="1.3836576"
     inkscape:cx="141.218"
     inkscape:cy="242.83465"
     inkscape:document-units="mm"
     inkscape:current-layer="svg3705"
     showgrid="false"
     inkscape:window-width="1600"
     inkscape:window-height="880"
     inkscape:window-x="0"
     inkscape:window-y="23"
     inkscape:window-maximized="0"
     inkscape:document-rotation="0" />
  <metadata
     id="metadata3702">
    <rdf:RDF>
      <cc:Work
         rdf:about="">
        <dc:format>image/svg+xml</dc:format>
        <dc:type
           rdf:resource="http://purl.org/dc/dcmitype/StillImage" />
        <dc:title></dc:title>
      </cc:Work>
    </rdf:RDF>
  </metadata>
  <g
     inkscape:label="background"
     inkscape:groupmode="layer"
     id="layer1"
     transform="translate(0,-168.5)"
     style="mix-blend-mode:normal"
     sodipodi:insensitive="true">
    <rect
       style="opacity:1;fill:#2c4c7f;fill-opacity:1;stroke-width:0.288951"
       id="rect3711"
       width="62.706249"
       height="129.38126"
       x="-0.79375005"
       y="168.1479" />
  </g>
  <g
     sodipodi:insensitive="true"
     inkscape:groupmode="layer"
     id="layer2"
     inkscape:label="text"
     style="display:inline">
    <g
       transform="translate(-11.641667,2.6458334)"
       style="font-style:normal;font-weight:normal;font-size:10.5833px;line-height:1.25;font-family:sans-serif;fill:#cccccc;fill-opacity:0.997067;stroke:none;stroke-width:0.264583"
       id="text348"
       aria-label="EXPR">
      <path
         inkscape:connector-curvature="0"
         id="path397"
         style="font-style:normal;font-variant:normal;font-weight:bold;font-stretch:normal;font-size:3.52778px;font-family:sans-serif;-inkscape-font-specification:'sans-serif Bold';font-variant-ligatures:normal;font-variant-caps:normal;font-variant-numeric:normal;font-variant-east-asian:normal;fill:#cccccc;fill-opacity:0.997067;stroke-width:0.264583"
         d="m 51.975251,97.585861 h -1.855185 v -2.564875 h 1.855185 V 95.51708 H 50.77808 v 0.442695 h 1.111044 v 0.496094 H 50.77808 v 0.633898 h 1.197171 z" />
      <path
         inkscape:connector-curvature="0"
         id="path399"
         style="font-style:normal;font-variant:normal;font-weight:bold;font-stretch:normal;font-size:3.52778px;font-family:sans-serif;-inkscape-font-specification:'sans-serif Bold';font-variant-ligatures:normal;font-variant-caps:normal;font-variant-numeric:normal;font-variant-east-asian:normal;fill:#cccccc;fill-opacity:0.997067;stroke-width:0.264583"
         d="m 54.857075,97.585861 h -0.764811 l -0.552938,-0.844049 -0.563274,0.844049 h -0.730361 l 0.909506,-1.291911 -0.890558,-1.272964 h 0.76309 l 0.53399,0.799263 0.549493,-0.799263 h 0.732083 l -0.895725,1.247125 z" />
      <path
         inkscape:connector-curvature="0"
         id="path401"
         style="font-style:normal;font-variant:normal;font-weight:bold;font-stretch:normal;font-size:3.52778px;font-family:sans-serif;-inkscape-font-specification:'sans-serif Bold';font-variant-ligatures:normal;font-variant-caps:normal;font-variant-numeric:normal;font-variant-east-asian:normal;fill:#cccccc;fill-opacity:0.997067;stroke-width:0.264583"
         d="m 57.342713,95.830584 q 0,0.172255 -0.06029,0.337619 -0.06029,0.163643 -0.172255,0.275608 -0.153307,0.151585 -0.342787,0.229099 -0.187758,0.07752 -0.468533,0.07752 H 55.88716 v 0.835436 h -0.661459 v -2.564875 h 1.088651 q 0.244602,0 0.411689,0.04306 0.16881,0.04134 0.298001,0.125746 0.155029,0.10163 0.235989,0.260105 0.08268,0.158474 0.08268,0.380683 z m -0.683852,0.0155 q 0,-0.108521 -0.05857,-0.186035 -0.05857,-0.07924 -0.136082,-0.110244 -0.103353,-0.04134 -0.201538,-0.04479 -0.09819,-0.0052 -0.261827,-0.0052 H 55.88716 v 0.768256 h 0.18948 q 0.16881,0 0.27733,-0.02067 0.110243,-0.02067 0.184313,-0.08268 0.06373,-0.05512 0.0913,-0.130913 0.02928,-0.07752 0.02928,-0.187758 z" />
      <path
         inkscape:connector-curvature="0"
         id="path403"
         style="font-style:normal;font-variant:normal;font-weight:bold;font-stretch:normal;font-size:3.52778px;font-family:sans-serif;-inkscape-font-specification:'sans-serif Bold';font-variant-ligatures:normal;font-variant-caps:normal;font-variant-numeric:normal;font-variant-east-asian:normal;fill:#cccccc;fill-opacity:0.997067;stroke-width:0.264583"
         d="m 59.247852,95.806468 q 0,-0.09646 -0.03962,-0.165364 -0.03962,-0.0689 -0.136082,-0.108521 -0.06718,-0.02756 -0.156752,-0.03273 -0.08957,-0.0069 -0.208428,-0.0069 h -0.239434 v 0.690742 h 0.20326 q 0.158475,0 0.265273,-0.0155 0.106798,-0.0155 0.179145,-0.07062 0.0689,-0.0534 0.09991,-0.117133 0.03273,-0.06546 0.03273,-0.173978 z m 1.031807,1.779393 H 59.471784 L 58.772429,96.64535 h -0.304891 v 0.940511 h -0.658014 v -2.564875 h 1.109321 q 0.227377,0 0.391019,0.02584 0.163642,0.02584 0.306614,0.111966 0.144694,0.08613 0.229099,0.223931 0.08613,0.136082 0.08613,0.342787 0,0.284221 -0.132636,0.463366 -0.130914,0.179145 -0.375516,0.298001 z" />
    </g>
  </g>
  <g
     transform="translate(-2.1034224,-0.19122024)"
     style="font-size:1.76389px;line-height:1.25;font-family:sans-serif;-inkscape-font-specification:'sans-serif Normal';stroke-width:0.264583"
     id="text847"
     aria-label="NONE">
    <path
       inkscape:connector-curvature="0"
       id="path881"
       style="fill:#ffffff;fill-opacity:1;stroke-width:0.264583"
       d="M 53.736222,63.485119 H 53.52521 l -0.60806,-1.147218 v 1.147218 h -0.159335 v -1.282438 h 0.264411 l 0.554661,1.04731 v -1.04731 h 0.159335 z" />
    <path
       inkscape:connector-curvature="0"
       id="path883"
       style="fill:#ffffff;fill-opacity:1;stroke-width:0.264583"
       d="m 55.033302,62.349959 q 0.07838,0.08613 0.119717,0.211012 0.0422,0.124885 0.0422,0.28336 0,0.158474 -0.04306,0.28422 -0.0422,0.124885 -0.118856,0.208429 -0.07924,0.08699 -0.187758,0.130913 -0.107659,0.04393 -0.246325,0.04393 -0.13522,0 -0.246324,-0.04479 -0.110243,-0.04479 -0.187758,-0.130052 -0.07751,-0.08527 -0.119717,-0.20929 -0.04134,-0.124024 -0.04134,-0.283359 0,-0.156752 0.04134,-0.280776 0.04134,-0.124885 0.120578,-0.213596 0.07579,-0.0844 0.187758,-0.129191 0.112827,-0.04479 0.245463,-0.04479 0.137804,0 0.247186,0.04565 0.110243,0.04479 0.186897,0.12833 z m -0.0155,0.494372 q 0,-0.24977 -0.111966,-0.38499 -0.111966,-0.136081 -0.305752,-0.136081 -0.19551,0 -0.307475,0.136081 -0.111105,0.13522 -0.111105,0.38499 0,0.252353 0.113689,0.386712 0.113688,0.133497 0.304891,0.133497 0.191203,0 0.30403,-0.133497 0.113688,-0.134359 0.113688,-0.386712 z" />
    <path
       inkscape:connector-curvature="0"
       id="path885"
       style="fill:#ffffff;fill-opacity:1;stroke-width:0.264583"
       d="m 56.444069,63.485119 h -0.211012 l -0.60806,-1.147218 v 1.147218 h -0.159336 v -1.282438 h 0.264412 l 0.55466,1.04731 v -1.04731 h 0.159336 z" />
    <path
       inkscape:connector-curvature="0"
       id="path887"
       style="fill:#ffffff;fill-opacity:1;stroke-width:0.264583"
       d="m 57.630044,63.485119 h -0.84491 v -1.282438 h 0.84491 v 0.151585 h -0.674378 v 0.3514 h 0.674378 v 0.151584 h -0.674378 v 0.476285 h 0.674378 z" />
  </g>
  <g
     transform="translate(-2.1034224,-0.38244048)"
     style="font-size:1.76389px;line-height:1.25;font-family:sans-serif;-inkscape-font-specification:'sans-serif Normal';fill:#ffffff;fill-opacity:1;stroke-width:0.264583"
     id="text851"
     aria-label="MILD">
    <path
       inkscape:connector-curvature="0"
       id="path890"
       style="fill:#ffffff;fill-opacity:1;stroke-width:0.264583"
       d="m 53.899861,66.927086 h -0.170533 v -1.105015 l -0.356567,0.751892 H 53.27113 l -0.353983,-0.751892 v 1.105015 h -0.159336 v -1.282438 h 0.232544 l 0.341926,0.713997 0.330729,-0.713997 h 0.236851 z" />
    <path
       inkscape:connector-curvature="0"
       id="path892"
       style="fill:#ffffff;fill-opacity:1;stroke-width:0.264583"
       d="m 54.698262,66.927086 h -0.506429 v -0.130914 h 0.167948 v -1.02061 h -0.167948 v -0.130914 h 0.506429 v 0.130914 h -0.167948 v 1.02061 h 0.167948 z" />
    <path
       inkscape:connector-curvature="0"
       id="path894"
       style="fill:#ffffff;fill-opacity:1;stroke-width:0.264583"
       d="m 55.801555,66.927086 h -0.811321 v -1.282438 h 0.170533 v 1.130854 h 0.640788 z" />
    <path
       inkscape:connector-curvature="0"
       id="path896"
       style="fill:#ffffff;fill-opacity:1;stroke-width:0.264583"
       d="m 57.05557,66.287159 q 0,0.174839 -0.07665,0.316949 -0.07579,0.14211 -0.2024,0.220486 -0.08785,0.05426 -0.19637,0.07838 -0.10766,0.02412 -0.284221,0.02412 H 55.97209 v -1.282438 h 0.320394 q 0.187758,0 0.298001,0.02756 0.111104,0.0267 0.187758,0.07407 0.130914,0.08182 0.204122,0.217902 0.07321,0.136081 0.07321,0.322978 z m -0.178284,-0.0026 q 0,-0.150723 -0.05254,-0.254076 -0.05254,-0.103353 -0.156752,-0.162781 -0.07579,-0.04306 -0.161059,-0.05943 -0.08527,-0.01722 -0.204122,-0.01722 h -0.160197 v 0.989604 h 0.160197 q 0.123163,0 0.214458,-0.01809 0.09216,-0.01809 0.168809,-0.06718 0.0956,-0.06115 0.142972,-0.161058 0.04823,-0.09991 0.04823,-0.24977 z" />
  </g>
  <g
     transform="translate(-2.1034224,-0.57366072)"
     style="font-size:1.76389px;line-height:1.25;font-family:sans-serif;-inkscape-font-specification:'sans-serif Normal';stroke-width:0.264583"
     id="text855"
     aria-label="HEAVY">
    <path
       inkscape:connector-curvature="0"
       id="path899"
       style="fill:#ffffff;fill-opacity:1;stroke-width:0.264583"
       d="m 53.738806,70.560265 h -0.170532 v -0.627869 h -0.639927 v 0.627869 h -0.170532 v -1.282438 h 0.170532 v 0.502984 h 0.639927 v -0.502984 h 0.170532 z" />
    <path
       inkscape:connector-curvature="0"
       id="path901"
       style="fill:#ffffff;fill-opacity:1;stroke-width:0.264583"
       d="m 54.929088,70.560265 h -0.844911 v -1.282438 h 0.844911 v 0.151584 H 54.25471 v 0.3514 h 0.674378 v 0.151585 H 54.25471 v 0.476284 h 0.674378 z" />
    <path
       inkscape:connector-curvature="0"
       id="path903"
       style="fill:#ffffff;fill-opacity:1;stroke-width:0.264583"
       d="M 56.211525,70.560265 H 56.029796 L 55.90405,70.202836 h -0.554661 l -0.125746,0.357429 h -0.173116 l 0.466811,-1.282438 h 0.227376 z m -0.360013,-0.503846 -0.224792,-0.629592 -0.225654,0.629592 z" />
    <path
       inkscape:connector-curvature="0"
       id="path905"
       style="fill:#ffffff;fill-opacity:1;stroke-width:0.264583"
       d="m 57.417309,69.277827 -0.46681,1.282438 h -0.227377 l -0.466811,-1.282438 h 0.182591 l 0.402215,1.128269 0.402215,-1.128269 z" />
    <path
       inkscape:connector-curvature="0"
       id="path907"
       style="fill:#ffffff;fill-opacity:1;stroke-width:0.264583"
       d="m 58.519741,69.277827 -0.451308,0.720025 v 0.562413 H 57.897901 V 70.015939 L 57.44487,69.277827 h 0.188619 l 0.350539,0.573609 0.353984,-0.573609 z" />
  </g>
  <g
     transform="translate(-1.720982,-0.38244048)"
     style="font-size:1.76389px;line-height:1.25;font-family:sans-serif;-inkscape-font-specification:'sans-serif Normal';fill:#ffffff;fill-opacity:1;stroke-width:0.264583"
     id="text859"
     aria-label="NONE">
    <path
       inkscape:connector-curvature="0"
       id="path910"
       style="fill:#ffffff;fill-opacity:1;stroke-width:0.264583"
       d="m 33.275659,63.676334 h -0.211012 l -0.60806,-1.147217 v 1.147217 h -0.159336 v -1.282437 h 0.264411 l 0.554661,1.047309 v -1.047309 h 0.159336 z" />
    <path
       inkscape:connector-curvature="0"
       id="path912"
       style="fill:#ffffff;fill-opacity:1;stroke-width:0.264583"
       d="m 34.572738,62.541175 q 0.07838,0.08613 0.119717,0.211012 0.0422,0.124885 0.0422,0.283359 0,0.158475 -0.04306,0.284221 -0.0422,0.124885 -0.118856,0.208428 -0.07924,0.08699 -0.187758,0.130914 -0.107659,0.04393 -0.246324,0.04393 -0.13522,0 -0.246325,-0.04479 -0.110243,-0.04479 -0.187758,-0.130053 -0.07751,-0.08527 -0.119717,-0.20929 -0.04134,-0.124023 -0.04134,-0.283359 0,-0.156752 0.04134,-0.280775 0.04134,-0.124885 0.120579,-0.213596 0.07579,-0.08441 0.187758,-0.129191 0.112827,-0.04479 0.245463,-0.04479 0.137804,0 0.247186,0.04565 0.110243,0.04479 0.186895,0.12833 z m -0.0155,0.494371 q 0,-0.249769 -0.111965,-0.384989 -0.111966,-0.136082 -0.305753,-0.136082 -0.195509,0 -0.307475,0.136082 -0.111104,0.13522 -0.111104,0.384989 0,0.252354 0.113688,0.386712 0.113688,0.133498 0.304891,0.133498 0.191203,0 0.30403,-0.133498 0.113688,-0.134358 0.113688,-0.386712 z" />
    <path
       inkscape:connector-curvature="0"
       id="path914"
       style="fill:#ffffff;fill-opacity:1;stroke-width:0.264583"
       d="m 35.983505,63.676334 h -0.211012 l -0.60806,-1.147217 v 1.147217 h -0.159335 v -1.282437 h 0.264411 l 0.554661,1.047309 v -1.047309 h 0.159335 z" />
    <path
       inkscape:connector-curvature="0"
       id="path916"
       style="fill:#ffffff;fill-opacity:1;stroke-width:0.264583"
       d="m 37.16948,63.676334 h -0.84491 v -1.282437 h 0.84491 v 0.151584 h -0.674378 v 0.3514 h 0.674378 v 0.151584 h -0.674378 v 0.476285 h 0.674378 z" />
  </g>
  <g
     transform="translate(-1.720982,-0.57366072)"
     style="font-size:1.76389px;line-height:1.25;font-family:sans-serif;-inkscape-font-specification:'sans-serif Normal';fill:#ffffff;fill-opacity:1;stroke-width:0.264583"
     id="text863"
     aria-label="SMALL">
    <path
       inkscape:connector-curvature="0"
       id="path919"
       style="fill:#ffffff;fill-opacity:1;stroke-width:0.264583"
       d="m 33.22915,66.752267 q 0,0.07493 -0.03531,0.14814 -0.03445,0.07321 -0.09732,0.124023 -0.0689,0.05512 -0.161059,0.08613 -0.09129,0.03101 -0.220486,0.03101 -0.138665,0 -0.249769,-0.02584 -0.110244,-0.02584 -0.224793,-0.07665 v -0.213596 h 0.01206 q 0.09732,0.08096 0.224792,0.124885 0.127469,0.04393 0.239435,0.04393 0.158474,0 0.246324,-0.05943 0.08871,-0.05943 0.08871,-0.158475 0,-0.08527 -0.0422,-0.125746 -0.04134,-0.04048 -0.126607,-0.06287 -0.0646,-0.01723 -0.140388,-0.02842 -0.07493,-0.0112 -0.159336,-0.02842 -0.170532,-0.03617 -0.253215,-0.123162 -0.08182,-0.08785 -0.08182,-0.228238 0,-0.161058 0.136082,-0.26355 0.136081,-0.103353 0.345371,-0.103353 0.13522,0 0.248047,0.02584 0.112827,0.02584 0.199816,0.06374 v 0.201538 h -0.01206 q -0.07321,-0.06201 -0.192926,-0.102492 -0.118856,-0.04134 -0.24374,-0.04134 -0.136943,0 -0.220487,0.05684 -0.08268,0.05684 -0.08268,0.146417 0,0.0801 0.04134,0.125746 0.04134,0.04565 0.145556,0.06976 0.05512,0.01206 0.156751,0.02928 0.101631,0.01723 0.172255,0.03531 0.142972,0.0379 0.215319,0.114549 0.07235,0.07665 0.07235,0.214457 z" />
    <path
       inkscape:connector-curvature="0"
       id="path921"
       style="fill:#ffffff;fill-opacity:1;stroke-width:0.264583"
       d="m 34.645085,67.118309 h -0.170532 v -1.105015 l -0.356568,0.751893 h -0.10163 l -0.353984,-0.751893 v 1.105015 h -0.159336 v -1.282438 h 0.232544 l 0.341926,0.713997 0.33073,-0.713997 h 0.23685 z" />
    <path
       inkscape:connector-curvature="0"
       id="path923"
       style="fill:#ffffff;fill-opacity:1;stroke-width:0.264583"
       d="M 36.002454,67.118309 H 35.820725 L 35.694979,66.76088 h -0.554661 l -0.125746,0.357429 h -0.173116 l 0.466811,-1.282438 h 0.227376 z m -0.360013,-0.503846 -0.224793,-0.629591 -0.225653,0.629591 z" />
    <path
       inkscape:connector-curvature="0"
       id="path925"
       style="fill:#ffffff;fill-opacity:1;stroke-width:0.264583"
       d="m 37.008422,67.118309 h -0.81132 v -1.282438 h 0.170532 v 1.130854 h 0.640788 z" />
    <path
       inkscape:connector-curvature="0"
       id="path927"
       style="fill:#ffffff;fill-opacity:1;stroke-width:0.264583"
       d="m 37.990275,67.118309 h -0.811321 v -1.282438 h 0.170533 v 1.130854 h 0.640788 z" />
  </g>
  <g
     transform="translate(-1.9122022,-0.57366072)"
     style="font-size:1.76389px;line-height:1.25;font-family:sans-serif;-inkscape-font-specification:'sans-serif Normal';fill:#ffffff;fill-opacity:1;stroke-width:0.264583"
     id="text867"
     aria-label="UNITY">
    <path
       inkscape:connector-curvature="0"
       id="path930"
       style="fill:#ffffff;fill-opacity:1;stroke-width:0.264583"
       d="m 33.453963,70.045238 q 0,0.139526 -0.03101,0.24374 -0.03014,0.103353 -0.09991,0.172255 -0.06632,0.06546 -0.155029,0.0956 -0.08871,0.03014 -0.206706,0.03014 -0.120579,0 -0.210151,-0.03187 -0.08957,-0.03187 -0.150723,-0.09388 -0.06976,-0.07062 -0.100769,-0.170532 -0.03014,-0.09991 -0.03014,-0.245463 v -0.767396 h 0.170533 v 0.776008 q 0,0.104215 0.01378,0.164504 0.01464,0.06029 0.04823,0.109382 0.0379,0.05598 0.102492,0.08441 0.06546,0.02842 0.156752,0.02842 0.09216,0 0.156752,-0.02756 0.0646,-0.02842 0.103353,-0.08527 0.03359,-0.04909 0.04737,-0.111966 0.01464,-0.06373 0.01464,-0.157613 v -0.780315 h 0.170532 z" />
    <path
       inkscape:connector-curvature="0"
       id="path932"
       style="fill:#ffffff;fill-opacity:1;stroke-width:0.264583"
       d="m 34.758794,70.56028 h -0.211013 l -0.608059,-1.147218 v 1.147218 h -0.159336 v -1.282438 h 0.264411 l 0.554661,1.04731 v -1.04731 h 0.159336 z" />
    <path
       inkscape:connector-curvature="0"
       id="path934"
       style="fill:#ffffff;fill-opacity:1;stroke-width:0.264583"
       d="m 35.552027,70.56028 h -0.506429 v -0.130914 h 0.167948 v -1.02061 h -0.167948 v -0.130914 h 0.506429 v 0.130914 h -0.167948 v 1.02061 h 0.167948 z" />
    <path
       inkscape:connector-curvature="0"
       id="path936"
       style="fill:#ffffff;fill-opacity:1;stroke-width:0.264583"
       d="m 36.758673,69.429427 h -0.458198 v 1.130853 h -0.170533 v -1.130853 h -0.458198 v -0.151585 h 1.086929 z" />
    <path
       inkscape:connector-curvature="0"
       id="path938"
       style="fill:#ffffff;fill-opacity:1;stroke-width:0.264583"
       d="m 37.840433,69.277842 -0.451308,0.720026 v 0.562412 h -0.170532 v -0.544326 l -0.45303,-0.738112 h 0.188619 l 0.350538,0.573609 0.353984,-0.573609 z" />
  </g>
  <g
     transform="translate(-2.8683032,-0.76488092)"
     style="font-size:1.76389px;line-height:1.25;font-family:sans-serif;-inkscape-font-specification:'sans-serif Normal';fill:#ffffff;fill-opacity:1;stroke-width:0.264583"
     id="text871"
     aria-label="MOD">
    <path
       inkscape:connector-curvature="0"
       id="path941"
       style="fill:#ffffff;fill-opacity:1;stroke-width:0.264583"
       d="m 14.699722,63.867558 h -0.170533 v -1.105016 l -0.356567,0.751893 h -0.101631 l -0.353983,-0.751893 v 1.105016 H 13.557672 V 62.58512 h 0.232544 l 0.341926,0.713996 0.330729,-0.713996 h 0.236851 z" />
    <path
       inkscape:connector-curvature="0"
       id="path943"
       style="fill:#ffffff;fill-opacity:1;stroke-width:0.264583"
       d="m 16.001969,62.732398 q 0.07838,0.08613 0.119717,0.211012 0.0422,0.124885 0.0422,0.283359 0,0.158475 -0.04306,0.284221 -0.0422,0.124885 -0.118856,0.208428 -0.07924,0.08699 -0.187758,0.130914 -0.107659,0.04393 -0.246325,0.04393 -0.13522,0 -0.246324,-0.04479 -0.110243,-0.04479 -0.187758,-0.130053 -0.07752,-0.08527 -0.119717,-0.209289 -0.04134,-0.124024 -0.04134,-0.28336 0,-0.156752 0.04134,-0.280775 0.04134,-0.124885 0.120578,-0.213596 0.07579,-0.08441 0.187758,-0.129191 0.112827,-0.04479 0.245463,-0.04479 0.137804,0 0.247186,0.04565 0.110243,0.04479 0.186896,0.12833 z m -0.0155,0.494371 q 0,-0.249769 -0.111966,-0.384989 -0.111966,-0.136082 -0.305752,-0.136082 -0.19551,0 -0.307475,0.136082 -0.111105,0.13522 -0.111105,0.384989 0,0.252354 0.113689,0.386713 0.113688,0.133497 0.304891,0.133497 0.191203,0 0.30403,-0.133497 0.113688,-0.134359 0.113688,-0.386713 z" />
    <path
       inkscape:connector-curvature="0"
       id="path945"
       style="fill:#ffffff;fill-opacity:1;stroke-width:0.264583"
       d="m 17.517812,63.227631 q 0,0.174838 -0.07665,0.316949 -0.07579,0.14211 -0.202399,0.220486 -0.08785,0.05426 -0.196371,0.07838 -0.107659,0.02412 -0.28422,0.02412 h -0.32384 V 62.58512 h 0.320394 q 0.187758,0 0.298001,0.02756 0.111105,0.0267 0.187758,0.07407 0.130914,0.08182 0.204122,0.217903 0.07321,0.136081 0.07321,0.322978 z m -0.178284,-0.0026 q 0,-0.150723 -0.05254,-0.254076 -0.05254,-0.103353 -0.156752,-0.162781 -0.07579,-0.04306 -0.161058,-0.05943 -0.08527,-0.01722 -0.204122,-0.01722 h -0.160197 v 0.989604 h 0.160197 q 0.123162,0 0.214457,-0.01809 0.09216,-0.01809 0.16881,-0.06718 0.0956,-0.06115 0.142971,-0.161059 0.04823,-0.09991 0.04823,-0.249769 z" />
  </g>
  <g
     transform="translate(-2.8683032,-0.95610116)"
     style="font-size:1.76389px;line-height:1.25;font-family:sans-serif;-inkscape-font-specification:'sans-serif Normal';fill:#ffffff;fill-opacity:1;stroke-width:0.264583"
     id="text875"
     aria-label="GEN">
    <path
       inkscape:connector-curvature="0"
       id="path948"
       style="fill:#ffffff;fill-opacity:1;stroke-width:0.264583"
       d="m 14.627375,67.214784 q -0.105076,0.04823 -0.229961,0.08441 -0.124023,0.03531 -0.240295,0.03531 -0.149862,0 -0.274747,-0.04134 -0.124884,-0.04134 -0.212734,-0.124023 -0.08871,-0.08354 -0.136943,-0.208429 -0.04823,-0.125746 -0.04823,-0.293694 0,-0.307475 0.179145,-0.484898 0.180006,-0.178283 0.49351,-0.178283 0.109382,0 0.22307,0.0267 0.114549,0.02584 0.246324,0.08871 v 0.2024 h -0.0155 q -0.0267,-0.02067 -0.07751,-0.05426 -0.05082,-0.03359 -0.09991,-0.05598 -0.05943,-0.0267 -0.13522,-0.04393 -0.07493,-0.01809 -0.170532,-0.01809 -0.215319,0 -0.341065,0.138665 -0.124885,0.137804 -0.124885,0.373793 0,0.248908 0.130914,0.387574 0.130914,0.137804 0.356567,0.137804 0.08268,0 0.164504,-0.01637 0.08268,-0.01636 0.144694,-0.0422 V 66.814292 H 14.114916 V 66.66443 h 0.512459 z" />
    <path
       inkscape:connector-curvature="0"
       id="path950"
       style="fill:#ffffff;fill-opacity:1;stroke-width:0.264583"
       d="m 15.770286,67.309525 h -0.84491 v -1.282438 h 0.84491 v 0.151584 h -0.674378 v 0.3514 h 0.674378 v 0.151584 h -0.674378 v 0.476285 h 0.674378 z" />
    <path
       inkscape:connector-curvature="0"
       id="path952"
       style="fill:#ffffff;fill-opacity:1;stroke-width:0.264583"
       d="m 17.019995,67.309525 h -0.211012 l -0.60806,-1.147218 v 1.147218 h -0.159336 v -1.282438 h 0.264411 l 0.554661,1.04731 v -1.04731 h 0.159336 z" />
  </g>
  <g
     transform="translate(-2.8683032,-1.1473214)"
     style="font-size:1.76389px;line-height:1.25;font-family:sans-serif;-inkscape-font-specification:'sans-serif Normal';fill:#ffffff;fill-opacity:1;stroke-width:0.264583"
     id="text879"
     aria-label="FILTER">
    <path
       inkscape:connector-curvature="0"
       id="path955"
       style="fill:#ffffff;fill-opacity:1;stroke-width:0.264583"
       d="m 14.376744,70.003073 h -0.64854 v 0.361735 h 0.557245 v 0.151585 h -0.557245 v 0.617533 h -0.170532 v -1.282437 h 0.819072 z" />
    <path
       inkscape:connector-curvature="0"
       id="path957"
       style="fill:#ffffff;fill-opacity:1;stroke-width:0.264583"
       d="m 15.0227,71.133926 h -0.50643 v -0.130913 h 0.167949 V 69.982402 H 14.51627 v -0.130913 h 0.50643 v 0.130913 h -0.167949 v 1.020611 H 15.0227 Z" />
    <path
       inkscape:connector-curvature="0"
       id="path959"
       style="fill:#ffffff;fill-opacity:1;stroke-width:0.264583"
       d="m 16.125992,71.133926 h -0.81132 v -1.282437 h 0.170532 v 1.130853 h 0.640788 z" />
    <path
       inkscape:connector-curvature="0"
       id="path961"
       style="fill:#ffffff;fill-opacity:1;stroke-width:0.264583"
       d="M 17.211198,70.003073 H 16.753 v 1.130853 H 16.582468 V 70.003073 H 16.12427 v -0.151584 h 1.086928 z" />
    <path
       inkscape:connector-curvature="0"
       id="path963"
       style="fill:#ffffff;fill-opacity:1;stroke-width:0.264583"
       d="m 18.230086,71.133926 h -0.844911 v -1.282437 h 0.844911 v 0.151584 h -0.674378 v 0.3514 h 0.674378 v 0.151584 h -0.674378 v 0.476285 h 0.674378 z" />
    <path
       inkscape:connector-curvature="0"
       id="path965"
       style="fill:#ffffff;fill-opacity:1;stroke-width:0.264583"
       d="M 19.562477,71.133926 H 19.34113 l -0.428915,-0.509874 h -0.240296 v 0.509874 h -0.170532 v -1.282437 h 0.359151 q 0.116272,0 0.193787,0.0155 0.07752,0.01464 0.139527,0.0534 0.06976,0.04393 0.10852,0.111104 0.03962,0.06632 0.03962,0.16881 0,0.138665 -0.06976,0.232544 -0.06976,0.09302 -0.192065,0.140388 z m -0.39877,-0.921563 q 0,-0.05512 -0.01981,-0.09732 -0.01895,-0.04306 -0.06374,-0.07235 -0.03703,-0.02498 -0.08785,-0.03445 -0.05082,-0.01034 -0.119717,-0.01034 h -0.200677 v 0.484037 h 0.172255 q 0.08096,0 0.141249,-0.01378 0.06029,-0.01464 0.102492,-0.0534 0.03876,-0.03617 0.05684,-0.08268 0.01895,-0.04737 0.01895,-0.119717 z" />
  </g>
</svg>
