<?xml version="1.0" encoding="UTF-8" standalone="no"?>
<svg
   xmlns:dc="http://purl.org/dc/elements/1.1/"
   xmlns:cc="http://creativecommons.org/ns#"
   xmlns:rdf="http://www.w3.org/1999/02/22-rdf-syntax-ns#"
   xmlns:svg="http://www.w3.org/2000/svg"
   xmlns="http://www.w3.org/2000/svg"
   xmlns:sodipodi="http://sodipodi.sourceforge.net/DTD/sodipodi-0.dtd"
   xmlns:inkscape="http://www.inkscape.org/namespaces/inkscape"
   sodipodi:docname="mood_panel.svg"
   inkscape:version="1.0beta1 (76ce730, 2019-10-19)"
   id="svg3705"
   version="1.1"
   viewBox="0 0 60.96 128.5"
   height="128.5mm"
   width="60.959999mm">
  <defs
     id="defs3699" />
  <sodipodi:namedview
     inkscape:snap-global="true"
     inkscape:document-rotation="0"
     inkscape:window-maximized="0"
     inkscape:window-y="225"
     inkscape:window-x="721"
     inkscape:window-height="880"
     inkscape:window-width="1600"
     showgrid="false"
     inkscape:current-layer="layer3"
     inkscape:document-units="mm"
     inkscape:cy="100.13"
     inkscape:cx="126.2712"
     inkscape:zoom="3.9135746"
     inkscape:pageshadow="2"
     inkscape:pageopacity="0.0"
     borderopacity="1.0"
     bordercolor="#666666"
     pagecolor="#ffffff"
     id="base" />
  <metadata
     id="metadata3702">
    <rdf:RDF>
      <cc:Work
         rdf:about="">
        <dc:format>image/svg+xml</dc:format>
        <dc:type
           rdf:resource="http://purl.org/dc/dcmitype/StillImage" />
        <dc:title />
      </cc:Work>
    </rdf:RDF>
  </metadata>
  <g
     sodipodi:insensitive="true"
     style="display:inline;mix-blend-mode:normal"
     transform="translate(0,-168.5)"
     id="layer1"
     inkscape:groupmode="layer"
     inkscape:label="background">
    <rect
       y="168.1479"
       x="-0.79375005"
       height="129.38126"
       width="62.706249"
       id="rect3711"
       style="opacity:1;fill:#db877b;fill-opacity:1;stroke-width:0.288951" />
  </g>
  <g
     sodipodi:insensitive="true"
     style="display:inline"
     inkscape:label="text"
     id="layer2"
     inkscape:groupmode="layer">
    <g
       aria-label="EXPR"
       id="text348"
       style="font-style:normal;font-weight:normal;font-size:10.5833px;line-height:1.25;font-family:sans-serif;fill:#1a1a1a;fill-opacity:0.997067;stroke:none;stroke-width:0.264583"
       transform="translate(-11.641667,2.6458334)">
      <path
         d="m 51.975251,97.585861 h -1.855185 v -2.564875 h 1.855185 V 95.51708 H 50.77808 v 0.442695 h 1.111044 v 0.496094 H 50.77808 v 0.633898 h 1.197171 z"
         style="font-style:normal;font-variant:normal;font-weight:bold;font-stretch:normal;font-size:3.52778px;font-family:sans-serif;-inkscape-font-specification:'sans-serif Bold';font-variant-ligatures:normal;font-variant-caps:normal;font-variant-numeric:normal;font-variant-east-asian:normal;fill:#1a1a1a;fill-opacity:0.997067;stroke-width:0.264583"
         id="path397"
         inkscape:connector-curvature="0" />
      <path
         d="m 54.857075,97.585861 h -0.764811 l -0.552938,-0.844049 -0.563274,0.844049 h -0.730361 l 0.909506,-1.291911 -0.890558,-1.272964 h 0.76309 l 0.53399,0.799263 0.549493,-0.799263 h 0.732083 l -0.895725,1.247125 z"
         style="font-style:normal;font-variant:normal;font-weight:bold;font-stretch:normal;font-size:3.52778px;font-family:sans-serif;-inkscape-font-specification:'sans-serif Bold';font-variant-ligatures:normal;font-variant-caps:normal;font-variant-numeric:normal;font-variant-east-asian:normal;fill:#1a1a1a;fill-opacity:0.997067;stroke-width:0.264583"
         id="path399"
         inkscape:connector-curvature="0" />
      <path
         d="m 57.342713,95.830584 q 0,0.172255 -0.06029,0.337619 -0.06029,0.163643 -0.172255,0.275608 -0.153307,0.151585 -0.342787,0.229099 -0.187758,0.07752 -0.468533,0.07752 H 55.88716 v 0.835436 h -0.661459 v -2.564875 h 1.088651 q 0.244602,0 0.411689,0.04306 0.16881,0.04134 0.298001,0.125746 0.155029,0.10163 0.235989,0.260105 0.08268,0.158474 0.08268,0.380683 z m -0.683852,0.0155 q 0,-0.108521 -0.05857,-0.186035 -0.05857,-0.07924 -0.136082,-0.110244 -0.103353,-0.04134 -0.201538,-0.04479 -0.09819,-0.0052 -0.261827,-0.0052 H 55.88716 v 0.768256 h 0.18948 q 0.16881,0 0.27733,-0.02067 0.110243,-0.02067 0.184313,-0.08268 0.06373,-0.05512 0.0913,-0.130913 0.02928,-0.07752 0.02928,-0.187758 z"
         style="font-style:normal;font-variant:normal;font-weight:bold;font-stretch:normal;font-size:3.52778px;font-family:sans-serif;-inkscape-font-specification:'sans-serif Bold';font-variant-ligatures:normal;font-variant-caps:normal;font-variant-numeric:normal;font-variant-east-asian:normal;fill:#1a1a1a;fill-opacity:0.997067;stroke-width:0.264583"
         id="path401"
         inkscape:connector-curvature="0" />
      <path
         d="m 59.247852,95.806468 q 0,-0.09646 -0.03962,-0.165364 -0.03962,-0.0689 -0.136082,-0.108521 -0.06718,-0.02756 -0.156752,-0.03273 -0.08957,-0.0069 -0.208428,-0.0069 h -0.239434 v 0.690742 h 0.20326 q 0.158475,0 0.265273,-0.0155 0.106798,-0.0155 0.179145,-0.07062 0.0689,-0.0534 0.09991,-0.117133 0.03273,-0.06546 0.03273,-0.173978 z m 1.031807,1.779393 H 59.471784 L 58.772429,96.64535 h -0.304891 v 0.940511 h -0.658014 v -2.564875 h 1.109321 q 0.227377,0 0.391019,0.02584 0.163642,0.02584 0.306614,0.111966 0.144694,0.08613 0.229099,0.223931 0.08613,0.136082 0.08613,0.342787 0,0.284221 -0.132636,0.463366 -0.130914,0.179145 -0.375516,0.298001 z"
         style="font-style:normal;font-variant:normal;font-weight:bold;font-stretch:normal;font-size:3.52778px;font-family:sans-serif;-inkscape-font-specification:'sans-serif Bold';font-variant-ligatures:normal;font-variant-caps:normal;font-variant-numeric:normal;font-variant-east-asian:normal;fill:#1a1a1a;fill-opacity:0.997067;stroke-width:0.264583"
         id="path403"
         inkscape:connector-curvature="0" />
    </g>
    <g
       transform="translate(0.76488092,8.54241)"
       style="font-size:1.76389px;line-height:1.25;font-family:sans-serif;-inkscape-font-specification:'sans-serif Normal';stroke-width:0.264583"
       id="text847"
       aria-label="ENV">
      <path
         inkscape:connector-curvature="0"
         id="path881"
         style="fill:#ffffff;fill-opacity:1;stroke-width:0.264583"
         d="m 50.543208,54.880203 h -0.84491 v -1.282437 h 0.84491 V 53.74935 H 49.86883 v 0.3514 h 0.674378 v 0.151584 H 49.86883 v 0.476285 h 0.674378 z" />
      <path
         inkscape:connector-curvature="0"
         id="path883"
         style="fill:#ffffff;fill-opacity:1;stroke-width:0.264583"
         d="m 51.792917,54.880203 h -0.211012 l -0.60806,-1.147217 v 1.147217 h -0.159336 v -1.282437 h 0.264412 l 0.55466,1.047309 v -1.047309 h 0.159336 z" />
      <path
         inkscape:connector-curvature="0"
         id="path885"
         style="fill:#ffffff;fill-opacity:1;stroke-width:0.264583"
         d="m 53.145118,53.597766 -0.466811,1.282437 H 52.450931 L 51.98412,53.597766 h 0.18259 l 0.402216,1.128269 0.402215,-1.128269 z" />
    </g>
    <g
       transform="translate(0.57366067,8.7336302)"
       style="font-size:1.76389px;line-height:1.25;font-family:sans-serif;-inkscape-font-specification:'sans-serif Normal';stroke-width:0.264583"
       id="text851"
       aria-label="TAPE">
      <path
         inkscape:connector-curvature="0"
         id="path903"
         style="fill:#ffffff;fill-opacity:1;stroke-width:0.264583"
         d="m 50.804187,56.853377 h -0.458198 v 1.130853 h -0.170533 v -1.130853 h -0.458198 v -0.151585 h 1.086929 z" />
      <path
         inkscape:connector-curvature="0"
         id="path905"
         style="fill:#ffffff;fill-opacity:1;stroke-width:0.264583"
         d="m 51.9893,57.98423 h -0.181729 l -0.125746,-0.357429 h -0.55466 l -0.125746,0.357429 h -0.173117 l 0.466811,-1.282438 h 0.227377 z m -0.360012,-0.503845 -0.224793,-0.629592 -0.225654,0.629592 z" />
      <path
         inkscape:connector-curvature="0"
         id="path907"
         style="fill:#ffffff;fill-opacity:1;stroke-width:0.264583"
         d="m 53.02283,57.089366 q 0,0.08527 -0.03014,0.158474 -0.02928,0.07235 -0.08268,0.125746 -0.06632,0.06632 -0.156752,0.09991 -0.09043,0.03273 -0.228238,0.03273 h -0.170532 v 0.478007 h -0.170533 v -1.282438 h 0.347955 q 0.115411,0 0.19551,0.01981 0.0801,0.01895 0.14211,0.06029 0.07321,0.04909 0.112827,0.122301 0.04048,0.07321 0.04048,0.185174 z m -0.177423,0.0043 q 0,-0.06632 -0.02325,-0.11541 -0.02325,-0.04909 -0.07062,-0.0801 -0.04134,-0.0267 -0.09474,-0.0379 -0.05254,-0.01206 -0.133498,-0.01206 H 52.35449 v 0.512458 h 0.143833 q 0.103352,0 0.167948,-0.01809 0.0646,-0.01895 0.105076,-0.05943 0.04048,-0.04134 0.05684,-0.08699 0.01723,-0.04565 0.01723,-0.102492 z" />
      <path
         inkscape:connector-curvature="0"
         id="path909"
         style="fill:#ffffff;fill-opacity:1;stroke-width:0.264583"
         d="m 54.093394,57.98423 h -0.84491 v -1.282438 h 0.84491 v 0.151585 h -0.674378 v 0.3514 h 0.674378 v 0.151584 h -0.674378 v 0.476285 h 0.674378 z" />
    </g>
    <g
       transform="translate(0.76488092,8.54241)"
       style="font-size:1.76389px;line-height:1.25;font-family:sans-serif;-inkscape-font-specification:'sans-serif Normal';stroke-width:0.264583"
       id="text855"
       aria-label="STRETCH">
      <path
         inkscape:connector-curvature="0"
         id="path888"
         style="fill:#ffffff;fill-opacity:1;stroke-width:0.264583"
         d="m 50.630197,61.206872 q 0,0.07493 -0.03531,0.14814 -0.03445,0.07321 -0.09732,0.124023 -0.0689,0.05512 -0.161058,0.08613 -0.0913,0.03101 -0.220486,0.03101 -0.138665,0 -0.24977,-0.02584 -0.110243,-0.02584 -0.224792,-0.07665 v -0.213596 h 0.01206 q 0.09732,0.08096 0.224792,0.124885 0.127469,0.04393 0.239434,0.04393 0.158475,0 0.246325,-0.05943 0.08871,-0.05943 0.08871,-0.158475 0,-0.08527 -0.0422,-0.125746 -0.04134,-0.04048 -0.126608,-0.06287 -0.06459,-0.01723 -0.140387,-0.02842 -0.07493,-0.0112 -0.159336,-0.02842 -0.170532,-0.03617 -0.253215,-0.123162 -0.08182,-0.08785 -0.08182,-0.228238 0,-0.161058 0.136082,-0.26355 0.136081,-0.103353 0.345371,-0.103353 0.13522,0 0.248047,0.02584 0.112827,0.02584 0.199815,0.06374 v 0.201538 h -0.01206 q -0.07321,-0.06201 -0.192925,-0.102492 -0.118856,-0.04134 -0.243741,-0.04134 -0.136942,0 -0.220486,0.05684 -0.08268,0.05684 -0.08268,0.146417 0,0.0801 0.04134,0.125746 0.04134,0.04565 0.145555,0.06976 0.05512,0.01206 0.156752,0.02928 0.101631,0.01723 0.172255,0.03531 0.142972,0.0379 0.215319,0.114549 0.07235,0.07665 0.07235,0.214457 z" />
      <path
         inkscape:connector-curvature="0"
         id="path890"
         style="fill:#ffffff;fill-opacity:1;stroke-width:0.264583"
         d="m 51.818755,60.442061 h -0.458198 v 1.130853 h -0.170532 v -1.130853 h -0.458198 v -0.151584 h 1.086928 z" />
      <path
         inkscape:connector-curvature="0"
         id="path892"
         style="fill:#ffffff;fill-opacity:1;stroke-width:0.264583"
         d="M 53.053823,61.572914 H 52.832475 L 52.403561,61.06304 h -0.240296 v 0.509874 h -0.170532 v -1.282437 h 0.359151 q 0.116272,0 0.193787,0.0155 0.07751,0.01464 0.139526,0.0534 0.06976,0.04393 0.108521,0.111105 0.03962,0.06632 0.03962,0.16881 0,0.138665 -0.06976,0.232544 -0.06976,0.09302 -0.192064,0.140387 z m -0.39877,-0.921564 q 0,-0.05512 -0.01981,-0.09732 -0.01895,-0.04306 -0.06374,-0.07235 -0.03703,-0.02498 -0.08785,-0.03445 -0.05082,-0.01034 -0.119717,-0.01034 h -0.200677 v 0.484036 h 0.172255 q 0.08096,0 0.141249,-0.01378 0.06029,-0.01464 0.102492,-0.0534 0.03876,-0.03617 0.05684,-0.08268 0.01895,-0.04737 0.01895,-0.119718 z" />
      <path
         inkscape:connector-curvature="0"
         id="path894"
         style="fill:#ffffff;fill-opacity:1;stroke-width:0.264583"
         d="m 54.064098,61.572914 h -0.84491 v -1.282437 h 0.84491 v 0.151584 H 53.38972 v 0.3514 h 0.674378 v 0.151584 H 53.38972 v 0.476285 h 0.674378 z" />
      <path
         inkscape:connector-curvature="0"
         id="path896"
         style="fill:#ffffff;fill-opacity:1;stroke-width:0.264583"
         d="m 55.250072,60.442061 h -0.458198 v 1.130853 h -0.170532 v -1.130853 h -0.458198 v -0.151584 h 1.086928 z" />
      <path
         inkscape:connector-curvature="0"
         id="path898"
         style="fill:#ffffff;fill-opacity:1;stroke-width:0.264583"
         d="m 56.414516,61.479896 q -0.04737,0.02067 -0.08613,0.03876 -0.0379,0.01809 -0.09991,0.0379 -0.05254,0.01636 -0.114549,0.02756 -0.06115,0.01206 -0.13522,0.01206 -0.139527,0 -0.254076,-0.03876 -0.113688,-0.03962 -0.198093,-0.123162 -0.08268,-0.08182 -0.129191,-0.207567 -0.04651,-0.126608 -0.04651,-0.293695 0,-0.158474 0.04479,-0.283359 0.04479,-0.124885 0.129191,-0.211012 0.08182,-0.08354 0.197232,-0.127469 0.116272,-0.04393 0.257521,-0.04393 0.103353,0 0.205845,0.02498 0.103353,0.02498 0.229099,0.08785 v 0.2024 h -0.01292 q -0.105937,-0.08871 -0.210151,-0.129192 -0.104215,-0.04048 -0.22307,-0.04048 -0.09732,0 -0.1757,0.03187 -0.07751,0.03101 -0.138666,0.09732 -0.05943,0.06459 -0.09302,0.163642 -0.03273,0.09819 -0.03273,0.227376 0,0.13522 0.03617,0.232544 0.03703,0.09732 0.09474,0.158475 0.06029,0.06373 0.140388,0.09474 0.08096,0.03015 0.170532,0.03015 0.123162,0 0.230822,-0.0422 0.107659,-0.0422 0.201538,-0.126607 h 0.01206 z" />
      <path
         inkscape:connector-curvature="0"
         id="path900"
         style="fill:#ffffff;fill-opacity:1;stroke-width:0.264583"
         d="m 57.638387,61.572914 h -0.170533 v -0.627869 h -0.639926 v 0.627869 h -0.170533 v -1.282437 h 0.170533 v 0.502984 h 0.639926 v -0.502984 h 0.170533 z" />
    </g>
    <g
       transform="translate(9.7522326,37.287946)"
       style="font-size:1.76389px;line-height:1.25;font-family:sans-serif;-inkscape-font-specification:'sans-serif Normal';stroke-width:0.264583"
       id="text859"
       aria-label="IN">
      <path
         inkscape:connector-curvature="0"
         id="path936"
         style="fill:#ffffff;fill-opacity:1;stroke-width:0.264583"
         d="m 21.08499,26.005955 h -0.50643 v -0.130914 h 0.167949 v -1.02061 H 20.57856 v -0.130914 h 0.50643 v 0.130914 h -0.167949 v 1.02061 h 0.167949 z" />
      <path
         inkscape:connector-curvature="0"
         id="path938"
         style="fill:#ffffff;fill-opacity:1;stroke-width:0.264583"
         d="m 22.355369,26.005955 h -0.211012 l -0.60806,-1.147218 v 1.147218 h -0.159335 v -1.282438 h 0.264411 l 0.554661,1.04731 v -1.04731 h 0.159335 z" />
    </g>
    <g
       transform="translate(10.202044,32.833784)"
       style="font-size:1.76389px;line-height:1.25;font-family:sans-serif;-inkscape-font-specification:'sans-serif Normal';stroke-width:0.264583"
       id="text863"
       aria-label="LOOP + IN">
      <path
         inkscape:connector-curvature="0"
         id="path921"
         style="fill:#ffffff;fill-opacity:1;stroke-width:0.264583"
         d="m 20.870479,33.845978 h -0.81132 V 32.56354 h 0.170532 v 1.130853 h 0.640788 z" />
      <path
         inkscape:connector-curvature="0"
         id="path923"
         style="fill:#ffffff;fill-opacity:1;stroke-width:0.264583"
         d="m 21.997026,32.710818 q 0.07838,0.08613 0.119717,0.211012 0.0422,0.124885 0.0422,0.28336 0,0.158474 -0.04306,0.28422 -0.0422,0.124885 -0.118856,0.208429 -0.07924,0.08699 -0.187758,0.130913 -0.107659,0.04393 -0.246324,0.04393 -0.13522,0 -0.246325,-0.04479 -0.110243,-0.04479 -0.187758,-0.130052 -0.07751,-0.08527 -0.119717,-0.20929 -0.04134,-0.124024 -0.04134,-0.283359 0,-0.156752 0.04134,-0.280776 0.04134,-0.124885 0.120579,-0.213596 0.07579,-0.08441 0.187758,-0.129191 0.112827,-0.04479 0.245463,-0.04479 0.137804,0 0.247186,0.04565 0.110243,0.04479 0.186896,0.12833 z m -0.0155,0.494372 q 0,-0.24977 -0.111966,-0.38499 -0.111965,-0.136081 -0.305752,-0.136081 -0.195509,0 -0.307475,0.136081 -0.111104,0.13522 -0.111104,0.38499 0,0.252353 0.113688,0.386712 0.113688,0.133497 0.304891,0.133497 0.191203,0 0.30403,-0.133497 0.113688,-0.134359 0.113688,-0.386712 z" />
      <path
         inkscape:connector-curvature="0"
         id="path925"
         style="fill:#ffffff;fill-opacity:1;stroke-width:0.264583"
         d="m 23.3854,32.710818 q 0.07838,0.08613 0.119718,0.211012 0.0422,0.124885 0.0422,0.28336 0,0.158474 -0.04306,0.28422 -0.0422,0.124885 -0.118856,0.208429 -0.07924,0.08699 -0.187757,0.130913 -0.10766,0.04393 -0.246325,0.04393 -0.13522,0 -0.246324,-0.04479 -0.110244,-0.04479 -0.187758,-0.130052 -0.07752,-0.08527 -0.119717,-0.20929 -0.04134,-0.124024 -0.04134,-0.283359 0,-0.156752 0.04134,-0.280776 0.04134,-0.124885 0.120578,-0.213596 0.07579,-0.08441 0.187758,-0.129191 0.112827,-0.04479 0.245463,-0.04479 0.137804,0 0.247186,0.04565 0.110243,0.04479 0.186896,0.12833 z m -0.0155,0.494372 q 0,-0.24977 -0.111965,-0.38499 -0.111966,-0.136081 -0.305753,-0.136081 -0.195509,0 -0.307475,0.136081 -0.111104,0.13522 -0.111104,0.38499 0,0.252353 0.113688,0.386712 0.113688,0.133497 0.304891,0.133497 0.191203,0 0.30403,-0.133497 Q 23.3699,33.457543 23.3699,33.20519 Z" />
      <path
         inkscape:connector-curvature="0"
         id="path927"
         style="fill:#ffffff;fill-opacity:1;stroke-width:0.264583"
         d="m 24.656641,32.951114 q 0,0.08527 -0.03014,0.158474 -0.02928,0.07235 -0.08268,0.125746 -0.06632,0.06632 -0.156752,0.09991 -0.09043,0.03273 -0.228237,0.03273 h -0.170533 v 0.478008 H 23.81776 V 32.56354 h 0.347955 q 0.115411,0 0.195509,0.01981 0.0801,0.01895 0.142111,0.06029 0.07321,0.04909 0.112826,0.122301 0.04048,0.07321 0.04048,0.185174 z m -0.177422,0.0043 q 0,-0.06632 -0.02325,-0.115411 -0.02325,-0.04909 -0.07062,-0.0801 -0.04134,-0.0267 -0.09474,-0.0379 -0.05254,-0.01206 -0.133498,-0.01206 h -0.16881 v 0.512458 h 0.143833 q 0.103353,0 0.167949,-0.01809 0.0646,-0.01895 0.105075,-0.05943 0.04048,-0.04134 0.05684,-0.08699 0.01723,-0.04565 0.01723,-0.102492 z" />
      <path
         inkscape:connector-curvature="0"
         id="path929"
         style="fill:#ffffff;fill-opacity:1;stroke-width:0.264583"
         d="m 26.592787,33.353329 h -0.469395 v 0.469394 H 25.98042 V 33.353329 H 25.511026 V 33.215525 H 25.98042 V 32.74613 h 0.142972 v 0.469395 h 0.469395 z" />
      <path
         inkscape:connector-curvature="0"
         id="path931"
         style="fill:#ffffff;fill-opacity:1;stroke-width:0.264583"
         d="m 28.018196,33.845978 h -0.50643 v -0.130914 h 0.167949 v -1.02061 H 27.511766 V 32.56354 h 0.50643 v 0.130914 h -0.167949 v 1.02061 h 0.167949 z" />
      <path
         inkscape:connector-curvature="0"
         id="path933"
         style="fill:#ffffff;fill-opacity:1;stroke-width:0.264583"
         d="m 29.288575,33.845978 h -0.211012 l -0.60806,-1.147218 v 1.147218 H 28.310168 V 32.56354 h 0.264411 l 0.554661,1.04731 v -1.04731 h 0.159335 z" />
    </g>
    <g
       transform="translate(11.090775,29.065474)"
       style="font-size:1.76389px;line-height:1.25;font-family:sans-serif;-inkscape-font-specification:'sans-serif Normal';stroke-width:0.264583"
       id="text867"
       aria-label="LOOP">
      <path
         inkscape:connector-curvature="0"
         id="path912"
         style="fill:#ffffff;fill-opacity:1;stroke-width:0.264583"
         d="m 19.914377,40.921131 h -0.811321 v -1.282437 h 0.170533 v 1.130853 h 0.640788 z" />
      <path
         inkscape:connector-curvature="0"
         id="path914"
         style="fill:#ffffff;fill-opacity:1;stroke-width:0.264583"
         d="m 21.040924,39.785971 q 0.07838,0.08613 0.119717,0.211013 0.0422,0.124884 0.0422,0.283359 0,0.158474 -0.04306,0.284221 -0.0422,0.124884 -0.118856,0.208428 -0.07924,0.08699 -0.187758,0.130914 -0.107659,0.04393 -0.246325,0.04393 -0.13522,0 -0.246324,-0.04479 -0.110243,-0.04479 -0.187758,-0.130052 -0.07751,-0.08527 -0.119717,-0.20929 -0.04134,-0.124023 -0.04134,-0.283359 0,-0.156752 0.04134,-0.280776 0.04134,-0.124884 0.120578,-0.213596 0.07579,-0.0844 0.187758,-0.129191 0.112827,-0.04479 0.245463,-0.04479 0.137804,0 0.247186,0.04565 0.110243,0.04479 0.186896,0.128329 z m -0.0155,0.494372 q 0,-0.24977 -0.111966,-0.38499 -0.111966,-0.136081 -0.305752,-0.136081 -0.19551,0 -0.307475,0.136081 -0.111105,0.13522 -0.111105,0.38499 0,0.252353 0.113689,0.386712 0.113688,0.133498 0.304891,0.133498 0.191203,0 0.30403,-0.133498 0.113688,-0.134359 0.113688,-0.386712 z" />
      <path
         inkscape:connector-curvature="0"
         id="path916"
         style="fill:#ffffff;fill-opacity:1;stroke-width:0.264583"
         d="m 22.429298,39.785971 q 0.07838,0.08613 0.119717,0.211013 0.0422,0.124884 0.0422,0.283359 0,0.158474 -0.04306,0.284221 -0.0422,0.124884 -0.118856,0.208428 -0.07924,0.08699 -0.187758,0.130914 -0.107659,0.04393 -0.246324,0.04393 -0.13522,0 -0.246325,-0.04479 -0.110243,-0.04479 -0.187758,-0.130052 -0.07751,-0.08527 -0.119717,-0.20929 -0.04134,-0.124023 -0.04134,-0.283359 0,-0.156752 0.04134,-0.280776 0.04134,-0.124884 0.120579,-0.213596 0.07579,-0.0844 0.187757,-0.129191 0.112827,-0.04479 0.245464,-0.04479 0.137804,0 0.247185,0.04565 0.110244,0.04479 0.186896,0.128329 z m -0.0155,0.494372 q 0,-0.24977 -0.111966,-0.38499 -0.111965,-0.136081 -0.305752,-0.136081 -0.195509,0 -0.307475,0.136081 -0.111104,0.13522 -0.111104,0.38499 0,0.252353 0.113688,0.386712 0.113688,0.133498 0.304891,0.133498 0.191203,0 0.30403,-0.133498 0.113688,-0.134359 0.113688,-0.386712 z" />
      <path
         inkscape:connector-curvature="0"
         id="path918"
         style="fill:#ffffff;fill-opacity:1;stroke-width:0.264583"
         d="m 23.700539,40.026267 q 0,0.08527 -0.03014,0.158474 -0.02928,0.07235 -0.08268,0.125747 -0.06632,0.06632 -0.156752,0.09991 -0.09043,0.03273 -0.228238,0.03273 H 23.03219 v 0.478007 h -0.170532 v -1.282437 h 0.347955 q 0.11541,0 0.195509,0.01981 0.0801,0.01895 0.14211,0.06029 0.07321,0.04909 0.112827,0.122301 0.04048,0.07321 0.04048,0.185174 z m -0.177423,0.0043 q 0,-0.06632 -0.02325,-0.11541 -0.02325,-0.04909 -0.07062,-0.0801 -0.04134,-0.0267 -0.09474,-0.0379 Q 23.28196,39.78511 23.201,39.78511 h -0.16881 v 0.512458 h 0.143833 q 0.103353,0 0.167948,-0.01809 0.0646,-0.01895 0.105076,-0.05943 0.04048,-0.04134 0.05684,-0.08699 0.01723,-0.04565 0.01723,-0.102492 z" />
    </g>
    <g
       transform="translate(2.6770833,46.466517)"
       style="font-size:1.76389px;line-height:1.25;font-family:sans-serif;-inkscape-font-specification:'sans-serif Normal';stroke-width:0.264583"
       id="text871"
       aria-label="REVERB">
      <path
         inkscape:connector-curvature="0"
         id="path961"
         style="fill:#ffffff;fill-opacity:1;stroke-width:0.264583"
         d="M 8.4997134,16.827381 H 8.2783658 L 7.8494512,16.317507 H 7.6091556 v 0.509874 H 7.4386233 v -1.282437 h 0.3591514 q 0.1162721,0 0.1937868,0.0155 0.077515,0.01464 0.1395264,0.0534 0.069763,0.04392 0.1085206,0.111105 0.039619,0.06632 0.039619,0.16881 0,0.138665 -0.069763,0.232544 -0.069763,0.09302 -0.1920642,0.140387 z M 8.1009433,15.905817 q 0,-0.05512 -0.019809,-0.09732 -0.018948,-0.04306 -0.063734,-0.07235 -0.037035,-0.02498 -0.08785,-0.03445 -0.050815,-0.01034 -0.1197171,-0.01034 h -0.200677 v 0.484036 h 0.1722549 q 0.08096,0 0.141249,-0.01378 0.060289,-0.01464 0.1024917,-0.0534 0.038757,-0.03617 0.056844,-0.08268 0.018948,-0.04737 0.018948,-0.119718 z" />
      <path
         inkscape:connector-curvature="0"
         id="path963"
         style="fill:#ffffff;fill-opacity:1;stroke-width:0.264583"
         d="M 9.5099882,16.827381 H 8.665078 v -1.282437 h 0.8449102 v 0.151584 H 8.8356103 v 0.3514 h 0.6743779 v 0.151584 H 8.8356103 v 0.476285 h 0.6743779 z" />
      <path
         inkscape:connector-curvature="0"
         id="path965"
         style="fill:#ffffff;fill-opacity:1;stroke-width:0.264583"
         d="m 10.792426,15.544944 -0.466811,1.282437 H 10.098239 L 9.6314279,15.544944 h 0.1825902 l 0.4022149,1.128269 0.402215,-1.128269 z" />
      <path
         inkscape:connector-curvature="0"
         id="path967"
         style="fill:#ffffff;fill-opacity:1;stroke-width:0.264583"
         d="m 11.831984,16.827381 h -0.84491 v -1.282437 h 0.84491 v 0.151584 h -0.674378 v 0.3514 h 0.674378 v 0.151584 h -0.674378 v 0.476285 h 0.674378 z" />
      <path
         inkscape:connector-curvature="0"
         id="path969"
         style="fill:#ffffff;fill-opacity:1;stroke-width:0.264583"
         d="m 13.164376,16.827381 h -0.221348 l -0.428914,-0.509874 h -0.240296 v 0.509874 h -0.170532 v -1.282437 h 0.359151 q 0.116272,0 0.193787,0.0155 0.07752,0.01464 0.139526,0.0534 0.06976,0.04392 0.108521,0.111105 0.03962,0.06632 0.03962,0.16881 0,0.138665 -0.06976,0.232544 -0.06976,0.09302 -0.192064,0.140387 z m -0.39877,-0.921564 q 0,-0.05512 -0.01981,-0.09732 -0.01895,-0.04306 -0.06373,-0.07235 -0.03703,-0.02498 -0.08785,-0.03445 -0.05082,-0.01034 -0.119717,-0.01034 h -0.200677 v 0.484036 h 0.172255 q 0.08096,0 0.141249,-0.01378 0.06029,-0.01464 0.102492,-0.0534 0.03876,-0.03617 0.05684,-0.08268 0.01895,-0.04737 0.01895,-0.119718 z" />
      <path
         inkscape:connector-curvature="0"
         id="path971"
         style="fill:#ffffff;fill-opacity:1;stroke-width:0.264583"
         d="m 14.296952,16.432917 q 0,0.0956 -0.03617,0.16881 -0.03617,0.07321 -0.09732,0.120579 -0.07235,0.05684 -0.159336,0.08096 -0.08613,0.02412 -0.219625,0.02412 H 13.32974 v -1.282437 h 0.379822 q 0.140388,0 0.210151,0.01034 0.06976,0.01033 0.133498,0.04306 0.07062,0.03703 0.102492,0.0956 0.03187,0.05771 0.03187,0.138665 0,0.0913 -0.04651,0.155891 -0.04651,0.06373 -0.124024,0.102491 v 0.0069 q 0.130053,0.0267 0.204984,0.114549 0.07493,0.08699 0.07493,0.220486 z m -0.286805,-0.577915 q 0,-0.04651 -0.0155,-0.07838 -0.0155,-0.03187 -0.04995,-0.05168 -0.04048,-0.02325 -0.09818,-0.02842 -0.05771,-0.006 -0.142972,-0.006 h -0.20326 v 0.370348 h 0.220486 q 0.0801,0 0.127469,-0.0078 0.04737,-0.0086 0.08785,-0.03445 0.04048,-0.02584 0.05684,-0.06632 0.01722,-0.04134 0.01722,-0.09732 z m 0.109382,0.584806 q 0,-0.07751 -0.02325,-0.123163 -0.02326,-0.04565 -0.08441,-0.07751 -0.04134,-0.02153 -0.100769,-0.02756 -0.05857,-0.0069 -0.142972,-0.0069 h -0.267856 v 0.477146 h 0.225654 q 0.111965,0 0.183451,-0.0112 0.07149,-0.01206 0.117133,-0.04306 0.04823,-0.03359 0.07063,-0.07665 0.02239,-0.04306 0.02239,-0.111104 z" />
    </g>
    <g
       transform="translate(2.1034227,46.084077)"
       style="font-size:1.76389px;line-height:1.25;font-family:sans-serif;-inkscape-font-specification:'sans-serif Normal';stroke-width:0.264583"
       id="text875"
       aria-label="DELAY">
      <path
         inkscape:connector-curvature="0"
         id="path950"
         style="fill:#ffffff;fill-opacity:1;stroke-width:0.264583"
         d="m 9.0957683,20.011856 q 0,0.174839 -0.076653,0.316949 -0.075792,0.14211 -0.2023995,0.220486 -0.08785,0.05426 -0.1963706,0.07838 -0.1076593,0.02412 -0.2842205,0.02412 H 8.0122851 v -1.282438 h 0.3203941 q 0.1877578,0 0.2980009,0.02756 0.1111044,0.0267 0.1877578,0.07407 0.1309138,0.08182 0.2041221,0.217902 0.073208,0.136082 0.073208,0.322978 z m -0.1782838,-0.0026 q 0,-0.150723 -0.052538,-0.254076 -0.052538,-0.103353 -0.156752,-0.162781 -0.075792,-0.04306 -0.1610583,-0.05943 -0.085266,-0.01723 -0.204122,-0.01723 H 8.1828174 v 0.989604 h 0.1601971 q 0.1231622,0 0.2144573,-0.01809 0.092156,-0.01809 0.1688098,-0.06718 0.095601,-0.06115 0.1429715,-0.161058 0.048231,-0.09991 0.048231,-0.24977 z" />
      <path
         inkscape:connector-curvature="0"
         id="path952"
         style="fill:#ffffff;fill-opacity:1;stroke-width:0.264583"
         d="M 10.218009,20.651783 H 9.3730987 V 19.369345 H 10.218009 V 19.52093 H 9.543631 v 0.3514 h 0.674378 v 0.151584 H 9.543631 v 0.476285 h 0.674378 z" />
      <path
         inkscape:connector-curvature="0"
         id="path954"
         style="fill:#ffffff;fill-opacity:1;stroke-width:0.264583"
         d="M 11.300631,20.651783 H 10.48931 v -1.282438 h 0.170533 v 1.130854 h 0.640788 z" />
      <path
         inkscape:connector-curvature="0"
         id="path956"
         style="fill:#ffffff;fill-opacity:1;stroke-width:0.264583"
         d="M 12.482299,20.651783 H 12.30057 l -0.125746,-0.357429 h -0.55466 l -0.125746,0.357429 h -0.173117 l 0.466811,-1.282438 h 0.227377 z m -0.360012,-0.503846 -0.224793,-0.629591 -0.225654,0.629591 z" />
      <path
         inkscape:connector-curvature="0"
         id="path958"
         style="fill:#ffffff;fill-opacity:1;stroke-width:0.264583"
         d="m 13.584731,19.369345 -0.451308,0.720026 v 0.562412 H 12.962891 V 20.107458 L 12.50986,19.369345 h 0.188619 l 0.350539,0.573609 0.353984,-0.573609 z" />
    </g>
    <g
       transform="translate(2.4858631,43.215777)"
       style="font-size:1.76389px;line-height:1.25;font-family:sans-serif;-inkscape-font-specification:'sans-serif Normal';stroke-width:0.264583"
       id="text879"
       aria-label="SLIP">
      <path
         inkscape:connector-curvature="0"
         id="path941"
         style="fill:#ffffff;fill-opacity:1;stroke-width:0.264583"
         d="m 8.5617415,26.59601 q 0,0.07493 -0.035312,0.148139 -0.034451,0.07321 -0.097324,0.124023 -0.068902,0.05512 -0.1610583,0.08613 -0.091295,0.03101 -0.2204863,0.03101 -0.1386652,0 -0.2497696,-0.02584 -0.1102431,-0.02584 -0.2247926,-0.07665 v -0.213596 h 0.012058 q 0.097324,0.08096 0.2247927,0.124885 0.1274686,0.04393 0.2394343,0.04393 0.1584744,0 0.2463244,-0.05943 0.088711,-0.05943 0.088711,-0.158475 0,-0.08527 -0.042202,-0.125746 Q 8.3007761,26.45391 8.2155097,26.43152 8.1509137,26.4143 8.075122,26.4031 8.000191,26.3919 7.9157862,26.37468 7.7452534,26.338489 7.662571,26.2515 7.58075,26.16365 7.58075,26.023262 q 0,-0.161058 0.1360813,-0.26355 0.1360814,-0.103353 0.3453711,-0.103353 0.1352201,0 0.248047,0.02584 0.112827,0.02584 0.1998157,0.06373 v 0.201538 h -0.012058 q -0.073208,-0.06201 -0.1929254,-0.102492 -0.1188559,-0.04134 -0.2437407,-0.04134 -0.1369426,0 -0.2204863,0.05684 -0.082682,0.05684 -0.082682,0.146417 0,0.0801 0.041341,0.125746 0.041341,0.04565 0.1455553,0.06976 0.055122,0.01206 0.156752,0.02928 0.1016304,0.01722 0.1722549,0.03531 0.1429715,0.0379 0.2153186,0.114549 0.072347,0.07665 0.072347,0.214458 z" />
      <path
         inkscape:connector-curvature="0"
         id="path943"
         style="fill:#ffffff;fill-opacity:1;stroke-width:0.264583"
         d="M 9.6469473,26.962051 H 8.8356268 v -1.282437 h 0.1705323 v 1.130853 h 0.6407882 z" />
      <path
         inkscape:connector-curvature="0"
         id="path945"
         style="fill:#ffffff;fill-opacity:1;stroke-width:0.264583"
         d="M 10.269649,26.962051 H 9.7632194 V 26.831138 H 9.9311679 V 25.810527 H 9.7632194 v -0.130913 h 0.5064296 v 0.130913 H 10.1017 v 1.020611 h 0.167949 z" />
      <path
         inkscape:connector-curvature="0"
         id="path947"
         style="fill:#ffffff;fill-opacity:1;stroke-width:0.264583"
         d="m 11.400502,26.067187 q 0,0.08527 -0.03014,0.158475 -0.02928,0.07235 -0.08268,0.125746 -0.06632,0.06632 -0.156752,0.09991 -0.09043,0.03273 -0.228238,0.03273 H 10.73216 v 0.478007 h -0.170532 v -1.282437 h 0.347955 q 0.11541,0 0.195509,0.01981 0.0801,0.01895 0.14211,0.06029 0.07321,0.04909 0.112827,0.122301 0.04048,0.07321 0.04048,0.185174 z m -0.177422,0.0043 q 0,-0.06632 -0.02325,-0.115411 -0.02325,-0.04909 -0.07062,-0.0801 -0.04134,-0.0267 -0.09474,-0.0379 -0.05254,-0.01206 -0.133497,-0.01206 h -0.16881 v 0.512459 h 0.143833 q 0.103353,0 0.167948,-0.01809 0.0646,-0.01895 0.105076,-0.05943 0.04048,-0.04134 0.05684,-0.08699 0.01723,-0.04565 0.01723,-0.102491 z" />
    </g>
  </g>
  <g
     style="display:inline"
     inkscape:label="lines"
     id="layer3"
     inkscape:groupmode="layer">
    <path
       sodipodi:nodetypes="cc"
       inkscape:connector-curvature="0"
       id="path1955-3"
       d="m 49.914657,34.556331 c -2.800056,0.01802 -5.47933,2.012606 -5.594924,5.53951"
       style="fill:none;stroke:#ffffff;stroke-width:0.204019;stroke-linecap:butt;stroke-linejoin:miter;stroke-miterlimit:4;stroke-dasharray:none;stroke-opacity:1" />
    <path
       style="fill:none;stroke:#ffffff;stroke-width:0.204019;stroke-linecap:butt;stroke-linejoin:miter;stroke-miterlimit:4;stroke-dasharray:none;stroke-opacity:1"
       d="m 50.091611,6.5031953 c -2.800054,0.01802 -5.479328,2.0126082 -5.594922,5.5395137"
       id="path1955-3-7"
       inkscape:connector-curvature="0"
       sodipodi:nodetypes="cc" />
    <path
       style="fill:none;stroke:#ffffff;stroke-width:0.204019;stroke-linecap:butt;stroke-linejoin:miter;stroke-miterlimit:4;stroke-dasharray:none;stroke-opacity:1"
       d="m 44.319733,40.095841 c 0.01802,2.800053 2.012606,5.479327 5.53951,5.594924"
       id="path1955-3-9"
       inkscape:connector-curvature="0"
       sodipodi:nodetypes="cc" />
    <path
       sodipodi:nodetypes="cc"
       inkscape:connector-curvature="0"
       id="path1955-3-7-3"
       d="m 44.496689,12.042709 c 0.01802,2.800054 2.012606,5.479329 5.539507,5.594924"
       style="fill:none;stroke:#ffffff;stroke-width:0.204019;stroke-linecap:butt;stroke-linejoin:miter;stroke-miterlimit:4;stroke-dasharray:none;stroke-opacity:1" />
    <path
       style="fill:none;stroke:#ffffff;stroke-width:0.264583px;stroke-linecap:butt;stroke-linejoin:miter;stroke-opacity:1"
       d="m 44.319733,40.095841 -1.323636,0.0038"
       id="path2035"
       inkscape:connector-curvature="0" />
    <path
       inkscape:connector-curvature="0"
       id="path1894-2"
       d="m 16.297853,66.049294 h 1.259796 V 12.07981 h -1.488848"
       style="fill:none;stroke:#ffffff;stroke-width:0.248456px;stroke-linecap:butt;stroke-linejoin:miter;stroke-opacity:1" />
    <path
       style="fill:none;stroke:#ffffff;stroke-width:0.204019;stroke-linecap:butt;stroke-linejoin:miter;stroke-miterlimit:4;stroke-dasharray:none;stroke-opacity:1"
       d="m 10.077172,34.593434 c 2.800055,0.01802 5.47933,2.012606 5.594924,5.539509"
       id="path1955-3-8"
       inkscape:connector-curvature="0"
       sodipodi:nodetypes="cc" />
    <path
       sodipodi:nodetypes="cc"
       inkscape:connector-curvature="0"
       id="path1955-3-7-2"
       d="m 9.9002168,6.5402955 c 2.8000552,0.01802 5.4793302,2.012608 5.5949242,5.5395145"
       style="fill:none;stroke:#ffffff;stroke-width:0.204019;stroke-linecap:butt;stroke-linejoin:miter;stroke-miterlimit:4;stroke-dasharray:none;stroke-opacity:1" />
    <path
       sodipodi:nodetypes="cc"
       inkscape:connector-curvature="0"
       id="path1955-3-9-3"
       d="m 15.672096,40.132943 c -0.01802,2.800054 -2.012606,5.479328 -5.53951,5.594924"
       style="fill:none;stroke:#ffffff;stroke-width:0.204019;stroke-linecap:butt;stroke-linejoin:miter;stroke-miterlimit:4;stroke-dasharray:none;stroke-opacity:1" />
    <path
       style="fill:none;stroke:#ffffff;stroke-width:0.204019;stroke-linecap:butt;stroke-linejoin:miter;stroke-miterlimit:4;stroke-dasharray:none;stroke-opacity:1"
       d="m 15.495141,12.07981 c -0.01802,2.800054 -2.012606,5.479329 -5.5395102,5.594925"
       id="path1955-3-7-3-1"
       inkscape:connector-curvature="0"
       sodipodi:nodetypes="cc" />
    <path
       inkscape:connector-curvature="0"
       id="path2035-2"
       d="m 16.245757,40.132943 1.323634,0.0038"
       style="fill:none;stroke:#ffffff;stroke-width:0.26458300000000001px;stroke-linecap:butt;stroke-linejoin:miter;stroke-opacity:1" />
    <path
       style="fill:none;stroke:#ffffff;stroke-width:0.248456px;stroke-linecap:butt;stroke-linejoin:miter;stroke-opacity:1"
       d="M 44.267637,66.012191 H 43.007839 V 12.042709 h 1.48885"
       id="path1894"
       inkscape:connector-curvature="0" />
    <path
       inkscape:connector-curvature="0"
       id="path2377"
       d="m 17.569391,40.136743 -1.897295,-0.0038"
       style="fill:none;stroke:#ffffff;stroke-width:0.26458300000000001px;stroke-linecap:butt;stroke-linejoin:miter;stroke-opacity:1" />
    <path
       inkscape:connector-curvature="0"
       id="path2379"
       d="M 17.557649,12.07981 H 15.495141"
       style="fill:none;stroke:#ffffff;stroke-width:0.26458300000000001px;stroke-linecap:butt;stroke-linejoin:miter;stroke-opacity:1" />
  </g>
  <g
     style="display:inline"
     sodipodi:insensitive="true"
     inkscape:label="logo"
     id="layer4"
     inkscape:groupmode="layer" />
</svg>
