<?xml version="1.0" encoding="UTF-8" standalone="no"?>
<svg
   xmlns:dc="http://purl.org/dc/elements/1.1/"
   xmlns:cc="http://creativecommons.org/ns#"
   xmlns:rdf="http://www.w3.org/1999/02/22-rdf-syntax-ns#"
   xmlns:svg="http://www.w3.org/2000/svg"
   xmlns="http://www.w3.org/2000/svg"
   xmlns:sodipodi="http://sodipodi.sourceforge.net/DTD/sodipodi-0.dtd"
   xmlns:inkscape="http://www.inkscape.org/namespaces/inkscape"
   width="60.959999mm"
   height="128.5mm"
   viewBox="0 0 60.96 128.5"
   version="1.1"
   id="svg3705"
   inkscape:version="1.0beta1 (76ce730, 2019-10-19)"
   sodipodi:docname="thermae_text.svg">
  <defs
     id="defs3699" />
  <sodipodi:namedview
     id="base"
     pagecolor="#ffffff"
     bordercolor="#666666"
     borderopacity="1.0"
     inkscape:pageopacity="0.0"
     inkscape:pageshadow="2"
     inkscape:zoom="1.3231083"
     inkscape:cx="115.5"
     inkscape:cy="243.16925"
     inkscape:document-units="mm"
     inkscape:current-layer="layer2"
     showgrid="false"
     inkscape:window-width="1396"
     inkscape:window-height="855"
     inkscape:window-x="44"
     inkscape:window-y="23"
     inkscape:window-maximized="1"
     inkscape:document-rotation="0"
     inkscape:snap-text-baseline="true" />
  <metadata
     id="metadata3702">
    <rdf:RDF>
      <cc:Work
         rdf:about="">
        <dc:format>image/svg+xml</dc:format>
        <dc:type
           rdf:resource="http://purl.org/dc/dcmitype/StillImage" />
        <dc:title />
      </cc:Work>
    </rdf:RDF>
  </metadata>
  <g
     sodipodi:insensitive="true"
     inkscape:label="background"
     inkscape:groupmode="layer"
     id="layer1"
     transform="translate(0,-168.5)"
     style="mix-blend-mode:normal">
    <rect
       style="fill:#202f3f;stroke-width:0.288951"
       id="rect3711"
       width="62.706249"
       height="129.38126"
       x="-0.79375005"
       y="168.1479" />
  </g>
  <g
     inkscape:groupmode="layer"
     id="layer2"
     inkscape:label="text"
     style="display:inline">
    <g
       transform="translate(10.583331,2.6458334)"
       style="font-style:normal;font-variant:normal;font-weight:normal;font-stretch:normal;font-size:4.23333px;line-height:1.25;font-family:sans-serif;-inkscape-font-specification:'sans-serif Normal';font-variant-ligatures:normal;font-variant-caps:normal;font-variant-numeric:normal;font-variant-east-asian:normal;fill:#000000;fill-opacity:1;stroke:none;stroke-width:0.264583"
       id="text344"
       aria-label="CLK">
      <path
         inkscape:connector-curvature="0"
         id="path390"
         style="font-style:normal;font-variant:normal;font-weight:bold;font-stretch:normal;font-size:3.52778px;font-family:sans-serif;-inkscape-font-specification:'sans-serif Bold';font-variant-ligatures:normal;font-variant-caps:normal;font-variant-numeric:normal;font-variant-east-asian:normal;fill:#cccccc;stroke-width:0.264583"
         d="m 42.209906,97.565068 q -0.285943,0 -0.528822,-0.0844 -0.241157,-0.08441 -0.415134,-0.251492 -0.173978,-0.167088 -0.270441,-0.416857 -0.09474,-0.24977 -0.09474,-0.577054 0,-0.304891 0.0913,-0.552938 0.0913,-0.248047 0.265273,-0.42547 0.167087,-0.170532 0.413412,-0.26355 0.248047,-0.09302 0.54088,-0.09302 0.16192,0 0.291111,0.01895 0.130913,0.01722 0.241157,0.04651 0.11541,0.03273 0.208428,0.07407 0.09474,0.03962 0.165365,0.07407 v 0.62184 h -0.07579 q -0.04823,-0.04134 -0.1223,-0.09819 -0.07235,-0.05684 -0.165365,-0.111966 -0.09474,-0.05512 -0.204984,-0.09302 -0.110243,-0.0379 -0.235989,-0.0379 -0.139526,0 -0.265272,0.04479 -0.125746,0.04306 -0.232544,0.144695 -0.101631,0.09819 -0.165365,0.260104 -0.06201,0.16192 -0.06201,0.392742 0,0.241156 0.06718,0.403076 0.0689,0.16192 0.172255,0.254937 0.105075,0.09474 0.234266,0.136082 0.129191,0.03962 0.254937,0.03962 0.120579,0 0.237712,-0.03617 0.118856,-0.03617 0.218764,-0.09819 0.0844,-0.04995 0.156752,-0.106798 0.07235,-0.05684 0.118856,-0.09819 h 0.0689 v 0.613227 q -0.09646,0.04306 -0.184313,0.08096 -0.08785,0.0379 -0.184313,0.06546 -0.125746,0.03617 -0.235989,0.05512 -0.110243,0.01895 -0.303169,0.01895 z" />
      <path
         inkscape:connector-curvature="0"
         id="path392"
         style="font-style:normal;font-variant:normal;font-weight:bold;font-stretch:normal;font-size:3.52778px;font-family:sans-serif;-inkscape-font-specification:'sans-serif Bold';font-variant-ligatures:normal;font-variant-caps:normal;font-variant-numeric:normal;font-variant-east-asian:normal;fill:#cccccc;stroke-width:0.264583"
         d="m 45.456911,97.515114 h -1.850018 v -2.564875 h 0.661459 v 2.068781 h 1.188559 z" />
      <path
         inkscape:connector-curvature="0"
         id="path394"
         style="font-style:normal;font-variant:normal;font-weight:bold;font-stretch:normal;font-size:3.52778px;font-family:sans-serif;-inkscape-font-specification:'sans-serif Bold';font-variant-ligatures:normal;font-variant-caps:normal;font-variant-numeric:normal;font-variant-east-asian:normal;fill:#cccccc;stroke-width:0.264583"
         d="m 48.24744,97.515114 h -0.81132 l -0.766534,-1.026639 -0.15503,0.187758 v 0.838881 h -0.661459 v -2.564875 h 0.661459 v 1.160998 l 0.916396,-1.160998 h 0.766534 l -1.002523,1.186836 z" />
    </g>
    <g
       transform="translate(-11.641667,2.6458334)"
       style="font-style:normal;font-weight:normal;font-size:10.5833px;line-height:1.25;font-family:sans-serif;fill:#000000;fill-opacity:1;stroke:none;stroke-width:0.264583"
       id="text348"
       aria-label="EXPR">
      <path
         inkscape:connector-curvature="0"
         id="path397"
         style="font-style:normal;font-variant:normal;font-weight:bold;font-stretch:normal;font-size:3.52778px;font-family:sans-serif;-inkscape-font-specification:'sans-serif Bold';font-variant-ligatures:normal;font-variant-caps:normal;font-variant-numeric:normal;font-variant-east-asian:normal;fill:#cccccc;stroke-width:0.264583"
         d="m 51.975251,97.585861 h -1.855185 v -2.564875 h 1.855185 V 95.51708 H 50.77808 v 0.442695 h 1.111044 v 0.496094 H 50.77808 v 0.633898 h 1.197171 z" />
      <path
         inkscape:connector-curvature="0"
         id="path399"
         style="font-style:normal;font-variant:normal;font-weight:bold;font-stretch:normal;font-size:3.52778px;font-family:sans-serif;-inkscape-font-specification:'sans-serif Bold';font-variant-ligatures:normal;font-variant-caps:normal;font-variant-numeric:normal;font-variant-east-asian:normal;fill:#cccccc;stroke-width:0.264583"
         d="m 54.857075,97.585861 h -0.764811 l -0.552938,-0.844049 -0.563274,0.844049 h -0.730361 l 0.909506,-1.291911 -0.890558,-1.272964 h 0.76309 l 0.53399,0.799263 0.549493,-0.799263 h 0.732083 l -0.895725,1.247125 z" />
      <path
         inkscape:connector-curvature="0"
         id="path401"
         style="font-style:normal;font-variant:normal;font-weight:bold;font-stretch:normal;font-size:3.52778px;font-family:sans-serif;-inkscape-font-specification:'sans-serif Bold';font-variant-ligatures:normal;font-variant-caps:normal;font-variant-numeric:normal;font-variant-east-asian:normal;fill:#cccccc;stroke-width:0.264583"
         d="m 57.342713,95.830584 q 0,0.172255 -0.06029,0.337619 -0.06029,0.163643 -0.172255,0.275608 -0.153307,0.151585 -0.342787,0.229099 -0.187758,0.07752 -0.468533,0.07752 H 55.88716 v 0.835436 h -0.661459 v -2.564875 h 1.088651 q 0.244602,0 0.411689,0.04306 0.16881,0.04134 0.298001,0.125746 0.155029,0.10163 0.235989,0.260105 0.08268,0.158474 0.08268,0.380683 z m -0.683852,0.0155 q 0,-0.108521 -0.05857,-0.186035 -0.05857,-0.07924 -0.136082,-0.110244 -0.103353,-0.04134 -0.201538,-0.04479 -0.09819,-0.0052 -0.261827,-0.0052 H 55.88716 v 0.768256 h 0.18948 q 0.16881,0 0.27733,-0.02067 0.110243,-0.02067 0.184313,-0.08268 0.06373,-0.05512 0.0913,-0.130913 0.02928,-0.07752 0.02928,-0.187758 z" />
      <path
         inkscape:connector-curvature="0"
         id="path403"
         style="font-style:normal;font-variant:normal;font-weight:bold;font-stretch:normal;font-size:3.52778px;font-family:sans-serif;-inkscape-font-specification:'sans-serif Bold';font-variant-ligatures:normal;font-variant-caps:normal;font-variant-numeric:normal;font-variant-east-asian:normal;fill:#cccccc;stroke-width:0.264583"
         d="m 59.247852,95.806468 q 0,-0.09646 -0.03962,-0.165364 -0.03962,-0.0689 -0.136082,-0.108521 -0.06718,-0.02756 -0.156752,-0.03273 -0.08957,-0.0069 -0.208428,-0.0069 h -0.239434 v 0.690742 h 0.20326 q 0.158475,0 0.265273,-0.0155 0.106798,-0.0155 0.179145,-0.07062 0.0689,-0.0534 0.09991,-0.117133 0.03273,-0.06546 0.03273,-0.173978 z m 1.031807,1.779393 H 59.471784 L 58.772429,96.64535 h -0.304891 v 0.940511 h -0.658014 v -2.564875 h 1.109321 q 0.227377,0 0.391019,0.02584 0.163642,0.02584 0.306614,0.111966 0.144694,0.08613 0.229099,0.223931 0.08613,0.136082 0.08613,0.342787 0,0.284221 -0.132636,0.463366 -0.130914,0.179145 -0.375516,0.298001 z" />
    </g>
    <g
       aria-label="slow"
       id="text48"
       style="font-style:normal;font-weight:normal;font-size:10.5833px;line-height:1.25;font-family:sans-serif;fill:#cccccc;fill-opacity:1;stroke:none;stroke-width:0.264583"
       transform="translate(0,-5.8208334)">
      <path
         d="m 41.616724,82.904003 q 0,0.26355 -0.218764,0.43236 -0.217041,0.16881 -0.594279,0.16881 -0.213596,0 -0.392742,-0.04995 -0.177422,-0.05168 -0.298001,-0.111966 v -0.363458 h 0.01723 q 0.153307,0.115411 0.341065,0.184313 0.187757,0.06718 0.360012,0.06718 0.213596,0 0.334175,-0.0689 0.120578,-0.0689 0.120578,-0.217042 0,-0.113688 -0.06546,-0.172255 -0.06546,-0.05857 -0.251492,-0.09991 -0.0689,-0.0155 -0.180867,-0.03617 -0.110244,-0.02067 -0.201539,-0.04479 -0.253214,-0.06718 -0.360012,-0.196371 -0.105076,-0.130913 -0.105076,-0.320394 0,-0.118856 0.04823,-0.223931 0.04995,-0.105076 0.149861,-0.187758 0.09646,-0.08096 0.244602,-0.127469 0.149862,-0.04823 0.334175,-0.04823 0.172255,0 0.347955,0.04306 0.177422,0.04134 0.294555,0.10163 v 0.346232 H 41.5237 q -0.124024,-0.0913 -0.301446,-0.153306 -0.177423,-0.06373 -0.347955,-0.06373 -0.177422,0 -0.299723,0.0689 -0.122301,0.06718 -0.122301,0.201538 0,0.118856 0.07407,0.179146 0.07235,0.06029 0.234267,0.09819 0.08957,0.02067 0.199816,0.04134 0.111965,0.02067 0.186035,0.0379 0.225654,0.05168 0.347955,0.177423 0.122301,0.127468 0.122301,0.337619 z"
         style="font-style:normal;font-variant:normal;font-weight:normal;font-stretch:normal;font-size:3.52778px;font-family:sans-serif;-inkscape-font-specification:'sans-serif Normal';font-variant-ligatures:normal;font-variant-caps:normal;font-variant-numeric:normal;font-variant-east-asian:normal;fill:#cccccc;stroke-width:0.264583"
         id="path72"
         inkscape:connector-curvature="0" />
      <path
         d="m 42.409096,83.458664 h -0.323839 v -2.680286 h 0.323839 z"
         style="font-style:normal;font-variant:normal;font-weight:normal;font-stretch:normal;font-size:3.52778px;font-family:sans-serif;-inkscape-font-specification:'sans-serif Normal';font-variant-ligatures:normal;font-variant-caps:normal;font-variant-numeric:normal;font-variant-east-asian:normal;fill:#cccccc;stroke-width:0.264583"
         id="path74"
         inkscape:connector-curvature="0" />
      <path
         d="m 44.693196,82.497482 q 0,0.470256 -0.241157,0.742418 -0.241157,0.272163 -0.645956,0.272163 -0.408244,0 -0.649401,-0.272163 -0.239434,-0.272162 -0.239434,-0.742418 0,-0.470256 0.239434,-0.742419 0.241157,-0.273885 0.649401,-0.273885 0.404799,0 0.645956,0.273885 0.241157,0.272163 0.241157,0.742419 z m -0.334175,0 q 0,-0.373793 -0.146416,-0.554661 -0.146417,-0.18259 -0.406522,-0.18259 -0.26355,0 -0.409966,0.18259 -0.144695,0.180868 -0.144695,0.554661 0,0.361735 0.146417,0.549493 0.146417,0.186035 0.408244,0.186035 0.258382,0 0.404799,-0.184313 0.148139,-0.186035 0.148139,-0.551215 z"
         style="font-style:normal;font-variant:normal;font-weight:normal;font-stretch:normal;font-size:3.52778px;font-family:sans-serif;-inkscape-font-specification:'sans-serif Normal';font-variant-ligatures:normal;font-variant-caps:normal;font-variant-numeric:normal;font-variant-east-asian:normal;fill:#cccccc;stroke-width:0.264583"
         id="path76"
         inkscape:connector-curvature="0" />
      <path
         d="M 47.616361,81.534577 47.1151,83.458664 h -0.299724 l -0.494371,-1.483115 -0.490927,1.483115 h -0.298001 l -0.506429,-1.924087 h 0.337619 l 0.353123,1.490005 0.480591,-1.490005 h 0.266995 l 0.492649,1.490005 0.334175,-1.490005 z"
         style="font-style:normal;font-variant:normal;font-weight:normal;font-stretch:normal;font-size:3.52778px;font-family:sans-serif;-inkscape-font-specification:'sans-serif Normal';font-variant-ligatures:normal;font-variant-caps:normal;font-variant-numeric:normal;font-variant-east-asian:normal;fill:#cccccc;stroke-width:0.264583"
         id="path78"
         inkscape:connector-curvature="0" />
    </g>
    <g
       aria-label="hold"
       id="text48-3"
       style="font-style:normal;font-weight:normal;font-size:10.5833px;line-height:1.25;font-family:sans-serif;display:inline;fill:#cccccc;fill-opacity:1;stroke:none;stroke-width:0.264583"
       transform="translate(1.0583334,-5.8208334)">
      <path
         d="m 52.037001,83.443062 h -0.323838 v -1.095538 q 0,-0.132636 -0.0155,-0.248046 -0.0155,-0.117133 -0.05684,-0.18259 -0.04306,-0.07235 -0.124023,-0.106798 -0.08096,-0.03617 -0.210151,-0.03617 -0.132636,0 -0.277329,0.06546 -0.144694,0.06546 -0.27733,0.167087 v 1.436602 H 50.428152 V 80.76279 h 0.323838 v 0.969793 q 0.151584,-0.125746 0.313503,-0.19637 0.161919,-0.07063 0.332451,-0.07063 0.311781,0 0.475422,0.187758 0.163642,0.187757 0.163642,0.540878 z"
         style="font-style:normal;font-variant:normal;font-weight:normal;font-stretch:normal;font-size:3.52777px;font-family:sans-serif;-inkscape-font-specification:'sans-serif Normal';font-variant-ligatures:normal;font-variant-caps:normal;font-variant-numeric:normal;font-variant-east-asian:normal;fill:#cccccc;stroke-width:0.264583"
         id="path81"
         inkscape:connector-curvature="0" />
      <path
         d="m 54.300424,82.481882 q 0,0.470255 -0.241157,0.742417 -0.241156,0.272162 -0.645954,0.272162 -0.408243,0 -0.649399,-0.272162 -0.239433,-0.272162 -0.239433,-0.742417 0,-0.470254 0.239433,-0.742416 0.241156,-0.273885 0.649399,-0.273885 0.404798,0 0.645954,0.273885 0.241157,0.272162 0.241157,0.742416 z m -0.334174,0 q 0,-0.373792 -0.146416,-0.554659 -0.146416,-0.18259 -0.406521,-0.18259 -0.263549,0 -0.409965,0.18259 -0.144694,0.180867 -0.144694,0.554659 0,0.361735 0.146416,0.549492 0.146417,0.186035 0.408243,0.186035 0.258382,0 0.404798,-0.184313 0.148139,-0.186034 0.148139,-0.551214 z"
         style="font-style:normal;font-variant:normal;font-weight:normal;font-stretch:normal;font-size:3.52777px;font-family:sans-serif;-inkscape-font-specification:'sans-serif Normal';font-variant-ligatures:normal;font-variant-caps:normal;font-variant-numeric:normal;font-variant-east-asian:normal;fill:#cccccc;stroke-width:0.264583"
         id="path83"
         inkscape:connector-curvature="0" />
      <path
         d="m 55.130689,83.443062 h -0.323838 v -2.680279 h 0.323838 z"
         style="font-style:normal;font-variant:normal;font-weight:normal;font-stretch:normal;font-size:3.52777px;font-family:sans-serif;-inkscape-font-specification:'sans-serif Normal';font-variant-ligatures:normal;font-variant-caps:normal;font-variant-numeric:normal;font-variant-east-asian:normal;fill:#cccccc;stroke-width:0.264583"
         id="path85"
         inkscape:connector-curvature="0" />
      <path
         d="m 57.335546,83.443062 h -0.323838 v -0.201538 q -0.139526,0.120578 -0.29111,0.187757 -0.151584,0.06718 -0.329006,0.06718 -0.344509,0 -0.547769,-0.265272 -0.201538,-0.265272 -0.201538,-0.735526 0,-0.244602 0.0689,-0.435804 0.07062,-0.191202 0.18948,-0.325561 0.117133,-0.130913 0.272162,-0.199815 0.156751,-0.0689 0.323838,-0.0689 0.151584,0 0.268717,0.03273 0.117133,0.031 0.246324,0.09819 v -0.833712 h 0.323838 z m -0.323838,-0.4737 v -1.10415 q -0.130913,-0.05857 -0.234266,-0.08096 -0.103353,-0.02239 -0.225653,-0.02239 -0.272162,0 -0.423746,0.18948 -0.151584,0.18948 -0.151584,0.537433 0,0.342787 0.117133,0.521931 0.117133,0.177422 0.375515,0.177422 0.137803,0 0.279052,-0.06029 0.141248,-0.06201 0.263549,-0.158474 z"
         style="font-style:normal;font-variant:normal;font-weight:normal;font-stretch:normal;font-size:3.52777px;font-family:sans-serif;-inkscape-font-specification:'sans-serif Normal';font-variant-ligatures:normal;font-variant-caps:normal;font-variant-numeric:normal;font-variant-east-asian:normal;fill:#cccccc;stroke-width:0.264583"
         id="path87"
         inkscape:connector-curvature="0" />
    </g>
  </g>
</svg>
